SplineFontDB: 3.0
FontName: Shafarik-Normal
FullName: Shafarik
FamilyName: Shafarik
Weight: Normal
Copyright: Based on CyrillicaShafarik by SynthesisSoft, 1994. Adapted for Unicode by Nikita Simmons, 2014.
UComments: "2014-9-26: Created."
Version: 1.0
ItalicAngle: 0
UnderlinePosition: -100
UnderlineWidth: 50
Ascent: 800
Descent: 200
InvalidEm: 0
sfntRevision: 0x00010000
LayerCount: 2
Layer: 0 0 "Back" 1
Layer: 1 0 "Fore" 0
XUID: [1021 275 2047955494 15697894]
StyleMap: 0x0000
FSType: 0
OS2Version: 0
OS2_WeightWidthSlopeOnly: 0
OS2_UseTypoMetrics: 1
CreationTime: 1411791849
ModificationTime: 1554445233
PfmFamily: 17
TTFWeight: 400
TTFWidth: 5
LineGap: 90
VLineGap: 0
OS2TypoAscent: 0
OS2TypoAOffset: 1
OS2TypoDescent: 0
OS2TypoDOffset: 1
OS2TypoLinegap: 90
OS2WinAscent: 0
OS2WinAOffset: 1
OS2WinDescent: 0
OS2WinDOffset: 1
HheadAscent: 0
HheadAOffset: 1
HheadDescent: 0
HheadDOffset: 1
OS2Vendor: 'PfEd'
MarkAttachClasses: 1
DEI: 91125
LangName: 1033
Encoding: UnicodeFull
Compacted: 1
UnicodeInterp: none
NameList: Adobe Glyph List
DisplaySize: -48
AntiAlias: 1
FitToEm: 1
WinInfo: 324 27 7
BeginPrivate: 0
EndPrivate
Grid
-1000 456.5 m 0
 2000 456.5 l 1024
  Named: "LC"
EndSplineSet
TeXData: 1 0 0 340787 170393 113595 459276 1048576 113595 783286 444596 497025 792723 393216 433062 380633 303038 157286 324010 404750 52429 2506097 1059062 262144
BeginChars: 1114112 1135

StartChar: quotesingle
Encoding: 39 39 1
Width: 174
Flags: W
HStem: 464 246
VStem: 41 90<549.074 683.446>
LayerCount: 2
Fore
SplineSet
124 710 m 1
 131 704 l 1
 116.333 582 107 506.667 103 478 c 1
 73 464 l 1
 59.6667 582 49 654.333 41 681 c 1
 124 710 l 1
EndSplineSet
EndChar

StartChar: parenleft
Encoding: 40 40 2
Width: 250
Flags: W
VStem: 40 114<151.727 496.672>
LayerCount: 2
Fore
SplineSet
154 324 m 4
 154 249.333 157.334 186.667 164 136 c 4
 171.333 80.667 180.667 36 192 2 c 4
 204 -32.667 220.333 -65.333 241 -96 c 5
 226 -124 l 5
 186.667 -86.667 153.667 -46 127 -2 c 4
 103 37.333 84 79.333 70 124 c 4
 56 168 47.667 204 45 232 c 4
 41 272 39.333 297.333 40 308 c 5
 40 324 l 5
 40 339 l 6
 40 359.667 41.667 385.667 45 417 c 4
 48.333 445 56 479 68 519 c 4
 80.667 559.667 99.667 602 125 646 c 4
 152.333 692.667 186 734.334 226 771 c 5
 241 742 l 5
 227 721.333 214 697 202 669 c 4
 192.666 646.333 184 616.667 176 580 c 4
 168 542.667 162.667 504.667 160 466 c 4
 156 410 154 362.667 154 324 c 4
EndSplineSet
EndChar

StartChar: parenright
Encoding: 41 41 3
Width: 250
Flags: W
VStem: 96 114<151.727 496.672>
LayerCount: 2
Fore
SplineSet
96 324 m 4
 96 362.667 94 410 90 466 c 4
 87.333 504.667 82 542.667 74 580 c 4
 66 616.667 57.334 646.333 48 669 c 4
 36 697 23 721.333 9 742 c 5
 24 771 l 5
 64 734.334 97.667 692.667 125 646 c 4
 150.333 602 169.333 559.667 182 519 c 4
 194 479 201.667 445 205 417 c 4
 208.333 385.667 210 359.667 210 339 c 6
 210 324 l 5
 210 308 l 5
 210.667 297.333 209 272 205 232 c 4
 202.333 204 194 168 180 124 c 4
 166 79.333 147 37.333 123 -2 c 4
 96.333 -46 63.333 -86.667 24 -124 c 5
 9 -96 l 5
 29.667 -65.333 46 -32.667 58 2 c 4
 69.333 36 78.667 80.667 86 136 c 4
 92.666 186.667 96 249.333 96 324 c 4
EndSplineSet
EndChar

StartChar: plus
Encoding: 43 43 4
Width: 561
Flags: W
HStem: -2 21G<247 315> 192 65<57 247 315 506> 432 20G<247 315>
VStem: 247 68<-2 192 257 452>
LayerCount: 2
Fore
SplineSet
315 -2 m 1
 247 -2 l 1
 247 192 l 1
 57 192 l 1
 57 257 l 1
 247 257 l 1
 247 452 l 1
 315 452 l 1
 315 257 l 1
 506 257 l 1
 506 192 l 1
 315 192 l 1
 315 -2 l 1
EndSplineSet
EndChar

StartChar: comma
Encoding: 44 44 5
Width: 243
Flags: W
HStem: -12 117<83.6108 139.799>
VStem: 140 55<-61.4488 32.5>
LayerCount: 2
Fore
SplineSet
57 -129 m 1
 79 -114 97 -97 114 -77 c 0
 131 -57 140 -42 140 -31 c 0
 140 -19 133 -12 120 -12 c 0
 82 -12 64 9 64 51 c 0
 64 67 70 80 83 90 c 0
 96 100 111 105 128 105 c 0
 148 105 165 97 177 83 c 0
 189 69 195 47 195 18 c 0
 195 -12 185 -44 164 -77 c 0
 143 -110 113 -139 71 -163 c 1
 57 -129 l 1
EndSplineSet
EndChar

StartChar: hyphen
Encoding: 45 45 6
Width: 303
Flags: W
HStem: 164 79<44 262>
VStem: 44 218<164 243>
LayerCount: 2
Fore
SplineSet
262 243 m 1
 262 164 l 1
 44 164 l 1
 44 243 l 1
 262 243 l 1
EndSplineSet
EndChar

StartChar: period
Encoding: 46 46 7
Width: 242
Flags: W
HStem: -12 128<82.5654 173.435>
VStem: 63 130<7.5647 97.4346>
LayerCount: 2
Fore
SplineSet
128 116 m 256
 146 116 162 110 174 98 c 0
 186 86 193 70 193 52 c 0
 193 34 186 19 174 7 c 0
 162 -5 146 -12 128 -12 c 256
 110 -12 94 -5 82 7 c 0
 70 19 63 34 63 52 c 0
 63 70 70 86 82 98 c 0
 94 110 110 116 128 116 c 256
EndSplineSet
EndChar

StartChar: colon
Encoding: 58 58 8
Width: 277
Flags: W
HStem: -1 113<97.1406 192.949> 352 114<97.1406 192.949>
VStem: 88 108<2.87189 95.3445 354.938 449.344>
LayerCount: 2
Fore
SplineSet
93 360 m 0
 91 364 89 381 88 410 c 0
 88 425 88 435 90 442 c 0
 92 449 94 455 97 457 c 0
 100 459 103 461 108 462 c 0
 119 464 129 465 137 466 c 0
 144 466 155 465 173 463 c 0
 185 461 192 458 193 450 c 0
 195 436 196 422 196 410 c 0
 196 402 195 388 193 370 c 0
 192 362 188 356 180 354 c 0
 171 352 157 352 139 352 c 0
 136 352 127 352 115 354 c 0
 103 356 95 358 93 360 c 0
93 7 m 0
 91 11 89 28 88 57 c 0
 88 72 88 82 90 89 c 0
 92 96 94 101 97 103 c 0
 100 105 103 107 108 109 c 0
 119 111 129 112 137 112 c 0
 144 112 155 112 173 110 c 0
 185 108 192 104 193 96 c 0
 195 82 196 69 196 57 c 0
 196 49 195 35 193 17 c 0
 192 9 188 3 180 1 c 0
 171 -1 157 -1 139 -1 c 0
 136 -1 127 0 115 2 c 0
 103 4 95 5 93 7 c 0
EndSplineSet
EndChar

StartChar: semicolon
Encoding: 59 59 9
Width: 241
Flags: W
HStem: -12 117<83.6108 139.799> 352 114<87.1406 182.949>
VStem: 78 108<354.938 449.344> 140 55<-61.4488 32.5>
LayerCount: 2
Fore
SplineSet
83 360 m 0xe0
 81 364 79 381 78 410 c 0
 78 425 78 435 80 442 c 0
 82 449 84 455 87 457 c 0
 90 459 93 461 98 462 c 0
 109 464 119 465 127 466 c 0
 134 466 145 465 163 463 c 0
 175 461 182 458 183 450 c 0
 185 436 186 422 186 410 c 0
 186 402 185 388 183 370 c 0
 182 362 178 356 170 354 c 0
 161 352 147 352 129 352 c 0
 126 352 117 352 105 354 c 0
 93 356 85 358 83 360 c 0xe0
57 -129 m 1
 79 -114 97 -97 114 -77 c 0
 131 -57 140 -42 140 -31 c 0
 140 -19 133 -12 120 -12 c 0
 82 -12 64 9 64 51 c 0
 64 67 70 80 83 90 c 0
 96 100 111 105 128 105 c 0
 148 105 165 97 177 83 c 0
 189 69 195 47 195 18 c 0xd0
 195 -12 185 -44 164 -77 c 0
 143 -110 113 -139 71 -163 c 1
 57 -129 l 1
EndSplineSet
EndChar

StartChar: equal
Encoding: 61 61 10
Width: 593
Flags: W
HStem: 83 64<85 501> 244 63<85 501>
LayerCount: 2
Fore
SplineSet
85 83 m 1
 85 147 l 1
 501 147 l 1
 501 83 l 1
 85 83 l 1
85 244 m 1
 85 307 l 1
 501 307 l 1
 501 244 l 1
 85 244 l 1
EndSplineSet
EndChar

StartChar: bar
Encoding: 124 124 11
Width: 233
Flags: W
HStem: 631 20G<83 152>
VStem: 83 69<-119 651>
LayerCount: 2
Fore
SplineSet
83 -119 m 1
 83 651 l 1
 152 651 l 1
 152 -119 l 1
 83 -119 l 1
EndSplineSet
EndChar

StartChar: afii10017
Encoding: 1040 1040 12
Width: 533
Flags: W
HStem: -10 105<102 175.614> 0 21G<379 494.5> 609 40<86.0293 161.559>
VStem: 39 72<109.412 303.282>
LayerCount: 2
Fore
SplineSet
512 35 m 2xb0
 514 26 514 18 511 11 c 0
 508 4 500 0 489 0 c 2
 384 0 l 2x70
 374 0 367 3 362 7 c 0
 357 11 353 18 350 28 c 2
 298 195 l 1
 270 130 239 79 209 43 c 0
 179 7 146 -10 111 -10 c 0
 93 -10 78 -1 67 16 c 0
 56 33 49 52 45 74 c 0
 41 96 39 115 39 132 c 0
 39 177 43 219 51 258 c 0
 59 297 67 334 79 367 c 0
 91 400 105 431 121 463 c 0
 144 510 144 510 154 530 c 0
 166 554 173 569 172 576 c 0
 172 585 161 592 139 596 c 1
 127 598 116 602 104 609 c 0
 92 616 86 622 86 628 c 0
 86 642 96 649 116 649 c 2
 375 649 l 2
 393 649 401 646 401 640 c 0
 401 632 393 621 376 604 c 0
 370 598 366 589 364 578 c 0
 362 567 363 558 365 550 c 2
 512 35 l 2xb0
277 253 m 1
 206 524 l 1
 143 416 111 316 111 225 c 0
 111 190 114 160 122 134 c 0
 130 108 141 95 153 95 c 0xb0
 175 95 197 110 219 142 c 0
 241 174 261 211 277 253 c 1
EndSplineSet
EndChar

StartChar: afii10018
Encoding: 1041 1041 13
Width: 548
Flags: W
HStem: 0 41<225.119 331.925> 331 57<225 272.698> 595 54<232.236 298.69>
VStem: 63 162<44.0059 331 388 587.812> 348 161<27 170.376>
LayerCount: 2
Fore
SplineSet
509 41 m 0
 509 13 501 0 483 0 c 2
 98 0 l 2
 86 0 78 3 72 6 c 0
 66 9 63 16 63 28 c 2
 63 618 l 2
 63 639 71 649 86 649 c 2
 476 649 l 2
 481 649 487 646 491 643 c 0
 495 640 497 635 497 628 c 0
 497 621 492 609 480 592 c 0
 468 575 458 557 448 535 c 0
 445 528 441 517 437 503 c 0
 433 489 428 477 424 467 c 0
 420 457 416 448 412 443 c 0
 408 438 402 435 395 435 c 0
 387 435 382 440 377 448 c 0
 372 456 367 467 362 481 c 0
 355 503 345 524 330 542 c 1
 318 557 304 570 289 580 c 0
 274 590 262 595 252 595 c 0
 244 595 237 592 232 588 c 0
 227 584 225 579 225 573 c 2
 225 388 l 1
 241 388 257 386 275 381 c 0
 293 376 311 368 330 357 c 0
 349 346 368 333 386 318 c 0
 404 303 419 288 434 270 c 1
 447 255 460 234 472 209 c 0
 484 184 492 157 499 128 c 0
 506 99 509 69 509 41 c 0
348 116 m 0
 348 152 342 187 330 220 c 0
 318 253 302 281 282 301 c 0
 262 321 243 331 225 331 c 1
 225 63 l 2
 225 48 243 41 280 41 c 0
 325 41 348 66 348 116 c 0
EndSplineSet
EndChar

StartChar: afii10019
Encoding: 1042 1042 14
Width: 548
Flags: W
HStem: 0 38<225.212 336.341> 325 58<225 278.226> 618 31<225 307.837>
VStem: 63 162<38.0234 325 383 617.864> 330 161<110.058 226.07 515.11 602.462> 347 161<17 192.494>
LayerCount: 2
Fore
SplineSet
508 26 m 0xf4
 508 8 500 0 482 0 c 2
 88 0 l 2
 71 0 63 9 63 27 c 2
 63 611 l 2
 63 625 66 635 71 641 c 0
 76 647 85 649 97 649 c 2
 455 649 l 2
 479 649 491 633 491 601 c 0xf8
 491 587 487 568 479 543 c 0
 471 518 462 496 451 474 c 0
 440 452 430 437 421 427 c 0
 393 396 359 373 321 357 c 1
 333 354 349 345 370 330 c 0
 391 315 411 298 431 277 c 0
 451 256 465 236 476 215 c 0
 484 200 490 184 494 169 c 0
 498 154 502 135 504 113 c 0
 506 91 508 62 508 26 c 0xf4
330 547 m 0
 330 577 321 597 304 605 c 0
 287 613 261 618 225 618 c 1
 225 383 l 1
 249 383 l 2
 263 383 276 393 288 412 c 0
 300 431 310 454 318 481 c 0
 326 508 330 529 330 547 c 0
347 108 m 0xf4
 347 152 341 190 329 223 c 0
 317 256 302 281 283 299 c 0
 264 317 245 325 225 325 c 1
 225 60 l 2
 225 53 228 48 232 44 c 0
 236 40 241 38 248 38 c 2
 313 38 l 2
 322 38 330 45 337 58 c 0
 344 71 347 87 347 108 c 0xf4
EndSplineSet
EndChar

StartChar: afii10020
Encoding: 1043 1043 15
Width: 470
Flags: W
HStem: 0 50<246.811 307.869> 613 36<240.984 284.275>
VStem: 79 161<53.5195 612.993>
LayerCount: 2
Fore
SplineSet
448 631 m 0
 448 621 443 604 431 580 c 0
 419 556 412 537 409 523 c 0
 404 498 400 475 398 453 c 0
 396 431 394 418 392 410 c 0
 390 402 388 399 384 399 c 0
 375 399 364 409 352 430 c 0
 340 451 331 479 323 515 c 0
 320 530 315 546 307 561 c 0
 299 576 290 588 282 598 c 0
 274 608 266 613 259 613 c 0
 247 613 240 603 240 584 c 2
 240 109 l 2
 240 77 250 58 268 50 c 0
 300 37 316 25 315 16 c 0
 315 5 308 0 296 0 c 2
 36 0 l 2
 28 0 22 0 19 2 c 0
 16 4 14 7 14 11 c 0
 14 18 17 24 23 29 c 0
 29 34 37 40 48 45 c 0
 69 57 79 77 79 107 c 2
 79 626 l 2
 79 635 81 641 83 644 c 0
 85 647 92 649 100 649 c 2
 415 649 l 2
 437 650 448 643 448 631 c 0
EndSplineSet
EndChar

StartChar: afii10021
Encoding: 1044 1044 16
Width: 637
Flags: W
HStem: 0 43<192.097 335.81> 606 44<435.641 508.763>
VStem: 95 66<-245.406 -154.333>
LayerCount: 2
Fore
SplineSet
619 5 m 2
 521 -220 l 2
 513 -237 507 -248 500 -256 c 0
 493 -264 486 -267 478 -267 c 0
 470 -267 465 -262 463 -253 c 0
 461 -244 462 -222 464 -189 c 0
 466 -156 468 -127 468 -102 c 0
 468 -74 466 -52 462 -37 c 0
 458 -22 450 -12 441 -7 c 0
 432 -2 419 0 403 0 c 2
 216 0 l 2
 207 0 199 -2 192 -6 c 0
 185 -10 183 -15 182 -21 c 2
 161 -221 l 2
 158 -252 149 -267 135 -267 c 0
 128 -267 123 -259 116 -244 c 0
 109 -229 103 -208 95 -181 c 0
 87 -154 81 -128 76 -106 c 0
 74 -95 69 -83 63 -71 c 0
 57 -59 52 -45 44 -31 c 0
 36 -17 31 -6 26 4 c 0
 21 14 19 21 19 24 c 0
 19 36 21 43 26 45 c 0
 31 47 38 49 50 49 c 2
 98 49 l 2
 114 49 127 54 135 65 c 0
 143 76 151 99 158 137 c 2
 228 533 l 2
 230 545 229 557 226 568 c 0
 223 579 216 586 204 588 c 0
 152 602 127 616 126 631 c 0
 126 639 129 644 136 646 c 0
 143 648 153 649 168 649 c 2
 484 650 l 2
 496 650 504 649 509 646 c 0
 514 643 517 637 517 629 c 0
 517 624 514 620 508 617 c 0
 502 614 491 610 478 606 c 0
 465 602 456 598 451 596 c 0
 427 582 417 560 422 532 c 2
 502 84 l 2
 505 67 509 55 513 47 c 0
 517 39 524 34 532 34 c 2
 609 34 l 2
 614 34 617 31 619 24 c 0
 621 17 621 11 619 5 c 2
339 76 m 2
 274 450 l 1
 255 450 l 1
 193 93 l 2
 190 73 190 60 192 53 c 0
 194 46 200 43 212 43 c 2
 313 43 l 2
 325 43 332 46 336 51 c 0
 340 56 341 64 339 76 c 2
EndSplineSet
EndChar

StartChar: afii10022
Encoding: 1045 1045 17
Width: 520
Flags: W
HStem: -13 49<264.408 320.7> 307 63<255.142 445.478> 314 47<255.142 383.6 388.354 461.867> 625 41<268.232 322.786>
VStem: 44 206<174.127 314 369.281 464.747> 328 155<485.04 584.834> 335 150<96.4702 194.976>
LayerCount: 2
Fore
SplineSet
485 173 m 0xba
 485 151 477 125 463 96 c 0
 449 67 425 41 393 19 c 0
 361 -3 320 -13 269 -13 c 0
 244 -13 219 -6 192 8 c 0
 165 22 140 45 118 73 c 0
 96 101 77 138 64 180 c 0
 51 222 44 270 44 322 c 0
 44 388 56 448 79 500 c 0
 102 552 135 593 176 622 c 0
 217 651 262 666 313 666 c 0
 341 666 369 659 396 644 c 0
 423 629 443 610 459 588 c 0
 475 566 483 544 483 522 c 0
 483 497 473 484 455 484 c 2
 357 484 l 2
 349 484 343 487 337 495 c 0
 331 503 328 511 328 520 c 2
 328 581 l 2
 328 595 326 605 321 613 c 0
 316 621 307 625 292 625 c 0
 283 625 275 618 268 606 c 0
 261 594 257 577 254 558 c 0
 251 539 250 519 250 499 c 2
 250 388 l 2
 250 381 252 375 255 369 c 0
 258 363 263 361 269 361 c 2
 318 361 l 1xbc
 339 366 362 369 387 370 c 0
 416 370 437 368 447 363 c 0
 457 358 462 351 462 339 c 0
 462 326 457 317 446 313 c 0
 435 309 415 307 385 307 c 0xdc
 355 307 333 309 321 314 c 1
 271 314 l 2
 257 314 250 304 250 284 c 2
 250 146 l 2
 250 113 254 86 261 66 c 0
 268 46 278 36 292 36 c 0
 304 36 314 44 322 59 c 0
 330 74 335 90 335 105 c 2
 335 165 l 2
 335 173 338 179 342 186 c 0
 346 193 351 195 358 195 c 2
 463 195 l 2
 469 195 474 193 478 188 c 0
 482 183 485 178 485 173 c 0xba
EndSplineSet
EndChar

StartChar: afii10024
Encoding: 1046 1046 18
Width: 841
Flags: W
HStem: 0 21G<71 212 357 485.5 630 770.5> 645 20G<99 114 352 489 724.5 743>
VStem: 42 187<12.3801 171.449> 340 161<8.28125 443.996 486.285 527.504 575 649> 612 188<12.3801 169.251>
LayerCount: 2
Fore
SplineSet
360 0 m 2
 354 0 349 2 346 8 c 0
 343 14 340 20 340 27 c 2
 340 390 l 2
 340 403 339 415 337 427 c 0
 335 439 330 444 325 444 c 0
 319 444 310 437 299 424 c 0
 288 411 280 398 273 383 c 0
 262 358 254 330 248 299 c 0
 242 268 237 236 235 203 c 0
 233 170 231 140 230 112 c 0
 229 84 229 55 229 25 c 0
 229 16 227 9 224 6 c 0
 221 3 216 0 208 0 c 2
 78 0 l 2
 64 0 54 4 49 12 c 0
 44 20 42 35 42 60 c 0
 42 82 49 117 62 165 c 0
 75 213 97 263 129 313 c 0
 147 342 170 370 196 396 c 0
 222 422 246 444 272 461 c 0
 298 478 321 489 340 494 c 1
 340 514 l 1
 310 538 277 550 242 549 c 0
 211 549 183 537 155 513 c 0
 141 501 129 483 117 459 c 0
 112 449 106 441 98 434 c 0
 90 427 84 425 77 425 c 0
 70 425 66 427 64 431 c 0
 62 435 62 440 62 448 c 2
 61 628 l 2
 61 641 64 651 71 657 c 0
 78 663 90 665 108 665 c 0
 120 665 139 661 164 653 c 0
 189 645 217 634 249 620 c 0
 281 606 312 591 340 575 c 1
 340 632 l 2
 340 644 346 649 358 649 c 2
 483 649 l 2
 495 649 501 644 501 632 c 2
 501 575 l 1
 544 600 589 620 636 638 c 0
 683 656 715 665 734 665 c 0
 752 665 765 663 772 657 c 0
 779 651 781 641 781 628 c 2
 780 448 l 2
 780 440 780 435 778 431 c 0
 776 427 772 425 765 425 c 256
 758 425 751 428 743 434 c 0
 735 440 730 448 725 459 c 0
 713 483 701 501 687 513 c 0
 659 537 631 549 600 549 c 0
 565 549 532 537 501 514 c 1
 501 494 l 1
 520 489 543 478 569 461 c 0
 595 444 621 423 647 397 c 0
 673 371 694 343 712 313 c 1
 744 265 766 215 779 167 c 0
 792 119 800 82 800 60 c 0
 800 35 797 20 792 12 c 0
 787 4 777 0 764 0 c 2
 634 0 l 2
 626 0 620 3 617 6 c 0
 614 9 612 16 612 25 c 0
 612 97 610 165 605 226 c 0
 600 287 588 339 568 383 c 0
 561 398 553 413 542 425 c 0
 531 437 523 444 517 444 c 0
 512 444 507 439 505 427 c 0
 503 415 501 403 501 390 c 2
 501 27 l 2
 501 20 500 14 497 8 c 0
 494 2 489 0 482 0 c 2
 360 0 l 2
EndSplineSet
EndChar

StartChar: afii10065
Encoding: 1072 1072 19
Width: 391
Flags: W
HStem: -13 92<94 160.969> 0 21G<269.5 365> 423 32<282.872 318.698>
VStem: 38 61<85.3486 242.328>
LayerCount: 2
Fore
SplineSet
373 28 m 2xb0
 378 10 373 0 357 0 c 2
 277 0 l 2x70
 262 0 252 7 249 22 c 2
 224 124 l 1
 218 97 210 73 198 53 c 0
 186 33 173 17 156 5 c 0
 139 -7 123 -13 105 -13 c 0
 83 -13 67 0 55 27 c 0
 43 54 38 88 38 130 c 0
 38 158 44 193 56 231 c 0
 68 269 82 303 98 331 c 0
 116 363 125 384 125 393 c 0
 125 403 115 411 94 419 c 0
 81 424 74 430 74 438 c 0
 74 450 79 455 88 455 c 2
 302 455 l 2
 314 455 319 450 319 442 c 0
 319 434 314 428 302 423 c 0
 295 421 290 416 285 410 c 0
 280 404 278 398 278 392 c 0
 278 374 281 351 288 326 c 2
 373 28 l 2xb0
199 209 m 1
 154 371 l 1
 142 337 132 307 124 282 c 0
 116 257 110 236 106 216 c 0
 102 196 99 178 99 161 c 0
 99 139 102 120 109 103 c 0
 116 86 125 79 134 79 c 0xb0
 142 79 151 84 160 92 c 0
 169 100 177 111 185 124 c 0
 193 137 198 152 201 167 c 0
 204 182 203 197 199 209 c 1
EndSplineSet
EndChar

StartChar: afii10066
Encoding: 1073 1073 20
Width: 410
Flags: W
HStem: 0 30<176 248.976> 208 33<176 218.437> 420 35<176.898 230.996>
VStem: 49 127<30 208 241 419.998> 257 124<37.4138 150.61>
LayerCount: 2
Fore
SplineSet
381 67 m 0
 381 39 378 21 373 13 c 0
 368 5 357 0 342 0 c 2
 77 0 l 2
 59 0 49 8 49 25 c 2
 49 435 l 2
 49 448 54 455 65 455 c 2
 327 455 l 2
 339 455 348 453 353 448 c 0
 358 443 360 436 360 425 c 0
 360 418 357 407 350 393 c 0
 343 379 340 367 338 358 c 0
 336 341 331 328 326 318 c 0
 321 308 315 302 310 302 c 0
 296 302 279 323 261 365 c 1
 255 379 245 391 231 403 c 0
 217 415 203 420 191 420 c 0
 183 420 180 417 178 409 c 0
 176 401 176 390 176 374 c 2
 176 241 l 1
 212 241 245 234 277 221 c 0
 309 208 333 189 352 162 c 0
 371 135 381 104 381 67 c 0
257 63 m 0
 257 102 254 132 247 154 c 0
 240 176 231 189 219 197 c 0
 207 205 194 208 176 208 c 1
 176 30 l 1
 201 30 220 32 235 37 c 0
 250 42 257 51 257 63 c 0
EndSplineSet
EndChar

StartChar: afii10067
Encoding: 1074 1074 21
Width: 416
Flags: W
HStem: 0 31<183.238 243.67> 418 37<177.444 242.979>
VStem: 49 127<37.1436 221 282 417.992> 250 111<338.834 411.744> 254 131<35.7925 147.18>
LayerCount: 2
Fore
SplineSet
385 53 m 0xe8
 385 33 382 20 375 12 c 0
 368 4 355 0 335 0 c 2
 75 0 l 2
 67 0 60 3 56 7 c 0
 52 11 49 16 49 24 c 2
 49 426 l 2
 49 444 57 454 74 455 c 2
 292 455 l 2
 313 455 328 453 337 451 c 0
 346 449 353 442 356 434 c 0
 359 426 361 412 361 394 c 0xf0
 361 376 352 356 334 331 c 0
 316 306 289 281 251 254 c 1
 291 229 323 201 348 170 c 0
 373 139 385 101 385 53 c 0xe8
250 374 m 0
 250 403 232 418 195 418 c 0
 183 418 176 407 176 385 c 2
 176 282 l 1
 194 283 211 293 227 311 c 0
 243 329 250 351 250 374 c 0
254 64 m 0xe8
 254 93 249 120 241 144 c 0
 233 168 221 188 209 201 c 0
 197 214 186 221 176 221 c 1
 176 59 l 2
 176 47 178 40 183 37 c 0
 188 34 198 31 214 31 c 0
 228 31 237 33 244 38 c 0
 251 43 254 52 254 64 c 0xe8
EndSplineSet
EndChar

StartChar: afii10068
Encoding: 1075 1075 22
Width: 341
Flags: W
HStem: 0 21G<63 160.5> 418 37<178.82 227.937>
VStem: 49 127<0.023468 417.987> 250 48<262.941 398.996>
LayerCount: 2
Fore
SplineSet
296 455 m 2
 304 455 310 454 313 451 c 0
 316 448 319 444 320 439 c 0
 321 434 321 430 319 428 c 0
 316 420 312 394 307 352 c 0
 304 319 301 294 298 278 c 0
 295 262 290 255 285 255 c 0
 270 255 258 282 250 337 c 0
 242 391 223 418 193 418 c 0
 181 418 176 400 176 362 c 2
 176 24 l 2
 176 8 168 0 153 0 c 2
 70 0 l 2
 56 0 49 8 49 25 c 2
 49 430 l 2
 49 439 51 446 54 449 c 0
 57 452 65 455 75 455 c 2
 296 455 l 2
EndSplineSet
EndChar

StartChar: afii10069
Encoding: 1076 1076 23
Width: 453
Flags: W
HStem: 0 40<143.33 237.469> 406 49<80.0481 147.832>
LayerCount: 2
Fore
SplineSet
431 -10 m 1
 426 -18 420 -32 412 -52 c 0
 404 -72 397 -93 392 -115 c 0
 387 -140 379 -159 369 -172 c 0
 359 -185 350 -193 341 -193 c 0
 336 -193 332 -186 328 -171 c 0
 324 -156 322 -139 321 -119 c 2
 318 -32 l 2
 318 -20 316 -13 314 -8 c 0
 312 -3 305 0 293 0 c 2
 172 0 l 2
 160 0 150 -4 143 -12 c 0
 136 -20 132 -31 130 -44 c 2
 120 -112 l 2
 117 -134 111 -152 103 -167 c 0
 95 -182 87 -189 79 -189 c 0
 74 -189 68 -179 62 -157 c 0
 56 -135 51 -112 48 -87 c 0
 46 -72 41 -52 33 -26 c 0
 25 0 21 15 21 17 c 0
 21 23 24 28 27 33 c 0
 30 38 35 40 40 40 c 2
 97 40 l 1
 145 320 l 1
 150 348 153 364 153 370 c 0
 153 378 149 384 141 391 c 0
 133 398 123 403 111 406 c 0
 89 412 79 422 79 434 c 0
 79 448 89 455 108 455 c 2
 333 455 l 2
 353 455 363 447 363 431 c 0
 363 421 353 411 332 403 c 1
 323 399 315 392 308 384 c 0
 301 376 299 366 301 358 c 1
 366 40 l 1
 408 40 l 2
 419 40 427 34 431 24 c 0
 435 14 435 2 431 -10 c 1
237 65 m 2
 186 315 l 1
 138 40 l 1
 222 40 l 2
 235 40 240 48 237 65 c 2
EndSplineSet
EndChar

StartChar: afii10070
Encoding: 1077 1077 24
Width: 422
Flags: W
HStem: -13 43<192.737 251.602> 202 53<182.188 352.763> 419 49<195.185 249.019>
VStem: 39 137<106.831 339.63> 255 121<333.235 415.564> 256 131<38.484 125.809>
LayerCount: 2
Fore
SplineSet
387 99 m 0xf4
 387 81 382 63 370 45 c 0
 358 27 341 14 319 3 c 0
 297 -8 268 -13 234 -13 c 0
 192 -13 158 -3 128 19 c 0
 98 41 76 69 61 106 c 0
 46 143 39 182 39 224 c 0
 39 256 43 287 52 316 c 0
 61 345 74 371 92 394 c 0
 110 417 131 435 156 448 c 0
 181 461 208 468 239 468 c 0
 265 468 288 463 310 452 c 0
 332 441 347 427 359 409 c 0
 371 391 376 375 376 357 c 0
 376 335 371 325 361 326 c 2
 279 326 l 2
 269 326 262 328 259 333 c 0
 256 338 255 344 255 352 c 0xf8
 255 397 245 419 227 419 c 0
 215 419 203 410 192 393 c 0
 181 376 176 346 176 303 c 0
 176 271 186 255 204 255 c 2
 325 255 l 2
 349 255 361 247 361 229 c 0
 361 220 358 212 353 208 c 0
 348 204 339 202 327 202 c 2
 198 202 l 2
 191 202 186 199 182 191 c 0
 178 183 176 172 176 158 c 0
 176 111 180 78 188 59 c 0
 196 40 209 30 226 30 c 0
 246 30 256 47 256 82 c 0
 256 115 264 132 282 132 c 2
 357 132 l 2
 369 132 377 130 381 126 c 0
 385 122 387 113 387 99 c 0xf4
EndSplineSet
EndChar

StartChar: afii10072
Encoding: 1078 1078 25
Width: 593
Flags: W
HStem: 0 21G<52.5 161 250 347 435.5 542.5> 372 93<64 181 413.5 530.5> 435 20G<247.5 341>
VStem: 39 134<0 123.887> 234 127<7.14282 288 374 454.96> 419 137<4.14209 124.182>
LayerCount: 2
Fore
SplineSet
254 0 m 1xdc
 246 1 240 4 238 7 c 0
 236 10 234 16 234 24 c 2
 234 288 l 1
 222 277 213 264 205 249 c 0
 197 234 191 212 186 181 c 0
 181 150 178 107 178 55 c 0
 178 33 176 20 173 12 c 0
 170 4 165 0 157 0 c 2
 59 0 l 2
 46 0 39 10 39 29 c 0
 39 55 46 85 58 118 c 0
 70 151 92 185 121 223 c 0
 150 261 187 298 234 333 c 1
 215 359 193 372 169 372 c 0
 147 372 130 361 118 339 c 0
 117 337 114 330 107 318 c 0
 100 306 95 298 92 294 c 0
 89 290 83 288 78 288 c 0
 58 288 48 330 48 413 c 0
 48 448 56 465 72 465 c 0xdc
 100 465 129 458 157 443 c 0
 185 428 211 406 234 374 c 1
 234 438 l 2
 234 450 241 455 254 455 c 2
 341 455 l 2xbc
 354 456 361 450 361 438 c 2
 361 374 l 1
 384 406 411 428 439 443 c 0
 467 458 495 465 523 465 c 0
 538 465 546 448 546 413 c 0
 546 330 536 288 517 288 c 0
 512 288 506 290 503 294 c 0
 500 298 495 306 488 318 c 0
 481 330 479 337 477 339 c 0
 464 361 447 372 425 372 c 0
 402 372 380 359 361 333 c 1
 408 297 445 261 474 223 c 0
 503 185 525 151 537 118 c 0
 549 85 556 55 556 29 c 0
 556 10 549 0 536 0 c 2
 438 0 l 2
 433 0 429 1 426 4 c 0
 423 7 421 12 419 20 c 0
 417 28 417 39 417 55 c 0
 417 129 412 183 402 216 c 0
 392 249 379 273 361 288 c 1
 361 24 l 2
 361 8 354 0 340 0 c 2
 254 0 l 1xdc
EndSplineSet
EndChar

StartChar: afii10025
Encoding: 1047 1047 26
Width: 615
Flags: W
HStem: -13 55<229.247 364.329> 334 39<205 341.719> 618 48<237.602 356.367>
VStem: 47 146<79.3792 212.369> 64 146<441.408 573.915> 392 142<411.026 575.49> 407 162<89.8128 248.48>
LayerCount: 2
Fore
SplineSet
293 42 m 0xf2
 333 42 362 55 380 81 c 0
 398 107 407 139 407 181 c 0xf2
 407 208 402 231 394 251 c 0
 386 271 375 287 362 299 c 0
 349 311 335 320 321 326 c 0
 307 332 295 334 283 334 c 2
 205 334 l 1
 205 373 l 1
 281 373 l 2
 319 373 347 383 365 404 c 0
 383 425 392 450 392 478 c 0
 392 507 388 532 380 553 c 0
 372 574 363 591 351 602 c 0
 339 613 328 618 316 618 c 0
 274 618 247 610 233 592 c 0
 219 574 212 550 211 518 c 2
 210 482 l 2
 209 444 179 426 119 426 c 2
 74 426 l 1
 68 440 65 462 64 490 c 1
 65 544 84 586 123 618 c 0
 162 650 224 666 307 666 c 0
 366 666 413 658 446 644 c 0
 479 630 503 610 515 584 c 0
 527 558 534 528 534 491 c 0xec
 534 459 530 433 521 412 c 0
 512 391 500 376 486 365 c 0
 472 354 455 344 433 336 c 1
 455 328 477 315 498 299 c 0
 519 283 536 266 549 246 c 0
 562 226 569 204 569 182 c 0
 569 135 560 97 541 68 c 0
 522 39 492 18 451 6 c 0
 410 -6 356 -13 289 -13 c 0
 206 -13 144 3 106 35 c 0
 68 67 48 110 47 163 c 1
 47 191 50 213 56 227 c 1
 102 227 l 2
 163 227 193 209 193 171 c 2
 193 127 l 2
 193 105 203 86 223 68 c 0
 243 50 267 42 293 42 c 0xf2
EndSplineSet
EndChar

StartChar: afii10073
Encoding: 1079 1079 27
Width: 460
Flags: W
HStem: -13 51<189.938 277.637> 224 42<183.184 280.241> 428 41<179.248 276.055>
VStem: 40 130<52.1719 134.812> 47 117<328.234 407.384> 293 124<285.756 409.806> 301 123<65.024 204.452>
LayerCount: 2
Fore
SplineSet
233 -13 m 0xe2
 186 -13 150 -9 123 -1 c 0
 111 3 98 10 85 21 c 0
 72 32 60 44 52 57 c 0
 44 70 40 81 40 93 c 0
 40 125 45 140 55 141 c 2
 140 141 l 2
 148 141 155 139 161 135 c 0
 167 131 169 126 170 118 c 0
 172 104 174 92 177 80 c 0
 180 68 185 59 193 51 c 0
 201 43 214 38 229 38 c 0
 253 38 271 48 283 67 c 0
 295 86 301 111 301 142 c 0xf2
 301 165 296 185 288 201 c 0
 280 217 268 224 254 224 c 2
 215 224 l 2
 193 224 183 230 183 242 c 0
 183 257 193 265 212 266 c 2
 249 266 l 2
 262 266 273 273 281 288 c 0
 289 303 293 323 293 348 c 0
 293 372 288 391 278 406 c 0
 268 421 253 428 233 428 c 0
 205 428 187 421 178 408 c 0
 169 395 164 373 164 342 c 0
 164 336 161 331 155 326 c 0
 149 321 141 319 131 319 c 2
 67 320 l 2
 61 320 55 323 52 328 c 0
 49 333 47 338 47 346 c 0
 47 384 62 415 93 437 c 0
 124 459 172 469 234 469 c 0
 277 469 312 464 340 453 c 0
 368 442 387 429 399 411 c 0
 411 393 417 375 417 353 c 0xec
 417 338 414 323 408 308 c 0
 402 293 395 280 384 269 c 0
 373 258 360 251 345 246 c 1
 373 236 394 222 406 202 c 0
 418 182 424 152 424 111 c 0
 424 87 416 65 399 47 c 0
 382 29 361 14 332 3 c 0
 303 -8 270 -13 233 -13 c 0xe2
EndSplineSet
EndChar

StartChar: afii10026
Encoding: 1048 1048 28
Width: 575
Flags: W
HStem: 0 21G<81 209.5 371 500> 629 20G<84 216 368 497>
VStem: 63 162<0.394775 81 223 648.951> 351 161<7.23511 402 572 642.81>
LayerCount: 2
Fore
SplineSet
512 25 m 2
 512 8 506 0 494 0 c 2
 374 0 l 2
 368 0 363 2 358 7 c 0
 353 12 351 18 351 26 c 2
 351 402 l 1
 225 81 l 1
 225 21 l 1
 224 7 217 0 202 0 c 2
 90 0 l 2
 72 0 63 11 63 33 c 2
 63 624 l 2
 63 642 70 650 84 649 c 2
 212 649 l 2
 220 649 224 641 225 624 c 2
 225 223 l 1
 351 572 l 1
 351 625 l 2
 351 635 352 641 354 644 c 0
 356 647 363 649 373 649 c 2
 493 649 l 2
 501 649 506 647 508 643 c 0
 510 639 512 632 512 622 c 2
 512 25 l 2
EndSplineSet
EndChar

StartChar: afii10074
Encoding: 1080 1080 29
Width: 460
Flags: W
HStem: 0 21G<66.5 158 295 396> 435 20G<63.5 166 297 394>
VStem: 49 127<9.14209 102 190 450.856> 283 127<6.14282 285 368 449.856>
LayerCount: 2
Fore
SplineSet
176 190 m 1
 283 368 l 1
 283 435 l 2
 283 442 285 447 287 450 c 0
 289 453 294 455 300 455 c 2
 390 455 l 2
 398 455 404 453 406 450 c 0
 408 447 410 440 410 431 c 2
 410 26 l 2
 410 8 403 0 389 0 c 2
 298 0 l 2
 292 0 288 3 286 6 c 0
 284 9 283 15 283 23 c 2
 283 285 l 1
 176 102 l 1
 176 21 l 2
 176 13 174 7 171 4 c 0
 168 1 162 0 154 0 c 2
 69 0 l 2
 64 0 61 0 58 2 c 0
 55 4 53 6 51 9 c 0
 49 12 49 17 49 24 c 2
 49 432 l 2
 49 441 51 448 53 451 c 0
 55 454 60 455 67 455 c 2
 161 455 l 2
 171 455 176 447 176 432 c 2
 176 190 l 1
EndSplineSet
EndChar

StartChar: afii10028
Encoding: 1050 1050 30
Width: 545
Flags: W
HStem: 0 21G<78 215 344 481.5> 316 42<225 266.936> 463 21G<466.5 473> 516 149<366.802 435> 629 20G<73 217>
VStem: 63 162<5.14208 316 358 649> 330 168<6.14355 222.928>
LayerCount: 2
Fore
SplineSet
494 532 m 0xf6
 494 515 492 500 487 485 c 0
 482 470 477 463 469 463 c 0
 464 463 460 465 456 467 c 0
 452 469 447 472 442 477 c 0
 437 482 432 486 427 491 c 0
 424 493 420 497 415 502 c 0
 410 507 406 510 402 512 c 0
 398 514 393 516 388 516 c 0xf6
 370 516 356 506 347 488 c 0
 338 470 333 453 333 437 c 0
 333 431 336 425 341 418 c 0
 346 411 359 399 378 379 c 0
 410 345 440 301 466 248 c 0
 475 229 483 204 489 172 c 0
 495 140 498 104 498 63 c 0
 498 47 498 34 497 25 c 0
 496 16 493 9 491 6 c 0
 489 3 484 0 479 0 c 2
 351 0 l 2
 337 0 330 7 330 21 c 2
 330 157 l 2
 330 176 324 198 314 223 c 0
 304 248 291 270 274 288 c 0
 257 306 242 316 225 316 c 1
 225 17 l 2
 225 5 220 0 210 0 c 2
 80 0 l 2
 76 0 71 2 68 5 c 0
 65 8 63 13 63 18 c 2
 63 629 l 2
 63 642 68 649 78 649 c 2
 213 649 l 2xee
 221 649 225 642 225 630 c 2
 225 358 l 1
 251 358 l 2
 262 358 271 371 279 397 c 0
 287 423 296 468 307 531 c 0
 310 553 317 573 328 594 c 0
 339 615 353 633 370 646 c 0
 387 659 405 665 424 665 c 0
 446 665 461 662 471 654 c 0
 481 646 486 634 489 616 c 0
 492 598 494 570 494 532 c 0xf6
EndSplineSet
EndChar

StartChar: afii10029
Encoding: 1051 1051 31
Width: 515
Flags: W
HStem: 0 21G<44 212 337.5 479> 629 20G<138 411>
LayerCount: 2
Fore
SplineSet
493 34 m 2
 495 24 495 16 492 9 c 0
 489 2 483 0 475 0 c 2
 344 0 l 2
 331 0 322 8 320 23 c 2
 217 554 l 1
 215 532 212 504 206 472 c 0
 200 440 192 403 184 361 c 0
 176 319 168 280 161 245 c 0
 154 210 150 190 150 182 c 0
 150 130 162 95 186 77 c 0
 200 66 212 55 223 42 c 0
 234 29 239 20 239 15 c 256
 239 10 236 6 229 4 c 0
 222 2 216 0 208 0 c 2
 52 0 l 2
 36 0 28 7 28 19 c 0
 28 24 29 32 32 41 c 0
 35 50 44 71 56 104 c 0
 68 137 79 167 87 191 c 0
 95 215 102 237 107 257 c 0
 147 411 167 508 167 550 c 0
 167 564 165 574 158 581 c 0
 151 588 143 593 133 598 c 1
 110 609 98 619 98 631 c 0
 98 643 111 650 138 649 c 2
 405 649 l 2
 417 649 424 649 428 647 c 0
 432 645 435 641 435 634 c 0
 435 632 434 630 432 628 c 0
 430 626 427 622 423 619 c 0
 417 615 417 615 413 612 c 0
 398 602 390 590 390 577 c 0
 390 558 392 541 394 529 c 2
 493 34 l 2
EndSplineSet
EndChar

StartChar: afii10030
Encoding: 1052 1052 32
Width: 765
Flags: W
HStem: -13 160<353.041 412> 0 21G<85 209 557 679.5> 629 20G<84 222.5 551 688>
VStem: 63 162<7.23585 361> 522 179<466.73 648.671> 540 161<7.1897 361>
LayerCount: 2
Fore
SplineSet
382 -13 m 0xb4
 360 -13 341 -5 326 11 c 0
 311 27 298 50 287 81 c 0
 276 112 266 152 256 203 c 0
 246 254 235 306 225 361 c 1
 225 22 l 2
 225 7 217 0 201 0 c 2
 90 0 l 2x74
 80 0 73 2 69 7 c 0
 65 12 63 19 63 30 c 2
 63 624 l 2
 63 642 70 650 84 649 c 2
 214 649 l 2
 231 649 241 639 243 621 c 0
 244 613 246 594 250 566 c 0
 254 538 259 506 264 473 c 0
 269 440 277 400 287 352 c 1
 299 300 313 253 331 211 c 0
 349 169 365 147 382 147 c 0
 394 147 406 157 418 178 c 0
 430 199 441 226 452 259 c 0
 463 292 472 324 478 352 c 0
 488 400 496 440 501 473 c 0
 506 506 511 538 515 566 c 0
 519 594 521 613 522 621 c 0
 524 640 534 650 551 649 c 2
 681 649 l 2
 695 649 702 641 701 624 c 2xb8
 701 30 l 2
 701 18 699 11 695 7 c 0
 691 3 684 0 675 0 c 2
 566 0 l 2x74
 548 0 540 7 540 22 c 2
 540 361 l 1
 526 290 514 233 504 189 c 0
 494 145 485 108 474 79 c 0
 463 50 451 27 436 11 c 0
 421 -5 404 -13 382 -13 c 0xb4
EndSplineSet
EndChar

StartChar: afii10031
Encoding: 1053 1053 33
Width: 575
Flags: W
HStem: 0 21G<77 205 368 495> 629 20G<79 208 364 499>
VStem: 64 161<7.23511 402 572 641.81> 352 161<0.394775 81 223 648.951>
LayerCount: 2
Fore
SplineSet
64 25 m 2
 64 622 l 2
 64 631 66 638 68 642 c 0
 70 646 75 649 83 649 c 2
 203 649 l 2
 213 649 220 647 222 645 c 0
 224 643 225 636 225 625 c 2
 225 572 l 1
 352 223 l 1
 352 624 l 2
 352 642 356 650 364 649 c 2
 492 649 l 2
 506 649 513 641 513 624 c 2
 513 33 l 2
 513 11 504 0 486 0 c 2
 375 0 l 2
 361 0 354 7 352 21 c 1
 352 81 l 1
 225 402 l 1
 225 26 l 2
 225 18 223 12 218 7 c 0
 213 2 208 0 202 0 c 2
 83 0 l 2
 71 0 64 8 64 25 c 2
EndSplineSet
EndChar

StartChar: afii10032
Encoding: 1054 1054 34
Width: 575
Flags: W
HStem: -8 47<252.031 324.003> 621 42<252.873 323.127>
VStem: 44 179<188.917 477.177> 353 179<188.989 476.776>
LayerCount: 2
Fore
SplineSet
288 -8 m 256
 258 -8 228 0 200 16 c 0
 172 32 145 53 121 83 c 0
 97 113 77 150 64 192 c 0
 51 234 44 281 44 333 c 0
 44 385 51 431 64 472 c 0
 77 513 97 548 120 576 c 0
 143 604 170 626 199 641 c 0
 228 656 258 663 288 663 c 256
 318 663 348 656 377 641 c 0
 406 626 433 604 456 576 c 0
 479 548 499 513 512 472 c 0
 525 431 532 385 532 333 c 0
 532 281 525 234 511 191 c 0
 497 148 478 111 455 82 c 0
 432 53 406 32 377 16 c 0
 348 0 318 -8 288 -8 c 256
288 39 m 256
 331 39 353 102 353 228 c 2
 353 445 l 2
 353 495 348 538 337 571 c 0
 326 604 310 621 288 621 c 256
 266 621 250 604 239 571 c 0
 228 538 223 496 223 445 c 2
 223 228 l 2
 223 102 245 39 288 39 c 256
EndSplineSet
EndChar

StartChar: afii10033
Encoding: 1055 1055 35
Width: 567
Flags: W
HStem: 0 21G<76 204.5 368.5 492> 598 51<225 349>
VStem: 63 162<7.23511 598> 349 161<0.394775 598>
LayerCount: 2
Fore
SplineSet
63 25 m 2
 63 622 l 2
 63 631 65 638 67 642 c 0
 69 646 75 649 83 649 c 2
 489 649 l 2
 503 649 510 641 510 624 c 2
 510 33 l 2
 510 11 501 0 483 0 c 2
 372 0 l 2
 365 0 360 2 356 6 c 0
 352 10 349 15 349 21 c 2
 349 598 l 1
 225 598 l 1
 225 26 l 2
 225 18 223 12 218 7 c 0
 213 2 207 0 202 0 c 2
 82 0 l 2
 70 0 63 8 63 25 c 2
EndSplineSet
EndChar

StartChar: afii10034
Encoding: 1056 1056 36
Width: 510
Flags: W
HStem: 0 50<242.811 304.078> 271 43<252.652 331> 615 44<239.121 305.197>
VStem: 75 161<53.5195 299> 75 153<339.887 566.701> 324 152<352.447 551.57>
LayerCount: 2
Fore
SplineSet
236 109 m 2xf4
 236 77 246 58 264 50 c 0
 296 37 312 25 312 16 c 0
 312 5 305 0 293 0 c 2
 33 0 l 2
 25 0 19 0 16 2 c 0
 13 4 10 7 10 11 c 0
 10 18 13 24 19 29 c 0
 25 34 33 40 44 45 c 0
 65 57 75 77 75 107 c 2xf4
 75 463 l 2xec
 75 511 85 549 103 578 c 0
 121 607 146 629 177 641 c 0
 208 653 241 659 278 659 c 0
 305 659 330 654 353 645 c 0
 376 636 399 621 417 603 c 0
 435 585 451 563 461 536 c 0
 471 509 476 477 476 441 c 0
 476 405 469 374 452 349 c 0
 435 324 415 304 391 291 c 0
 367 278 342 271 320 271 c 0
 289 271 261 281 236 299 c 1
 236 109 l 2xf4
324 465 m 0
 324 517 320 556 312 579 c 0
 304 602 289 615 270 615 c 0
 256 615 246 609 240 598 c 0
 234 587 230 572 229 554 c 0
 228 536 228 510 228 475 c 0xec
 228 431 233 394 242 362 c 0
 251 330 263 314 281 314 c 0
 297 314 307 326 314 349 c 0
 321 372 324 411 324 465 c 0
EndSplineSet
EndChar

StartChar: afii10035
Encoding: 1057 1057 37
Width: 526
Flags: W
HStem: -13 50<267.771 324.353> 457 21G<369 452> 610 56<262.168 325.804>
VStem: 43 211<186.111 483.678> 333 161<96.0486 211.187> 333 150<469.376 562.747>
LayerCount: 2
Fore
SplineSet
494 180 m 0xf8
 494 150 486 119 468 89 c 0
 450 59 425 35 392 16 c 0
 359 -3 320 -13 275 -13 c 0
 242 -13 210 -4 182 14 c 0
 154 32 129 57 108 89 c 0
 87 121 72 159 60 202 c 0
 48 245 43 291 43 341 c 0
 43 383 48 423 58 461 c 0
 68 499 83 533 102 565 c 0
 121 597 144 621 172 639 c 0
 200 657 232 666 267 666 c 0
 305 666 338 659 366 647 c 0
 394 635 415 618 433 600 c 0
 451 582 463 562 471 543 c 0
 479 524 483 508 483 495 c 0
 483 486 480 477 475 469 c 0
 470 461 462 458 452 458 c 2
 375 457 l 2
 363 457 353 459 347 462 c 0
 341 465 338 469 336 476 c 0
 334 483 333 490 333 501 c 2
 333 562 l 2
 333 578 330 590 324 598 c 0
 318 606 307 610 291 610 c 0
 277 610 267 602 262 589 c 0
 257 576 254 554 254 526 c 2
 254 128 l 2
 254 108 256 91 258 78 c 0
 260 65 264 55 271 48 c 0
 278 41 287 37 299 37 c 0
 310 37 318 42 324 53 c 0
 330 64 333 78 333 96 c 2xf4
 333 172 l 2
 333 200 345 213 367 213 c 2
 463 213 l 2
 484 213 494 202 494 180 c 0xf8
EndSplineSet
EndChar

StartChar: afii10036
Encoding: 1058 1058 38
Width: 555
Flags: W
HStem: 0 50<367.811 429.078> 616 33<162.94 199.909 361.092 399.06>
VStem: 80 25<379.094 452.722> 200 161<53.5195 615.995> 457 24<379.094 448.889>
LayerCount: 2
Fore
SplineSet
361 597 m 2
 361 109 l 2
 361 77 371 58 389 50 c 0
 421 37 437 25 437 16 c 0
 437 5 430 0 418 0 c 2
 158 0 l 2
 150 0 144 0 141 2 c 0
 138 4 135 7 135 11 c 0
 135 18 138 24 144 29 c 0
 150 34 158 40 169 45 c 0
 190 57 200 77 200 107 c 2
 200 597 l 2
 200 609 195 616 186 616 c 0
 174 616 162 604 152 579 c 0
 142 554 134 527 127 498 c 0
 120 469 113 431 105 385 c 0
 105 383 103 381 101 379 c 0
 99 377 95 376 92 376 c 256
 90 376 86 377 84 379 c 0
 82 381 81 384 80 386 c 1
 78 418 74 446 69 468 c 0
 64 490 57 514 49 537 c 0
 45 549 38 564 29 584 c 0
 20 604 16 617 16 622 c 0
 16 634 18 641 21 644 c 0
 24 647 30 649 42 649 c 2
 520 649 l 2
 532 649 539 646 542 643 c 0
 545 640 546 633 546 622 c 0
 546 617 541 604 532 584 c 0
 523 564 516 549 512 537 c 0
 503 510 496 487 492 466 c 0
 488 445 484 418 481 386 c 0
 481 384 480 381 478 379 c 0
 476 377 472 376 469 376 c 256
 467 376 464 377 462 379 c 0
 460 381 458 383 457 385 c 1
 449 430 442 468 435 498 c 0
 428 528 420 554 410 579 c 0
 400 604 388 616 376 616 c 0
 366 616 361 609 361 597 c 2
EndSplineSet
EndChar

StartChar: afii10076
Encoding: 1082 1082 39
Width: 407
Flags: W
HStem: 0 21G<60 165 259.5 356> 220 39<176 208.557> 375 94<268.943 327.861> 435 20G<61 161.5>
VStem: 49 127<0 220 259 450.858> 233 133<375.739 428.972> 241 130<4.14208 166.146>
LayerCount: 2
Fore
SplineSet
366 441 m 2xec
 366 377 l 2
 366 365 364 356 362 348 c 0
 360 340 357 336 354 336 c 256
 350 336 343 341 333 349 c 0
 323 357 316 364 310 368 c 0
 304 372 297 375 289 375 c 0xec
 278 375 268 367 259 351 c 0
 250 335 245 317 244 297 c 1
 262 285 282 267 301 245 c 0
 320 223 338 195 351 162 c 0
 364 129 371 94 371 58 c 2
 371 17 l 2
 371 12 369 7 367 4 c 0
 365 1 360 0 352 0 c 2
 262 0 l 2
 257 0 252 3 248 8 c 0
 244 13 241 20 241 28 c 0
 241 81 234 131 221 177 c 0
 218 189 214 199 208 207 c 0
 202 215 196 220 188 220 c 2
 176 220 l 1
 176 26 l 2
 176 8 171 0 159 0 c 2
 66 0 l 2
 54 0 48 7 49 21 c 2
 49 433 l 2
 49 447 55 454 67 455 c 2
 158 455 l 2xda
 165 455 170 454 172 451 c 0
 174 448 176 443 176 436 c 2
 176 259 l 1
 193 259 l 2
 200 259 205 263 207 271 c 0
 209 279 213 296 218 322 c 0
 223 348 228 369 233 384 c 0
 254 441 281 469 316 469 c 0
 349 469 366 459 366 441 c 2xec
EndSplineSet
EndChar

StartChar: afii10077
Encoding: 1083 1083 40
Width: 406
Flags: W
HStem: 0 21G<37 158 262 376> 435 20G<86.5 294>
VStem: 115 156<329.25 416.93>
LayerCount: 2
Fore
SplineSet
386 33 m 2
 389 23 389 15 387 9 c 0
 385 3 380 0 372 0 c 2
 267 0 l 2
 257 0 250 5 247 16 c 2
 151 328 l 1
 146 328 l 1
 141 314 136 277 128 216 c 0
 120 155 117 115 117 97 c 0
 117 83 119 72 124 62 c 0
 129 52 135 45 143 40 c 0
 161 28 170 19 170 14 c 0
 170 5 164 0 152 0 c 2
 41 0 l 2
 33 0 29 1 26 3 c 0
 23 5 21 8 21 13 c 0
 21 15 26 28 36 48 c 0
 46 68 53 90 61 113 c 0
 73 155 85 204 97 264 c 0
 109 324 115 362 115 378 c 0
 115 386 113 392 109 400 c 0
 105 408 101 413 96 415 c 1
 87 421 81 426 78 428 c 0
 75 430 73 434 73 439 c 0
 73 449 80 454 93 455 c 2
 287 455 l 2
 301 455 308 450 308 439 c 0
 308 434 301 429 288 422 c 0
 276 417 271 407 271 394 c 0
 271 384 274 369 280 349 c 2
 386 33 l 2
EndSplineSet
EndChar

StartChar: afii10078
Encoding: 1084 1084 41
Width: 576
Flags: W
HStem: 0 21G<66 159 419 517> 435 20G<62 171 411 515>
VStem: 49 122<6.14209 278> 394 133<388.3 450.856> 405 122<4.09594 278>
LayerCount: 2
Fore
SplineSet
176 278 m 1xe8
 171 278 l 1
 171 21 l 2
 171 7 165 0 153 0 c 2
 70 0 l 2
 62 0 56 3 53 6 c 0
 50 9 49 14 49 22 c 2
 49 431 l 2
 49 447 56 455 68 455 c 2
 168 455 l 2
 174 455 179 454 181 451 c 0
 183 448 184 442 185 434 c 2
 194 372 l 1
 202 340 209 310 216 284 c 0
 223 258 230 231 238 202 c 0
 246 173 254 151 262 133 c 0
 270 115 280 107 288 107 c 0
 296 107 306 122 318 152 c 0
 330 182 341 217 353 258 c 0
 365 299 375 336 384 370 c 1
 394 431 l 1
 396 441 398 448 400 451 c 0
 402 454 407 455 415 455 c 2
 509 455 l 2
 521 455 528 447 527 430 c 2xf0
 527 22 l 2
 527 7 522 0 512 0 c 2
 422 0 l 2
 416 0 411 2 409 4 c 0
 407 6 405 11 405 18 c 2
 405 278 l 1
 400 278 l 1
 393 250 385 213 374 165 c 0
 363 117 355 84 348 62 c 0
 341 40 333 22 323 8 c 0
 313 -6 301 -13 288 -13 c 0
 267 -13 250 -1 238 23 c 0
 226 47 216 74 209 105 c 0
 202 136 192 193 176 278 c 1xe8
EndSplineSet
EndChar

StartChar: afii10079
Encoding: 1085 1085 42
Width: 461
Flags: W
HStem: 0 21G<63 163.5 302 393.5> 435 20G<65 162.5 293 396>
VStem: 49 127<4.14355 285 368 449.856> 283 127<8.14208 102 190 450.856>
LayerCount: 2
Fore
SplineSet
283 190 m 1
 283 432 l 2
 283 447 288 454 298 455 c 2
 392 455 l 2
 400 455 405 454 407 451 c 0
 409 448 410 441 410 432 c 2
 410 24 l 2
 410 15 408 8 405 5 c 0
 402 2 397 0 390 0 c 2
 305 0 l 2
 299 0 295 0 292 2 c 0
 289 4 287 5 285 8 c 0
 283 11 283 16 283 21 c 2
 283 102 l 1
 176 285 l 1
 176 23 l 2
 176 14 174 7 172 4 c 0
 170 1 166 0 161 0 c 2
 70 0 l 2
 56 0 49 8 49 26 c 2
 49 431 l 2
 49 440 50 447 53 450 c 0
 56 453 61 455 69 455 c 2
 159 455 l 2
 166 455 170 454 172 451 c 0
 174 448 176 443 176 435 c 2
 176 368 l 1
 283 190 l 1
EndSplineSet
EndChar

StartChar: afii10080
Encoding: 1086 1086 43
Width: 463
Flags: W
HStem: -13 56<193.299 270.109> 420 48<193.668 270.332>
VStem: 39 145<118.683 351.368> 280 145<117.684 351.368>
LayerCount: 2
Fore
SplineSet
232 -13 m 256
 198 -13 167 -2 137 18 c 0
 107 38 84 68 66 106 c 0
 48 144 39 188 39 237 c 0
 39 282 47 323 64 358 c 0
 81 393 104 420 134 439 c 0
 164 458 197 468 232 468 c 256
 267 468 300 458 330 439 c 0
 360 420 383 393 400 358 c 0
 417 323 425 282 425 237 c 0
 425 187 416 143 398 105 c 0
 380 67 358 38 328 18 c 0
 298 -2 266 -13 232 -13 c 256
232 43 m 256
 264 43 280 66 280 112 c 2
 280 357 l 2
 280 379 277 395 269 405 c 0
 261 415 250 420 232 420 c 0
 214 420 203 415 195 405 c 0
 187 395 184 379 184 357 c 2
 184 112 l 2
 184 66 200 43 232 43 c 256
EndSplineSet
EndChar

StartChar: afii10081
Encoding: 1087 1087 44
Width: 458
Flags: W
HStem: 0 21G<65.5 165 298.5 397> 413 42<176 283>
VStem: 49 127<0.0822754 413> 283 127<4.14354 413>
LayerCount: 2
Fore
SplineSet
410 22 m 2
 410 14 409 7 407 4 c 0
 405 1 400 0 394 0 c 2
 302 0 l 2
 295 0 291 2 288 4 c 0
 285 6 283 11 283 19 c 2
 283 394 l 2
 283 407 276 414 264 413 c 2
 195 413 l 2
 183 413 176 406 176 393 c 2
 176 22 l 2
 176 7 171 0 159 0 c 2
 74 0 l 2
 57 0 49 7 49 22 c 2
 49 431 l 2
 49 440 51 447 54 450 c 0
 57 453 62 455 69 455 c 2
 390 455 l 2
 403 455 410 448 410 433 c 2
 410 22 l 2
EndSplineSet
EndChar

StartChar: afii10082
Encoding: 1088 1088 45
Width: 415
Flags: W
HStem: -13 49<193.751 268> 363 105<151 199>
VStem: 44 122<64.42 336.56> 94 67<-259.478 -145.751> 243 130<77.2718 285.456>
LayerCount: 2
Fore
SplineSet
373 184 m 0xe8
 373 156 368 127 358 96 c 0
 348 65 334 39 316 18 c 0
 298 -3 279 -13 257 -13 c 0
 225 -13 201 -3 186 18 c 1
 178 3 173 -12 171 -27 c 0
 169 -42 167 -65 166 -93 c 1xe8
 165 -111 165 -129 164 -145 c 0
 163 -161 163 -179 161 -200 c 1
 157 -248 149 -271 137 -271 c 0
 125 -271 117 -264 111 -251 c 0
 105 -238 99 -216 94 -186 c 0xd8
 92 -174 90 -156 87 -132 c 0
 84 -108 80 -89 78 -75 c 0
 76 -61 73 -45 70 -27 c 0
 61 25 54 67 50 102 c 0
 46 137 44 178 44 226 c 0
 44 262 50 299 63 337 c 0
 76 375 91 406 108 431 c 0
 125 456 139 468 151 468 c 0
 171 468 199 455 236 427 c 0
 273 399 304 363 332 320 c 0
 360 277 373 232 373 184 c 0xe8
243 163 m 0
 243 221 240 266 234 296 c 0
 228 326 223 346 217 354 c 0
 213 360 207 363 199 363 c 1
 187 337 179 314 175 294 c 0
 171 274 169 244 169 204 c 0
 169 176 170 154 172 137 c 0
 174 120 178 100 184 76 c 0
 187 64 191 55 198 47 c 0
 205 39 212 36 220 36 c 0
 225 36 230 38 233 44 c 0
 236 50 239 63 241 82 c 0
 243 101 243 128 243 163 c 0
EndSplineSet
EndChar

StartChar: afii10083
Encoding: 1089 1089 46
Width: 415
Flags: W
HStem: -13 49<197.596 248.06> 425 43<193.709 241.364>
VStem: 39 150<107.977 339.017> 254 123<54.5647 139 332.188 391.062>
LayerCount: 2
Fore
SplineSet
377 118 m 0
 377 103 372 84 362 64 c 0
 352 44 336 27 313 11 c 0
 290 -5 260 -13 224 -13 c 0
 184 -13 150 -1 122 23 c 0
 94 47 72 77 59 113 c 0
 46 149 39 185 39 221 c 0
 39 247 42 274 49 302 c 0
 56 330 67 356 82 382 c 0
 97 408 117 428 142 444 c 0
 167 460 197 468 232 468 c 0
 250 468 266 463 283 455 c 0
 300 447 316 435 329 422 c 0
 342 409 354 394 362 381 c 0
 370 368 374 356 374 348 c 0
 374 341 373 336 371 332 c 0
 369 328 363 326 355 326 c 2
 272 326 l 2
 256 326 248 339 249 365 c 0
 249 380 246 395 240 407 c 0
 234 419 226 425 214 425 c 0
 205 425 197 421 194 411 c 0
 191 401 189 385 189 363 c 2
 189 98 l 2
 189 80 191 65 198 53 c 0
 205 41 213 36 223 36 c 0
 235 36 244 42 248 54 c 0
 252 66 254 81 254 97 c 0
 254 109 257 120 261 128 c 0
 265 136 270 139 276 139 c 2
 356 139 l 2
 370 139 377 132 377 118 c 0
EndSplineSet
EndChar

StartChar: afii10084
Encoding: 1090 1090 47
Width: 395
Flags: W
HStem: 0 21G<111 287> 410 45<96.0667 135 262 300.933>
VStem: 135 127<30.9564 410> 313 48<277.251 399.471>
LayerCount: 2
Fore
SplineSet
262 410 m 1
 262 66 l 2
 262 60 264 55 267 48 c 0
 270 41 274 36 279 34 c 0
 291 26 298 20 298 13 c 0
 298 5 293 0 281 0 c 2
 117 0 l 2
 105 0 100 5 100 13 c 0
 100 18 106 25 118 35 c 1
 130 43 135 53 135 66 c 2
 135 410 l 1
 107 410 90 390 84 352 c 0
 76 297 64 269 49 269 c 0
 45 269 41 274 39 282 c 0
 37 290 35 304 33 321 c 0
 31 338 29 353 27 366 c 0
 24 396 20 416 15 428 c 0
 13 434 13 440 16 446 c 0
 19 452 26 455 38 455 c 2
 359 455 l 2
 367 455 373 454 377 451 c 0
 381 448 383 444 384 439 c 0
 385 434 384 430 382 428 c 1
 377 416 373 396 370 366 c 0
 367 333 364 308 361 292 c 0
 358 276 353 269 348 269 c 0
 333 269 321 297 313 352 c 0
 307 390 290 410 262 410 c 1
EndSplineSet
EndChar

StartChar: afii10037
Encoding: 1059 1059 48
Width: 600
Flags: W
HStem: 629 20G<40 199.5 475 548>
VStem: 500 64<413.299 482.634>
LayerCount: 2
Fore
SplineSet
564 476 m 2
 564 428 559 404 548 404 c 0
 536 404 525 408 517 418 c 0
 509 428 502 440 500 452 c 0
 498 462 494 470 486 477 c 0
 478 484 470 487 462 487 c 0
 457 487 450 476 441 454 c 0
 432 432 424 406 416 375 c 0
 408 344 402 313 398 281 c 0
 395 253 395 220 397 182 c 1
 400 126 404 78 409 37 c 0
 414 -4 419 -40 426 -68 c 0
 433 -96 440 -120 449 -139 c 0
 457 -154 467 -172 479 -193 c 0
 491 -214 501 -230 506 -242 c 0
 511 -254 513 -267 513 -282 c 0
 513 -290 510 -296 503 -301 c 0
 496 -306 491 -308 483 -308 c 2
 429 -308 l 2
 417 -308 408 -305 400 -299 c 0
 392 -293 386 -285 382 -273 c 0
 378 -261 373 -247 371 -229 c 0
 369 -211 365 -187 363 -155 c 2
 355 -41 l 2
 355 -34 353 -29 349 -22 c 0
 345 -15 340 -10 334 -6 c 0
 328 -2 324 0 319 0 c 2
 220 0 l 2
 202 0 192 8 187 24 c 2
 30 581 l 2
 28 587 26 594 24 601 c 0
 22 608 20 614 20 619 c 0
 20 640 27 650 40 649 c 2
 196 649 l 2
 203 649 208 647 213 643 c 0
 218 639 221 634 223 627 c 2
 340 168 l 1
 347 288 l 2
 350 346 358 402 368 457 c 0
 378 512 393 557 413 594 c 0
 433 631 459 649 491 649 c 2
 544 649 l 2
 552 649 559 644 561 636 c 0
 563 628 564 616 564 601 c 2
 564 476 l 2
EndSplineSet
EndChar

StartChar: afii10085
Encoding: 1091 1091 49
Width: 428
Flags: W
HStem: 314 154<313.335 377.763> 435 20G<32 140>
VStem: 21 136<395 454.965> 237 32<117.002 249.328>
LayerCount: 2
Fore
SplineSet
392 390 m 0xb0
 392 370 391 354 389 343 c 0
 387 332 383 325 378 321 c 0
 373 317 365 314 355 314 c 0xb0
 321 314 299 297 289 264 c 0
 276 222 269 160 269 80 c 0
 269 67 270 47 273 23 c 0
 276 -1 281 -27 286 -55 c 0
 291 -83 296 -109 301 -133 c 0
 306 -157 308 -169 309 -171 c 0
 312 -189 294 -199 255 -199 c 0
 247 -199 240 -192 236 -176 c 0
 232 -160 229 -142 229 -124 c 2
 230 -10 l 2
 230 -3 226 0 218 0 c 2
 136 0 l 2
 119 0 109 10 105 32 c 1
 21 428 l 2
 19 436 20 442 22 447 c 0
 24 452 28 455 36 455 c 2
 134 455 l 2x70
 146 455 154 445 157 425 c 2
 207 157 l 2
 212 130 217 117 225 117 c 0
 227 117 231 120 233 128 c 0
 235 136 237 145 237 157 c 0
 237 177 239 204 241 236 c 0
 243 268 246 297 250 325 c 1
 257 363 271 397 293 425 c 0
 315 453 340 468 366 468 c 0
 378 468 386 463 388 453 c 0
 390 443 392 422 392 390 c 0xb0
EndSplineSet
EndChar

StartChar: afii10038
Encoding: 1060 1060 50
Width: 801
Flags: W
HStem: -13 48<273.509 322 488 539.25> 523 33<273.908 315 487 539.628> 629 20G<280.5 523>
VStem: 41 185<160.391 379.331> 322 165<-205.613 -13 35 523> 585 175<164.619 387.954>
LayerCount: 2
Fore
SplineSet
760 281 m 0
 760 239 752 201 738 164 c 0
 724 127 704 97 678 70 c 0
 652 43 622 22 589 8 c 0
 556 -6 523 -13 488 -13 c 1
 488 -177 l 2
 488 -185 491 -193 498 -200 c 0
 505 -207 513 -212 524 -217 c 0
 530 -219 536 -222 541 -225 c 0
 546 -228 550 -232 553 -236 c 0
 556 -240 558 -244 558 -248 c 0
 558 -260 550 -267 534 -267 c 2
 267 -267 l 2
 254 -267 247 -261 247 -249 c 0
 247 -237 259 -226 282 -215 c 0
 294 -210 304 -204 312 -197 c 0
 320 -190 323 -183 323 -175 c 2
 323 -13 l 1
 285 -13 249 -6 215 8 c 0
 181 22 151 43 124 69 c 0
 97 95 78 125 63 159 c 0
 48 193 41 231 41 271 c 0
 41 321 53 368 79 412 c 0
 105 456 140 491 182 517 c 0
 224 543 268 556 315 556 c 1
 315 568 314 577 312 584 c 0
 310 591 304 596 296 601 c 0
 274 613 262 624 262 632 c 0
 262 637 264 641 268 644 c 0
 272 647 277 649 284 649 c 2
 516 649 l 2
 530 649 537 644 536 633 c 0
 536 629 535 625 532 622 c 0
 529 619 524 615 518 612 c 0
 512 609 507 605 505 603 c 0
 497 597 492 591 489 584 c 0
 486 577 485 569 485 560 c 1
 514 560 545 553 577 541 c 0
 609 529 639 510 667 486 c 0
 695 462 717 433 734 398 c 0
 751 363 760 323 760 281 c 0
585 278 m 0
 585 343 581 394 574 431 c 0
 567 468 557 491 543 504 c 0
 529 517 510 524 487 524 c 1
 487 35 l 1
 509 35 526 43 541 58 c 0
 556 73 566 98 574 134 c 0
 582 170 585 218 585 278 c 0
322 523 m 1
 300 523 282 516 268 502 c 0
 254 488 244 463 237 427 c 0
 230 391 226 340 226 275 c 0
 226 189 234 128 251 91 c 0
 268 54 290 35 322 35 c 1
 322 523 l 1
EndSplineSet
EndChar

StartChar: afii10039
Encoding: 1061 1061 51
Width: 558
Flags: W
HStem: 0 21G<45.5 142.5 373 518.5> 539 127<402.528 469.5> 629 20G<42.5 193>
VStem: 20 157<8.23803 80.3833>
LayerCount: 2
Fore
SplineSet
540 25 m 2xd0
 542 23 542 20 542 18 c 0
 542 13 539 8 533 5 c 0
 527 2 522 0 515 0 c 2
 381 0 l 2
 365 0 352 8 342 26 c 2
 218 261 l 1
 207 243 199 226 193 213 c 0
 187 200 183 184 178 166 c 0
 173 147 171 124 173 96 c 0
 175 62 176 42 177 35 c 0
 177 23 172 13 164 8 c 0
 156 3 147 0 138 0 c 2
 58 0 l 2
 33 0 20 8 20 24 c 0
 20 38 28 58 44 84 c 2
 187 316 l 1
 28 618 l 2
 26 620 26 624 26 629 c 0
 26 634 28 639 31 643 c 0
 34 647 39 649 46 649 c 2
 184 649 l 2xb0
 202 649 216 641 224 626 c 2
 296 486 l 1
 312 521 328 551 343 576 c 0
 358 601 376 622 397 640 c 0
 418 658 441 666 466 666 c 0
 473 666 481 663 490 656 c 0
 499 649 504 643 504 635 c 2
 504 458 l 2
 504 448 502 441 500 437 c 0
 498 433 493 431 487 431 c 0
 479 431 472 438 464 450 c 0
 456 462 451 476 449 491 c 1
 447 504 444 516 437 525 c 0
 430 534 422 539 411 539 c 0
 383 539 354 506 322 440 c 1
 540 25 l 2xd0
EndSplineSet
EndChar

StartChar: afii10040
Encoding: 1062 1062 52
Width: 565
Flags: W
HStem: 0 41<229.144 325.81> 629 20G<73 214.5 350 480>
VStem: 63 161<58.3289 649> 338 162<45.7267 648.956>
LayerCount: 2
Fore
SplineSet
500 631 m 2
 500 32 l 2
 500 5 488 -56 466 -154 c 0
 459 -183 450 -210 438 -234 c 0
 426 -258 414 -271 399 -271 c 0
 387 -271 377 -259 369 -237 c 0
 361 -215 356 -188 352 -157 c 2
 334 -27 l 2
 332 -16 330 -9 326 -6 c 0
 322 -3 315 0 307 0 c 2
 85 0 l 2
 70 0 63 10 63 29 c 2
 63 626 l 2
 63 641 68 649 78 649 c 2
 210 649 l 2
 219 649 224 642 224 627 c 2
 224 84 l 2
 224 73 226 65 229 58 c 0
 232 51 239 47 247 45 c 0
 255 43 268 41 283 41 c 0
 297 41 307 43 314 45 c 0
 321 47 326 51 328 56 c 0
 330 61 334 70 338 84 c 1
 338 625 l 2
 338 641 344 649 356 649 c 2
 480 649 l 2
 493 650 500 643 500 631 c 2
EndSplineSet
EndChar

StartChar: afii10041
Encoding: 1063 1063 53
Width: 650
Flags: W
HStem: 0 21G<188.5 445> 629 20G<38 253 396.5 618>
VStem: 56 153<433.084 596.573> 236 161<48.1917 299> 441 158<440.693 590.506>
LayerCount: 2
Fore
SplineSet
635 634 m 0
 635 626 628 616 615 605 c 0
 603 597 598 586 599 574 c 0
 599 510 588 458 566 416 c 0
 544 374 518 345 487 327 c 0
 456 309 425 299 397 299 c 1
 397 86 l 2
 397 74 400 63 407 55 c 0
 414 47 422 40 433 36 c 0
 449 30 457 22 457 10 c 0
 457 3 451 0 439 0 c 2
 196 0 l 2
 181 0 173 5 173 13 c 0
 173 17 175 21 179 25 c 0
 183 29 193 34 205 42 c 0
 226 54 236 70 236 90 c 2
 236 299 l 1
 218 299 199 304 179 312 c 0
 159 320 140 335 121 357 c 0
 102 379 86 407 74 443 c 0
 62 479 56 524 56 576 c 0
 56 590 49 600 35 608 c 0
 21 616 14 624 13 632 c 0
 13 644 21 650 38 649 c 2
 244 649 l 2
 262 649 270 645 271 637 c 0
 271 635 269 631 266 627 c 0
 263 623 258 618 253 615 c 0
 241 607 232 599 228 593 c 0
 220 581 214 569 212 556 c 0
 210 543 209 526 209 505 c 0
 209 474 214 446 223 418 c 0
 232 390 247 369 269 357 c 1
 277 349 292 344 312 345 c 1
 333 345 353 350 371 359 c 0
 394 371 411 390 423 417 c 0
 435 444 441 474 441 510 c 0
 441 530 438 547 433 564 c 0
 428 581 420 592 411 597 c 0
 389 610 378 622 378 630 c 0
 378 638 379 643 382 645 c 0
 385 647 392 649 401 649 c 2
 609 649 l 2
 627 649 635 644 635 634 c 0
EndSplineSet
EndChar

StartChar: afii10042
Encoding: 1064 1064 54
Width: 815
Flags: W
HStem: 0 41<237.377 317.574 495.164 572.669> 629 20G<78 214 341.5 483.5 599 742.5>
VStem: 63 162<50.2842 642.858> 332 161<48.1912 649> 591 161<48.2359 649>
LayerCount: 2
Fore
SplineSet
739 0 m 2
 83 0 l 2
 77 0 71 3 68 7 c 0
 65 11 63 16 63 22 c 2
 63 630 l 2
 63 635 65 640 68 643 c 0
 71 646 76 649 80 649 c 2
 208 649 l 2
 220 649 225 644 225 632 c 2
 225 79 l 2
 225 66 229 56 237 50 c 0
 245 44 256 41 273 41 c 0
 295 41 309 44 318 48 c 0
 327 52 332 61 332 74 c 2
 332 633 l 2
 332 644 337 649 346 649 c 2
 479 649 l 2
 488 649 493 644 493 636 c 2
 493 74 l 2
 493 52 508 41 539 41 c 0
 555 41 566 43 573 48 c 0
 580 53 586 60 591 72 c 1
 591 630 l 2
 591 642 595 649 603 649 c 2
 738 649 l 2
 747 649 752 644 752 633 c 2
 752 14 l 2
 752 9 750 5 748 3 c 0
 746 1 743 0 739 0 c 2
EndSplineSet
EndChar

StartChar: afii10043
Encoding: 1065 1065 55
Width: 816
Flags: W
HStem: 0 41<237.377 317.574 495.164 572.669> 629 20G<78 214 341.5 483.5 599 742.5>
VStem: 63 162<50.2842 642.858> 332 161<-307 0 48.1912 649> 591 161<48.2359 649>
LayerCount: 2
Fore
SplineSet
752 14 m 2
 752 9 751 5 749 3 c 0
 747 1 744 0 739 0 c 2
 493 0 l 1
 493 -287 l 2
 493 -300 490 -307 482 -307 c 2
 347 -307 l 2
 344 -307 340 -305 337 -302 c 0
 334 -299 332 -295 332 -292 c 2
 332 0 l 1
 83 0 l 2
 77 0 71 3 68 7 c 0
 65 11 63 16 63 22 c 2
 63 630 l 2
 63 635 65 640 68 643 c 0
 71 646 76 649 80 649 c 2
 208 649 l 2
 220 649 225 644 225 632 c 2
 225 79 l 2
 225 66 229 56 237 50 c 0
 245 44 256 41 273 41 c 0
 295 41 309 44 318 48 c 0
 327 52 332 61 332 74 c 2
 332 633 l 2
 332 644 337 649 346 649 c 2
 479 649 l 2
 488 649 493 644 493 636 c 2
 493 74 l 2
 493 52 508 41 539 41 c 0
 555 41 566 43 573 48 c 0
 580 53 586 60 591 72 c 1
 591 630 l 2
 591 642 595 649 603 649 c 2
 738 649 l 2
 747 649 752 644 752 633 c 2
 752 14 l 2
EndSplineSet
EndChar

StartChar: afii10044
Encoding: 1066 1066 56
Width: 670
Flags: W
HStem: 0 36<386.904 464.139> 324 54<384 438.918> 616 33<181.68 222.908>
VStem: 81 24<388.094 448.305> 223 161<60.8818 323.995 375.167 591.404> 476 161<31 205.368>
LayerCount: 2
Fore
SplineSet
637 37 m 0
 637 25 634 16 629 11 c 0
 624 6 617 3 607 2 c 0
 597 1 580 0 557 0 c 2
 177 0 l 2
 172 0 167 3 162 6 c 0
 157 9 155 13 155 17 c 0
 155 29 167 42 191 54 c 1
 212 66 222 79 223 97 c 2
 223 597 l 2
 223 609 218 616 208 616 c 0
 195 616 181 603 168 579 c 0
 155 555 142 526 130 491 c 0
 118 456 110 424 105 395 c 0
 105 393 103 391 101 389 c 0
 99 387 95 386 93 386 c 256
 91 386 88 386 86 388 c 0
 84 390 82 393 81 395 c 1
 79 426 75 451 70 471 c 0
 65 491 58 512 50 537 c 0
 46 549 39 564 30 584 c 0
 21 604 16 617 16 622 c 0
 16 634 18 641 21 644 c 0
 24 647 30 649 42 649 c 2
 416 649 l 2
 436 649 446 646 445 639 c 0
 445 630 435 617 414 600 c 0
 406 593 398 582 392 568 c 0
 386 554 384 542 384 530 c 2
 384 378 l 1
 412 375 436 370 458 362 c 0
 480 354 501 344 521 331 c 0
 541 318 559 301 577 281 c 0
 586 270 596 254 605 233 c 0
 614 212 622 185 628 151 c 0
 634 117 637 79 637 37 c 0
476 123 m 0
 476 166 473 203 466 235 c 0
 462 258 455 279 443 297 c 0
 431 315 418 324 402 324 c 0
 390 324 384 317 384 302 c 2
 384 63 l 2
 384 55 390 48 401 43 c 0
 412 38 422 36 430 36 c 0
 448 36 460 43 467 59 c 0
 474 75 476 96 476 123 c 0
EndSplineSet
EndChar

StartChar: afii10045
Encoding: 1067 1067 57
Width: 775
Flags: W
HStem: 0 38<228.125 312.717> 629 20G<82 204 569 692.5>
VStem: 63 162<42.4495 335.858 376.514 642.81> 321 159<44.4697 196.554> 551 161<5.14501 644.903>
LayerCount: 2
Fore
SplineSet
712 28 m 2
 712 10 705 0 692 0 c 2
 580 0 l 2
 568 0 559 2 556 5 c 0
 553 8 551 17 551 29 c 2
 551 625 l 2
 551 642 557 650 569 649 c 2
 688 649 l 2
 697 649 704 647 707 645 c 0
 710 643 712 636 712 627 c 2
 712 28 l 2
480 49 m 0
 480 17 470 0 451 0 c 2
 84 0 l 2
 70 0 63 8 63 23 c 2
 63 626 l 2
 63 641 73 649 91 649 c 2
 199 649 l 2
 209 649 216 647 219 643 c 0
 222 639 225 632 225 621 c 2
 225 382 l 1
 261 374 296 361 330 344 c 0
 364 327 393 306 417 279 c 0
 435 260 450 228 462 184 c 0
 474 140 480 95 480 49 c 0
321 91 m 0
 321 109 319 139 316 178 c 0
 313 217 308 244 302 260 c 0
 290 293 278 316 269 326 c 0
 260 336 251 341 240 341 c 0
 235 341 231 339 229 336 c 0
 227 333 225 328 225 323 c 2
 225 68 l 2
 225 60 229 53 238 47 c 0
 247 41 259 38 272 38 c 0
 304 38 321 56 321 91 c 0
EndSplineSet
EndChar

StartChar: afii10046
Encoding: 1068 1068 58
Width: 521
Flags: W
HStem: 0 38<228.125 312.717> 629 20G<82 204>
VStem: 63 162<42.4495 335.858 376.514 642.81> 321 159<44.4697 196.554>
LayerCount: 2
Fore
SplineSet
480 49 m 0
 480 17 470 0 451 0 c 2
 84 0 l 2
 70 0 63 8 63 23 c 2
 63 626 l 2
 63 641 73 649 91 649 c 2
 199 649 l 2
 209 649 216 647 219 643 c 0
 222 639 225 632 225 621 c 2
 225 382 l 1
 261 374 296 361 330 344 c 0
 364 327 393 306 417 279 c 0
 435 260 450 228 462 184 c 0
 474 140 480 95 480 49 c 0
321 91 m 0
 321 109 319 139 316 178 c 0
 313 217 308 244 302 260 c 0
 290 293 278 316 269 326 c 0
 260 336 251 341 240 341 c 0
 235 341 231 339 229 336 c 0
 227 333 225 328 225 323 c 2
 225 68 l 2
 225 60 229 53 238 47 c 0
 247 41 259 38 272 38 c 0
 304 38 321 56 321 91 c 0
EndSplineSet
EndChar

StartChar: afii10086
Encoding: 1092 1092 59
Width: 638
Flags: W
HStem: 0 48<215.469 254 381 420.363> 408 47<215.637 254 381 420.956>
VStem: 39 132<136.031 325.51> 254 127<-122.978 0 48 408 455 580.408> 465 132<133.746 325.218>
LayerCount: 2
Fore
SplineSet
223 -166 m 2
 211 -166 205 -162 205 -154 c 0
 205 -146 212 -137 224 -129 c 0
 234 -122 242 -116 247 -109 c 0
 252 -102 254 -95 254 -85 c 2
 254 0 l 1
 241 0 222 5 199 14 c 0
 176 23 152 38 127 57 c 0
 102 76 81 100 64 130 c 0
 47 160 39 193 39 231 c 0
 39 268 47 300 62 328 c 0
 77 356 95 380 118 398 c 0
 141 416 165 431 190 441 c 0
 215 451 236 455 254 455 c 1
 254 542 l 2
 254 550 252 559 247 567 c 0
 242 575 234 581 225 583 c 0
 212 587 205 596 206 609 c 0
 206 617 209 621 214 621 c 2
 411 621 l 2
 419 621 424 618 424 611 c 0
 424 603 417 594 404 585 c 0
 389 575 381 560 381 542 c 2
 381 455 l 1
 399 455 422 451 447 441 c 0
 472 431 496 416 518 398 c 0
 540 380 559 356 574 328 c 0
 589 300 597 268 597 231 c 0
 597 193 589 158 572 128 c 0
 555 98 533 74 509 56 c 0
 485 38 461 23 438 14 c 0
 415 5 395 0 381 0 c 1
 381 -79 l 2
 381 -91 383 -101 388 -111 c 0
 393 -121 399 -127 407 -132 c 0
 419 -140 426 -148 426 -158 c 0
 426 -162 424 -164 422 -165 c 0
 420 -166 416 -166 411 -166 c 2
 223 -166 l 2
254 48 m 1
 254 408 l 1
 238 408 223 398 211 380 c 0
 199 362 189 337 182 309 c 0
 175 281 171 253 171 225 c 0
 171 188 175 157 183 130 c 0
 191 103 203 83 216 69 c 0
 229 55 242 48 254 48 c 1
381 48 m 1
 401 48 420 63 438 95 c 0
 456 127 465 170 465 225 c 0
 465 253 461 283 454 311 c 0
 447 339 437 363 425 381 c 0
 413 399 398 409 381 409 c 1
 381 48 l 1
EndSplineSet
EndChar

StartChar: afii10087
Encoding: 1093 1093 60
Width: 425
Flags: W
HStem: 0 21G<292 392> 354 114<297.073 370.5> 435 20G<37 140>
VStem: 54 95<-81.625 18.0938>
LayerCount: 2
Fore
SplineSet
411 17 m 0xd0
 412 5 402 0 382 0 c 2
 296 0 l 2
 288 0 282 2 276 8 c 0
 270 14 263 24 255 37 c 2
 178 170 l 1
 159 135 149 89 149 31 c 0
 149 -7 146 -39 139 -61 c 0
 132 -83 120 -94 102 -94 c 0
 87 -94 75 -90 67 -82 c 0
 59 -74 54 -66 54 -55 c 0
 54 -47 59 -26 71 6 c 0
 83 38 96 72 111 108 c 0
 126 144 141 177 156 205 c 1
 35 396 l 2
 23 414 17 427 17 434 c 0
 17 440 19 445 24 449 c 0
 29 453 34 455 40 455 c 2
 131 455 l 2xb0
 149 455 160 449 167 437 c 2
 224 338 l 1
 240 376 259 406 281 431 c 0
 303 456 330 468 362 468 c 0
 379 468 387 443 387 393 c 0
 387 365 383 335 375 306 c 0
 373 301 370 298 365 298 c 256
 360 298 354 301 348 308 c 0
 345 312 341 316 338 322 c 0
 335 328 332 333 330 337 c 1
 328 342 324 346 319 349 c 0
 314 352 307 354 299 354 c 0
 290 354 279 349 266 339 c 0
 253 329 246 318 246 303 c 1
 388 71 l 2
 402 49 409 31 411 17 c 0xd0
EndSplineSet
EndChar

StartChar: afii10088
Encoding: 1094 1094 61
Width: 457
Flags: W
HStem: 0 49<177.586 271.764> 435 20G<64.5 159 297.5 396.5>
VStem: 49 127<55.4325 448.856> 283 127<56.3102 455>
LayerCount: 2
Fore
SplineSet
410 427 m 2
 410 67 l 2
 410 35 409 8 407 -11 c 0
 405 -30 400 -49 395 -67 c 1
 391 -81 386 -100 378 -124 c 0
 370 -148 365 -166 362 -174 c 0
 359 -182 355 -189 352 -193 c 0
 349 -197 345 -199 341 -199 c 0
 333 -199 327 -194 323 -184 c 0
 319 -174 315 -161 311 -143 c 1
 283 -22 l 2
 281 -14 277 -8 272 -5 c 0
 267 -2 260 0 249 0 c 2
 70 0 l 2
 56 0 49 8 49 24 c 2
 49 427 l 2
 49 445 57 455 72 455 c 2
 155 455 l 2
 163 455 168 452 171 449 c 0
 174 446 176 439 176 430 c 2
 176 79 l 2
 176 69 182 62 194 57 c 0
 206 52 217 49 229 49 c 0
 239 49 250 52 263 57 c 0
 276 62 283 68 283 76 c 2
 283 428 l 2
 283 446 290 455 305 455 c 2
 393 455 l 2
 400 455 405 453 407 449 c 0
 409 445 410 438 410 427 c 2
EndSplineSet
EndChar

StartChar: afii10089
Encoding: 1095 1095 62
Width: 447
Flags: W
HStem: 0 36<109.149 155.503 291.271 336.397> 426 29<164.912 187.634 259.362 281.141>
VStem: 160 127<37.1534 258.369>
LayerCount: 2
Fore
SplineSet
129 0 m 2
 114 0 106 3 106 10 c 0
 106 14 108 18 114 23 c 0
 120 28 128 33 136 36 c 0
 143 38 148 43 153 50 c 0
 158 57 160 63 160 70 c 2
 160 247 l 1
 142 255 123 268 104 283 c 0
 85 298 71 316 60 335 c 0
 55 345 50 356 47 368 c 0
 44 380 41 392 39 404 c 1
 38 415 35 422 30 426 c 1
 22 431 17 437 17 442 c 0
 17 450 22 455 30 455 c 2
 173 455 l 2
 183 455 188 452 188 444 c 0
 188 436 183 431 174 426 c 0
 164 421 159 396 160 351 c 0
 160 329 167 310 180 293 c 0
 193 276 208 268 224 268 c 0
 241 268 256 276 268 293 c 0
 280 310 287 329 287 351 c 0
 287 396 282 421 272 426 c 0
 264 431 259 436 259 444 c 0
 259 451 264 454 273 455 c 2
 417 455 l 2
 425 455 430 450 429 442 c 0
 429 437 425 431 417 426 c 1
 412 422 410 415 408 404 c 0
 407 396 405 385 401 372 c 0
 397 359 392 346 387 335 c 0
 376 315 362 298 342 282 c 0
 322 266 304 255 287 247 c 1
 287 70 l 2
 287 63 289 57 293 51 c 0
 297 45 303 40 311 36 c 1
 319 33 327 28 332 23 c 0
 337 18 340 14 340 10 c 0
 340 3 332 0 317 0 c 2
 129 0 l 2
EndSplineSet
EndChar

StartChar: afii10090
Encoding: 1096 1096 63
Width: 683
Flags: W
HStem: 0 33<176.033 278.904 410.725 507.385> 435 20G<67 162.5 299 396.5 525 621>
VStem: 49 127<33 447.764> 283 127<38.1421 454.947> 508 127<34 454.621>
LayerCount: 2
Fore
SplineSet
616 0 m 2
 74 0 l 2
 57 0 49 10 49 30 c 2
 49 426 l 2
 49 436 51 443 54 448 c 0
 57 453 63 455 71 455 c 2
 156 455 l 2
 169 455 176 446 176 428 c 2
 176 51 l 2
 176 39 181 33 192 33 c 2
 266 33 l 2
 272 33 277 35 279 38 c 0
 281 41 283 46 283 51 c 2
 283 432 l 2
 283 447 291 455 307 455 c 2
 390 455 l 2
 403 455 410 447 410 429 c 2
 410 57 l 2
 410 42 417 34 429 34 c 2
 488 34 l 2
 501 34 508 41 508 56 c 2
 508 432 l 2
 508 447 516 454 534 455 c 2
 614 455 l 2
 628 455 635 447 635 429 c 2
 635 21 l 2
 635 7 628 0 616 0 c 2
EndSplineSet
EndChar

StartChar: afii10091
Encoding: 1097 1097 64
Width: 685
Flags: W
HStem: 0 33<176.033 278.904 410.725 507.385> 435 20G<67 162.5 299 396.5 525 621>
VStem: 49 127<33 447.764> 283 127<-267 -2.10001e-07 38.1421 454.947> 508 127<34 454.621>
LayerCount: 2
Fore
SplineSet
635 21 m 2
 635 7 628 0 616 0 c 2
 429 0 l 2
 424 0 420 -3 416 -7 c 0
 412 -11 410 -16 410 -23 c 2
 410 -267 l 1
 283 -267 l 1
 283 -22 l 2
 283 -7 278 0 269 0 c 2
 74 0 l 2
 57 0 49 10 49 30 c 2
 49 426 l 2
 49 436 51 443 54 448 c 0
 57 453 63 455 71 455 c 2
 156 455 l 2
 169 455 176 446 176 428 c 2
 176 51 l 2
 176 39 181 33 192 33 c 2
 266 33 l 2
 272 33 277 35 279 38 c 0
 281 41 283 46 283 51 c 2
 283 432 l 2
 283 447 291 455 307 455 c 2
 390 455 l 2
 403 455 410 447 410 429 c 2
 410 57 l 2
 410 42 417 34 429 34 c 2
 488 34 l 2
 501 34 508 41 508 56 c 2
 508 432 l 2
 508 447 516 454 534 455 c 2
 614 455 l 2
 628 455 635 447 635 429 c 2
 635 21 l 2
EndSplineSet
EndChar

StartChar: afii10092
Encoding: 1098 1098 65
Width: 505
Flags: W
HStem: 0 36<286.339 338.763> 199 35<287.095 325.885> 414 41<114.379 154>
VStem: 154 127<40.2492 193.859 237.094 410.943> 347 130<40.6975 148.973>
LayerCount: 2
Fore
SplineSet
477 47 m 0
 477 35 474 24 467 14 c 0
 460 4 452 0 444 0 c 2
 121 0 l 2
 107 0 100 5 100 14 c 0
 100 22 110 30 128 38 c 0
 146 46 154 61 154 83 c 2
 154 414 l 1
 136 414 122 408 114 398 c 0
 106 388 100 373 97 352 c 0
 89 297 77 269 62 269 c 0
 58 269 54 274 52 282 c 0
 50 290 47 304 45 321 c 0
 43 338 42 353 40 366 c 0
 37 396 33 416 28 428 c 0
 26 434 26 440 29 446 c 0
 32 452 39 455 51 455 c 2
 318 455 l 2
 330 455 336 450 336 441 c 0
 336 433 324 423 299 409 c 0
 291 405 286 400 284 394 c 0
 282 388 281 381 281 372 c 2
 281 257 l 2
 281 252 281 247 282 244 c 0
 283 241 285 239 287 237 c 0
 289 235 293 235 297 234 c 1
 339 232 377 217 412 192 c 0
 434 177 452 159 462 137 c 0
 472 115 477 85 477 47 c 0
347 70 m 0
 347 110 343 141 335 164 c 0
 327 187 315 199 299 199 c 0
 292 199 287 197 285 194 c 0
 283 191 281 187 281 183 c 2
 281 89 l 2
 281 54 291 36 311 36 c 0
 325 36 334 38 339 44 c 0
 344 50 347 58 347 70 c 0
EndSplineSet
EndChar

StartChar: afii10093
Encoding: 1099 1099 66
Width: 587
Flags: W
HStem: 0 33<176 233.432> 215 36<178.095 212.415> 435 20G<62.5 162.5 428.5 529.5>
VStem: 49 127<33 207.81 251 455> 252 126<41.183 155.691> 414 127<5.14354 449.858>
LayerCount: 2
Fore
SplineSet
378 62 m 0
 378 42 374 27 366 16 c 0
 358 5 347 0 335 0 c 2
 69 0 l 2
 56 0 49 7 49 22 c 2
 49 435 l 2
 49 448 56 455 69 455 c 2
 156 455 l 2
 169 455 176 448 176 435 c 2
 176 251 l 1
 204 251 232 247 256 239 c 0
 280 231 302 219 320 202 c 0
 338 185 353 165 363 142 c 0
 373 119 378 91 378 62 c 0
252 80 m 0
 252 96 249 115 242 136 c 0
 235 157 227 175 217 191 c 0
 207 207 199 215 191 215 c 256
 184 215 180 212 178 208 c 0
 176 204 176 197 176 189 c 2
 176 33 l 1
 203 33 222 35 234 42 c 0
 246 49 252 62 252 80 c 0
541 20 m 2
 541 12 540 7 537 4 c 0
 534 1 529 0 521 0 c 2
 432 0 l 2
 425 0 420 2 418 5 c 0
 416 8 414 15 414 23 c 2
 414 437 l 2
 414 442 415 447 418 450 c 0
 421 453 426 455 431 455 c 2
 524 455 l 2
 535 455 540 448 541 433 c 2
 541 20 l 2
EndSplineSet
EndChar

StartChar: afii10094
Encoding: 1100 1100 67
Width: 410
Flags: W
HStem: 0 33<176 233.432> 215 36<178.095 212.415> 435 20G<62.5 162.5>
VStem: 49 127<33 207.81 251 455> 252 126<41.183 155.691>
LayerCount: 2
Fore
SplineSet
378 62 m 0
 378 42 374 27 366 16 c 0
 358 5 347 0 335 0 c 2
 69 0 l 2
 56 0 49 7 49 22 c 2
 49 435 l 2
 49 448 56 455 69 455 c 2
 156 455 l 2
 169 455 176 448 176 435 c 2
 176 251 l 1
 204 251 232 247 256 239 c 0
 280 231 302 219 320 202 c 0
 338 185 353 165 363 142 c 0
 373 119 378 91 378 62 c 0
252 80 m 0
 252 96 249 115 242 136 c 0
 235 157 227 175 217 191 c 0
 207 207 199 215 191 215 c 256
 184 215 180 212 178 208 c 0
 176 204 176 197 176 189 c 2
 176 33 l 1
 203 33 222 35 234 42 c 0
 246 49 252 62 252 80 c 0
EndSplineSet
EndChar

StartChar: afii10048
Encoding: 1070 1070 68
Width: 836
Flags: W
HStem: -8 47<513.178 585.003> 0 21G<72.5 214> 334 48<225 305> 621 42<514.577 583.987> 629 20G<78.5 214>
VStem: 63 162<0 334 382 644.904> 305 179<194.224 334 382 473.841> 614 179<188.989 473.917>
LayerCount: 2
Fore
SplineSet
305 334 m 1xb7
 225 334 l 1
 225 21 l 2
 225 7 220 0 208 0 c 2
 77 0 l 2
 68 0 63 7 63 21 c 2
 63 630 l 2
 63 638 65 643 68 645 c 0
 71 647 75 649 82 649 c 2
 208 649 l 2
 220 649 225 642 225 630 c 2
 225 382 l 1
 308 382 l 1
 313 439 328 489 352 532 c 0
 376 575 406 607 441 629 c 0x6f
 476 651 512 663 549 663 c 0
 579 663 608 656 638 641 c 0
 668 626 695 604 718 576 c 0
 741 548 759 513 772 472 c 0
 785 431 793 385 793 333 c 0
 793 281 786 234 772 191 c 0
 758 148 740 111 717 82 c 0
 694 53 667 32 638 16 c 0
 609 0 579 -8 549 -8 c 256
 519 -8 490 0 461 16 c 0
 432 32 405 53 382 83 c 0
 359 113 340 150 326 192 c 0
 312 234 305 282 305 334 c 1xb7
549 39 m 256xb7
 592 39 614 102 614 228 c 2
 614 445 l 2
 614 495 609 538 598 571 c 0
 587 604 571 621 549 621 c 256
 527 621 512 604 501 571 c 0
 490 538 484 496 484 445 c 2
 484 228 l 2
 484 102 506 39 549 39 c 256xb7
EndSplineSet
EndChar

StartChar: afii10096
Encoding: 1102 1102 69
Width: 647
Flags: W
HStem: -13 57<377.589 453.994> 0 21G<66 160> 214 36<176 223> 420 48<377.728 453.425> 435 20G<66.5 161>
VStem: 49 127<0.182629 214 250 447.765> 224 144<115.947 214 250 352.96> 463 145<115.016 351.379>
LayerCount: 2
Fore
SplineSet
224 214 m 1xb7
 176 214 l 1
 176 29 l 2
 176 10 168 0 152 0 c 2
 75 0 l 2
 57 0 49 8 49 25 c 2
 49 431 l 2
 49 437 51 443 54 448 c 0
 57 453 63 455 70 455 c 2
 157 455 l 2x6f
 165 455 170 453 172 448 c 0
 174 443 176 435 176 425 c 2
 176 250 l 1
 223 250 l 1
 225 292 233 331 251 364 c 0
 269 397 292 424 320 442 c 0
 348 460 381 468 416 468 c 0
 452 468 485 458 514 439 c 0
 543 420 566 393 583 358 c 0
 600 323 608 283 608 238 c 0
 608 188 600 144 582 106 c 0
 564 68 540 38 511 18 c 0
 482 -2 450 -13 416 -13 c 0
 384 -13 354 -4 326 14 c 0
 298 32 274 59 256 94 c 0
 238 129 226 169 224 214 c 1xb7
416 44 m 256xb7
 448 44 464 67 463 112 c 2
 463 357 l 2
 463 379 459 395 452 405 c 0
 445 415 434 420 416 420 c 0
 398 420 387 415 379 405 c 0
 371 395 368 379 368 357 c 2
 368 112 l 2
 368 67 384 44 416 44 c 256xb7
EndSplineSet
EndChar

StartChar: afii10054
Encoding: 1029 1029 70
Width: 525
Flags: W
HStem: -13 41<189.274 285.156> 322 39<236.507 280.828> 620 46<220.731 308.538>
VStem: 33 131<67.2546 146.328> 38 163<399.421 557.629> 318 174<98.1297 272.484> 325 130<493.26 585.611>
LayerCount: 2
Fore
SplineSet
492 185 m 0xec
 492 155 484 124 468 94 c 0
 452 64 426 39 388 18 c 0
 350 -3 298 -13 234 -13 c 0
 202 -13 171 -6 139 6 c 0
 107 18 82 36 62 58 c 0
 42 80 33 104 33 131 c 0
 33 185 63 212 124 212 c 2
 212 212 l 2
 226 212 233 207 233 196 c 0
 233 191 226 184 212 172 c 0
 198 160 187 149 178 139 c 0
 169 129 164 116 164 101 c 0
 164 86 171 70 185 53 c 0
 199 36 219 28 244 28 c 0
 259 28 271 34 283 46 c 0
 295 58 303 75 309 97 c 0
 315 119 318 145 318 173 c 0xf4
 318 228 310 266 294 288 c 0
 278 310 256 322 225 322 c 0
 195 322 166 326 138 334 c 0
 110 342 86 356 67 378 c 0
 48 400 38 429 38 467 c 0
 38 507 48 542 68 572 c 0
 88 602 114 626 146 642 c 0
 178 658 212 666 248 666 c 0
 310 666 360 651 398 623 c 0
 436 595 455 556 455 505 c 0xea
 455 483 445 469 424 463 c 0
 407 458 378 455 336 456 c 0
 306 456 291 461 291 472 c 0
 291 474 295 480 302 491 c 0
 309 502 314 512 318 524 c 0xe4
 322 536 325 548 325 563 c 0xe2
 325 581 318 596 305 606 c 0
 292 616 276 620 258 620 c 0
 242 620 229 612 218 595 c 0
 207 578 201 553 201 521 c 0
 201 493 204 466 208 442 c 0
 212 418 221 398 234 383 c 0
 247 368 266 361 289 361 c 0
 314 361 339 358 363 352 c 0
 387 346 409 336 428 322 c 0
 447 308 462 289 474 266 c 0
 486 243 492 216 492 185 c 0xec
EndSplineSet
EndChar

StartChar: afii10102
Encoding: 1109 1109 71
Width: 397
Flags: W
HStem: -13 29<146.38 213.842> 17 129<56.3137 124.712> 225 27<179.359 213.29> 436 32<168.482 231.373>
VStem: 36 93<36.6357 107.629> 39 116<268.36 401.761> 238 123<57.4755 201.373> 243 92<335.422 420.813>
LayerCount: 2
Fore
SplineSet
361 127 m 0xf6
 361 92 346 60 318 31 c 0
 290 2 244 -13 179 -13 c 0
 143 -13 111 -3 81 17 c 0
 51 37 36 61 36 89 c 0
 36 111 41 126 53 134 c 0
 65 142 81 146 100 146 c 2
 163 146 l 2
 173 146 178 143 178 135 c 0
 178 132 173 125 162 117 c 0
 151 109 144 101 138 94 c 0
 132 87 129 79 129 67 c 0
 129 56 134 45 144 33 c 0
 154 21 167 16 185 16 c 0
 196 16 205 21 213 29 c 0
 221 37 228 50 232 66 c 0
 236 82 238 99 238 119 c 0xfa
 238 158 233 186 222 202 c 0
 211 218 194 225 172 225 c 0
 137 225 106 233 79 248 c 0
 52 263 39 289 39 327 c 0
 39 355 47 380 61 402 c 0
 75 424 94 441 117 452 c 0
 140 463 163 468 188 468 c 0
 216 468 242 463 264 454 c 0
 286 445 305 433 317 416 c 0
 329 399 335 378 335 354 c 0
 335 339 328 329 313 325 c 0
 301 322 280 320 250 319 c 0
 228 319 218 323 219 331 c 0
 219 332 223 339 231 352 c 0
 239 365 243 380 243 396 c 0xf5
 243 409 238 419 229 426 c 0
 220 433 208 436 195 436 c 0
 183 436 175 430 167 418 c 0
 159 406 155 389 155 365 c 0
 155 333 160 306 168 284 c 0
 176 262 193 252 217 252 c 0
 242 252 266 247 288 239 c 0
 310 231 328 217 341 199 c 0
 354 181 361 156 361 127 c 0xf6
EndSplineSet
EndChar

StartChar: afii10055
Encoding: 1030 1030 72
Width: 286
Flags: W
HStem: 0 21G<87 211.5> 629 20G<82 205.5>
VStem: 63 162<5.14501 644.903>
LayerCount: 2
Fore
SplineSet
225 28 m 2
 225 10 218 0 205 0 c 2
 93 0 l 2
 81 0 71 2 68 5 c 0
 65 8 63 17 63 29 c 2
 63 625 l 2
 63 642 70 650 82 649 c 2
 201 649 l 2
 210 649 217 647 220 645 c 0
 223 643 225 636 225 627 c 2
 225 28 l 2
EndSplineSet
EndChar

StartChar: afii10103
Encoding: 1110 1110 73
Width: 223
Flags: W
HStem: 0 21G<63.5 160> 435 20G<63.5 165.5>
VStem: 49 127<5.14354 449.858>
LayerCount: 2
Fore
SplineSet
176 20 m 2
 176 12 175 7 172 4 c 0
 169 1 164 0 156 0 c 2
 67 0 l 2
 60 0 55 2 53 5 c 0
 51 8 49 15 49 23 c 2
 49 437 l 2
 49 442 51 447 54 450 c 0
 57 453 61 455 66 455 c 2
 160 455 l 2
 171 455 176 448 176 433 c 2
 176 20 l 2
EndSplineSet
EndChar

StartChar: afii10056
Encoding: 1031 1031 74
Width: 326
Flags: W
HStem: 0 21G<106 230.5> 629 20G<101 224.5> 735 156<7.41507 114.585 212.412 318.585>
VStem: -17 156<759.415 866.585> 83 161<5.14501 644.903> 188 155<759.415 866.585>
LayerCount: 2
Fore
SplineSet
61 891 m 0xf0
 83 891 101 883 116 868 c 0
 131 853 139 835 139 813 c 256
 139 791 131 773 116 758 c 0
 101 743 83 735 61 735 c 0
 39 735 21 743 6 758 c 0
 -9 773 -17 791 -17 813 c 256
 -17 835 -9 853 6 868 c 0
 21 883 39 891 61 891 c 0xf0
265 891 m 0
 287 891 305 883 320 868 c 0
 335 853 343 835 343 813 c 256
 343 791 335 773 320 758 c 0
 305 743 287 735 265 735 c 0
 243 735 226 743 211 758 c 0
 196 773 188 791 188 813 c 256xe4
 188 835 196 853 211 868 c 0
 226 883 243 891 265 891 c 0
244 28 m 2xe8
 244 10 237 0 224 0 c 2
 112 0 l 2
 100 0 91 2 88 5 c 0
 85 8 83 17 83 29 c 2
 83 625 l 2
 83 642 89 650 101 649 c 2
 220 649 l 2
 229 649 236 647 239 645 c 0
 242 643 244 636 244 627 c 2
 244 28 l 2xe8
EndSplineSet
EndChar

StartChar: afii10104
Encoding: 1111 1111 75
Width: 270
Flags: W
HStem: 0 21G<87.5 184> 435 20G<87.5 188.5> 536 130<-0.434578 90.4346 181.565 272.435>
VStem: -20 130<555.565 646.389> 72 127<5.14354 449.858> 162 130<553.565 646.389>
LayerCount: 2
Fore
SplineSet
45 666 m 256xf0
 63 666 79 660 91 647 c 0
 103 634 110 619 110 601 c 256
 110 583 103 567 91 555 c 0
 79 543 63 536 45 536 c 256
 27 536 11 543 -1 555 c 0
 -13 567 -20 583 -20 601 c 256
 -20 619 -13 635 -1 647 c 0
 11 659 27 666 45 666 c 256xf0
227 666 m 256
 245 666 261 660 273 647 c 0
 285 634 292 619 292 601 c 0
 292 581 287 565 277 553 c 0
 267 541 250 536 227 536 c 0
 209 536 195 543 182 555 c 0
 169 567 162 583 162 601 c 256xe4
 162 619 169 635 181 647 c 0
 193 659 209 666 227 666 c 256
199 20 m 2xe8
 199 12 197 7 195 4 c 0
 193 1 188 0 180 0 c 2
 91 0 l 2
 84 0 80 2 77 5 c 0
 74 8 72 15 72 23 c 2
 72 437 l 2
 72 442 74 447 77 450 c 0
 80 453 85 455 90 455 c 2
 183 455 l 2
 194 455 199 448 199 433 c 2
 199 20 l 2xe8
EndSplineSet
EndChar

StartChar: afii10146
Encoding: 1122 1122 76
Width: 672
Flags: W
HStem: 0 30<375.958 466.086> 294 42<374.261 431.595> 505 53<172.116 211.834> 512 46<374.144 418.822> 629 20G<158 422>
VStem: 87 59<354.665 448.064> 212 162<56.105 293.818 336 504.822 559.434 594.441> 477 163<23.5 168.151>
LayerCount: 2
Fore
SplineSet
640 29 m 0xdf
 640 18 635 11 624 7 c 0
 613 3 595 0 568 0 c 2
 148 0 l 2
 140 0 137 4 138 12 c 0
 138 18 152 30 180 48 c 0
 202 62 212 86 212 120 c 2
 212 478 l 2
 212 496 208 505 200 505 c 0xef
 192 505 183 498 171 482 c 0
 159 466 151 448 146 428 c 0
 131 366 119 336 110 336 c 0
 102 336 97 340 93 348 c 0
 89 356 87 363 87 371 c 0
 87 388 78 418 60 462 c 0
 55 475 48 489 38 502 c 0
 28 515 23 524 23 529 c 0
 23 537 26 543 32 549 c 0
 38 555 43 558 51 558 c 2
 165 558 l 2
 197 558 213 563 212 572 c 0
 212 576 207 581 199 588 c 0
 191 595 182 599 173 604 c 0
 154 614 144 624 144 634 c 0
 144 639 146 643 149 645 c 0
 152 647 156 649 160 649 c 2
 416 649 l 2
 428 649 435 644 435 635 c 0
 435 623 425 613 403 601 c 0
 383 589 373 579 374 568 c 0
 374 561 379 558 389 558 c 2
 552 558 l 2
 558 558 564 555 567 550 c 0
 570 545 572 539 572 533 c 0
 572 531 567 517 556 495 c 0
 545 473 537 449 530 427 c 0
 528 420 526 409 524 391 c 0
 522 373 520 360 517 352 c 0
 514 344 509 341 502 341 c 0
 494 341 488 346 482 357 c 0
 476 368 468 385 458 409 c 0
 448 433 442 449 438 457 c 0
 421 494 404 512 386 512 c 0
 378 512 374 503 374 485 c 2
 374 336 l 1
 391 336 411 332 435 322 c 0
 459 312 484 299 507 284 c 0
 530 269 549 255 562 242 c 0
 584 219 599 200 608 187 c 0
 617 174 625 154 631 129 c 0
 637 104 640 71 640 29 c 0xdf
477 125 m 0
 477 177 464 224 439 263 c 0
 426 284 412 294 399 294 c 0
 393 294 387 292 382 287 c 0
 377 282 374 276 374 270 c 2
 374 54 l 2
 374 48 376 43 381 38 c 0
 386 33 391 30 398 30 c 2
 448 30 l 2
 467 30 477 62 477 125 c 0
EndSplineSet
EndChar

StartChar: afii10194
Encoding: 1123 1123 77
Width: 490
Flags: W
HStem: 0 41<277 327.618> 325 45<112.973 146.91 277.611 316.5> 435 20G<115 306>
VStem: 150 127<41.0076 188 226.062 323.859 372 421.936> 341 124<48.2671 127.106>
LayerCount: 2
Fore
SplineSet
465 75 m 0
 465 47 461 28 452 17 c 0
 443 6 426 0 401 0 c 2
 125 0 l 2
 112 0 105 5 105 13 c 0
 105 25 113 33 129 40 c 0
 143 45 150 56 150 72 c 2
 150 305 l 2
 150 318 145 325 137 325 c 0
 125 325 114 312 106 284 c 0
 101 267 94 252 86 239 c 0
 78 226 71 219 64 219 c 0
 61 219 57 222 55 228 c 0
 53 234 49 242 47 254 c 0
 45 266 43 276 42 284 c 1
 40 294 38 306 32 320 c 0
 26 334 23 344 23 351 c 0
 23 363 30 370 43 370 c 2
 147 370 l 1
 147 396 l 2
 147 410 139 419 123 424 c 1
 111 429 104 435 104 443 c 0
 104 451 109 454 121 455 c 2
 300 455 l 2
 312 455 318 450 317 442 c 0
 317 438 311 431 299 422 c 1
 284 412 277 402 277 393 c 2
 277 372 l 1
 395 372 l 2
 410 372 418 367 418 355 c 0
 418 350 413 342 405 334 c 1
 397 326 389 315 384 301 c 1
 371 260 361 240 355 240 c 0
 341 240 329 257 321 290 c 1
 319 300 315 307 309 314 c 0
 303 321 298 324 292 324 c 0
 288 324 285 321 282 315 c 0
 279 309 277 303 277 298 c 2
 277 233 l 1
 305 225 335 212 363 194 c 0
 391 176 416 158 436 136 c 0
 456 114 465 94 465 75 c 0
341 89 m 0
 341 103 338 118 331 133 c 0
 324 148 316 161 306 172 c 0
 296 183 286 188 277 188 c 1
 277 41 l 1
 303 41 320 44 328 50 c 0
 336 56 341 69 341 89 c 0
EndSplineSet
EndChar

StartChar: uni0464
Encoding: 1124 1124 78
Width: 775
Flags: W
HStem: -13 49<518.06 574.802> 0 21G<79 209> 312 55<223 298 508.143 572 575 637.6 640.399 715.466> 625 41<521.826 576.759> 629 20G<83 214>
VStem: 62 161<0.251221 312 367 648.951> 298 205<173.361 311.883 369.281 465.172> 582 155<485.04 584.834> 589 150<94.6428 194.976>
LayerCount: 2
Fore
SplineSet
298 312 m 1xb680
 223 312 l 1
 223 21 l 2
 223 7 216 0 202 0 c 2
 88 0 l 2
 70 0 61 11 62 33 c 2
 62 624 l 2
 62 642 69 650 83 649 c 2
 210 649 l 2x6e80
 218 649 222 641 223 624 c 2
 223 367 l 1
 300 367 l 1
 304 412 314 451 328 488 c 0
 342 525 361 556 385 583 c 0
 409 610 437 630 468 644 c 0
 499 658 532 666 567 666 c 0
 595 666 622 659 649 644 c 0
 676 629 697 610 713 588 c 0
 729 566 737 544 737 522 c 0
 737 497 727 484 708 484 c 2
 611 484 l 2
 603 484 597 487 591 495 c 0
 585 503 582 511 582 520 c 2
 582 581 l 2x37
 582 595 580 605 575 613 c 0
 570 621 560 625 545 625 c 0
 536 625 528 618 522 606 c 0
 516 594 511 577 508 558 c 0
 505 539 503 519 503 499 c 2
 503 388 l 2
 503 381 505 375 508 369 c 0
 511 363 517 361 523 361 c 2
 572 361 l 1
 593 366 616 369 641 370 c 0
 670 370 691 368 701 363 c 0
 711 358 716 351 716 339 c 0
 716 326 711 317 700 313 c 0
 689 309 669 307 639 307 c 0
 609 307 587 309 575 314 c 1
 524 314 l 2
 510 314 503 304 503 284 c 2
 503 146 l 2
 503 113 506 86 514 66 c 0
 522 46 532 36 545 36 c 0
 557 36 567 44 576 59 c 0
 585 74 589 90 589 105 c 2
 589 165 l 2
 589 173 592 179 596 186 c 0
 600 193 605 195 612 195 c 2
 717 195 l 2
 723 195 728 193 732 188 c 0
 736 183 739 178 739 173 c 0
 739 151 732 125 718 96 c 0
 704 67 680 41 648 19 c 0
 616 -3 574 -13 523 -13 c 0
 489 -13 455 -1 421 24 c 0
 387 49 357 87 334 137 c 0
 311 187 300 244 298 312 c 1xb680
EndSplineSet
EndChar

StartChar: uni0465
Encoding: 1125 1125 79
Width: 592
Flags: W
HStem: -13 43<368.389 429.147> 0 21G<63.5 160> 202 53<176 216.8 355.712 528.763> 419 49<363.064 425.5> 435 20G<63.5 165.5>
VStem: 49 127<5.14354 202 249 449.858> 215 138<106.229 202 255.293 336.64> 415 137<339.19 414.748> 436 124<46.5164 127.855>
LayerCount: 2
Fore
SplineSet
215 202 m 1xb680
 176 202 l 1
 176 20 l 2
 176 12 175 7 172 4 c 0
 169 1 164 0 156 0 c 2
 67 0 l 2
 60 0 55 2 53 5 c 0
 51 8 49 15 49 23 c 2
 49 437 l 2
 49 442 51 447 54 450 c 0
 57 453 61 455 66 455 c 2
 160 455 l 2x6e80
 171 455 176 448 176 433 c 2
 176 249 l 1
 216 249 l 1
 218 278 224 306 234 332 c 0
 244 358 257 381 275 402 c 0
 293 423 313 439 336 451 c 0
 359 463 386 468 415 468 c 0
 436 468 456 463 478 453 c 0
 500 443 517 430 531 414 c 0
 545 398 552 383 552 365 c 0
 552 343 545 333 532 333 c 2
 441 333 l 2
 431 333 424 335 421 339 c 0
 418 343 415 351 415 360 c 0x37
 415 378 412 391 407 402 c 0
 402 413 394 419 384 419 c 0
 363 419 353 381 353 303 c 0
 353 271 361 255 379 255 c 2
 501 255 l 2
 525 255 537 247 537 229 c 0
 537 220 534 212 529 208 c 0
 524 204 515 202 503 202 c 2
 374 202 l 2
 360 202 353 187 353 158 c 0
 353 111 356 78 364 59 c 0
 372 40 384 30 402 30 c 0
 414 30 422 35 428 46 c 0
 434 57 436 69 436 84 c 0
 436 116 443 133 458 133 c 2
 533 133 l 2
 545 133 553 131 556 128 c 0
 559 125 560 116 560 101 c 0
 560 83 555 66 545 48 c 0
 535 30 518 16 496 4 c 0
 474 -8 445 -13 410 -13 c 0
 372 -13 337 -3 309 16 c 0
 281 35 258 62 242 94 c 0
 226 126 217 163 215 202 c 1xb680
EndSplineSet
EndChar

StartChar: uni047E
Encoding: 1150 1150 80
Width: 845
Flags: W
HStem: 1 42<261.068 312.551 524.694 584.213> 606 54<286.79 346.669> 613 47<314.7 356.947 484.237 547.68> 715 128<367.963 462.17> 724 119<240.051 287.019 547.379 599.587> 796 47<300.055 365.363 468.001 531.829>
VStem: 47 188<167.099 429.491> 339 163<80.6179 476.858> 368 94<715 792.984> 612 184<181.011 445.536>
LayerCount: 2
Fore
SplineSet
796 302 m 0xc340
 796 259 788 219 774 181 c 0
 760 143 741 112 718 85 c 0
 695 58 667 38 639 23 c 0
 611 8 583 1 555 1 c 0
 523 1 496 8 478 20 c 0
 460 32 442 52 426 80 c 1
 414 55 394 34 366 18 c 0
 338 2 306 -5 271 -5 c 0
 236 -5 202 7 167 30 c 0
 132 53 103 89 81 136 c 0
 59 183 47 239 47 306 c 0
 47 354 56 400 74 444 c 0
 92 488 116 526 145 558 c 0
 174 590 205 615 238 633 c 0
 271 651 303 660 333 660 c 0xc340
 349 660 357 652 357 637 c 0
 357 625 354 618 347 613 c 0xa340
 340 608 329 606 314 606 c 0
 304 606 292 595 279 572 c 0
 266 549 257 520 249 486 c 0
 244 467 240 446 238 424 c 0
 236 402 235 380 235 358 c 0
 235 325 235 325 235 293 c 0
 235 207 239 144 247 105 c 0
 255 66 268 46 286 46 c 0
 296 46 305 52 313 64 c 0
 321 76 328 93 332 111 c 0
 336 129 339 147 339 163 c 2
 339 459 l 2
 339 465 342 470 346 475 c 0
 350 480 355 482 361 482 c 2
 479 482 l 2
 486 482 492 480 496 477 c 0
 500 474 502 469 502 461 c 2
 502 161 l 2
 502 149 504 134 507 116 c 0
 510 98 515 81 523 66 c 0
 531 51 540 43 552 43 c 0
 570 43 583 55 591 78 c 0
 599 101 606 131 608 169 c 0
 610 207 612 256 612 317 c 0
 612 355 610 394 608 431 c 0
 606 468 601 496 593 515 c 1
 582 545 569 568 554 585 c 0
 539 602 524 610 512 610 c 0
 498 610 489 613 484 618 c 0
 479 623 477 631 477 643 c 0
 477 658 487 666 507 666 c 0
 529 666 556 659 589 646 c 0
 622 633 655 611 686 583 c 0
 717 555 742 519 764 471 c 0
 786 423 796 367 796 302 c 0xc340
622 812 m 0
 622 794 617 776 605 755 c 0
 593 734 584 724 576 724 c 0x8ac0
 568 724 558 730 550 742 c 0
 542 754 534 767 529 782 c 0
 526 791 509 796 477 796 c 0x86c0
 475 796 471 788 468 774 c 0
 465 760 462 745 462 730 c 0
 462 720 457 715 448 715 c 2
 381 715 l 2x92c0
 372 715 367 720 368 728 c 0
 368 771 364 793 356 793 c 0
 324 793 304 785 298 770 c 0
 288 741 276 726 263 726 c 0
 253 726 244 735 236 754 c 0
 228 773 224 792 224 810 c 0
 224 823 227 833 232 837 c 0
 237 841 248 843 263 843 c 2x8ac0
 600 843 l 2x86c0
 609 843 616 841 618 836 c 0
 620 831 622 824 622 812 c 0
EndSplineSet
EndChar

StartChar: uni047F
Encoding: 1151 1151 81
Width: 613
Flags: W
HStem: -13 52<191.377 237.528 384.954 431.341> 448 20G<216.5 239 368 388> 531 115<258.92 344.317> 539 107<145.375 189.147 419.795 469.34> 604 42<198.409 257.059 349.001 404.895>
VStem: 39 134<87.5066 314.301> 244 130<60.415 319> 259 85<531.006 601.939> 446 132<94.3409 308.999>
LayerCount: 2
Fore
SplineSet
488 618 m 0xd580
 488 602 483 585 473 567 c 0
 463 549 455 539 447 539 c 0xd580
 439 539 431 545 423 556 c 0
 415 567 410 579 405 591 c 0
 403 599 386 604 357 604 c 0xcd80
 355 604 352 597 349 583 c 0
 346 569 344 556 344 544 c 0
 344 535 340 530 332 531 c 2
 271 531 l 2xe580
 263 531 259 534 259 542 c 0
 259 581 256 601 249 602 c 0
 220 602 202 595 197 580 c 0
 188 553 178 540 166 541 c 0
 158 541 150 550 142 567 c 0
 134 584 130 600 130 617 c 0
 130 629 133 636 138 640 c 0
 143 644 152 646 166 646 c 2
 469 646 l 2
 477 646 482 644 484 640 c 0
 486 636 488 629 488 618 c 0xd580
578 205 m 0
 578 168 571 132 558 99 c 0
 545 66 525 39 500 18 c 0
 475 -3 445 -13 413 -13 c 0
 391 -13 373 -6 356 7 c 0
 338 20 324 38 312 60 c 1
 302 44 292 31 283 21 c 0
 274 11 262 2 247 -4 c 0
 232 -10 215 -13 194 -13 c 0
 142 -13 102 9 77 53 c 0
 52 97 39 150 39 209 c 0
 39 254 50 297 71 337 c 0
 92 377 117 409 147 432 c 0
 177 455 204 468 229 468 c 0
 249 468 259 463 259 454 c 0xc580
 259 452 253 443 241 431 c 0
 229 419 217 405 209 392 c 0
 198 376 190 348 183 309 c 0
 176 270 173 231 173 192 c 0
 173 158 176 124 183 89 c 0
 190 54 201 37 216 37 c 0
 225 37 232 44 237 59 c 0
 242 74 244 92 244 113 c 2
 244 277 l 2
 244 305 251 319 264 319 c 2
 354 319 l 2
 366 319 373 304 374 273 c 2
 374 113 l 2xc680
 374 91 377 74 385 60 c 0
 393 46 401 39 413 39 c 0
 422 39 430 51 437 76 c 0
 444 101 446 139 446 191 c 0
 446 255 442 302 434 333 c 0
 426 364 415 386 400 400 c 0
 395 406 387 413 377 422 c 0
 367 431 359 439 356 442 c 0
 353 445 351 450 351 455 c 0
 351 463 359 468 377 468 c 0
 399 468 421 461 444 447 c 0
 467 433 489 413 509 388 c 0
 529 363 547 334 559 302 c 0
 571 270 578 238 578 205 c 0
EndSplineSet
EndChar

StartChar: uni0460
Encoding: 1120 1120 82
Width: 845
Flags: W
HStem: 1 42<261.068 312.551 524.694 584.213> 606 54<286.79 366.405 470.38 553.952>
VStem: 47 188<167.099 427.567> 339 163<80.6179 476.858> 612 184<181.011 438.341>
LayerCount: 2
Fore
SplineSet
796 302 m 0
 796 259 788 219 774 181 c 0
 760 143 741 112 718 85 c 0
 695 58 667 38 639 23 c 0
 611 8 583 1 555 1 c 0
 523 1 496 8 478 20 c 0
 460 32 442 52 426 80 c 1
 414 55 394 34 366 18 c 0
 338 2 306 -5 271 -5 c 0
 236 -5 202 7 167 30 c 0
 132 53 103 89 81 136 c 0
 59 183 47 239 47 306 c 0
 47 369 63 428 95 483 c 0
 127 538 166 580 213 612 c 0
 260 644 303 660 343 660 c 0
 359 660 367 652 368 637 c 0
 368 617 350 607 314 606 c 0
 304 606 292 595 279 572 c 0
 266 549 257 520 249 486 c 0
 244 467 240 446 238 424 c 0
 236 402 235 380 235 358 c 0
 235 325 235 325 235 293 c 0
 235 207 239 144 247 105 c 0
 255 66 268 46 286 46 c 0
 296 46 305 52 313 64 c 0
 321 76 328 93 332 111 c 0
 336 129 339 147 339 163 c 2
 339 459 l 2
 339 465 342 470 346 475 c 0
 350 480 355 482 361 482 c 2
 479 482 l 2
 486 482 492 480 496 477 c 0
 500 474 502 469 502 461 c 2
 502 161 l 2
 502 149 504 134 507 116 c 0
 510 98 515 81 523 66 c 0
 531 51 540 43 552 43 c 0
 570 43 583 55 591 78 c 0
 599 101 606 131 608 169 c 0
 610 207 612 256 612 317 c 0
 612 355 610 394 608 431 c 0
 606 468 601 496 593 515 c 1
 582 545 569 568 554 585 c 0
 539 602 524 610 512 610 c 0
 493 610 478 613 470 618 c 0
 462 623 457 631 457 643 c 0
 457 653 460 660 465 662 c 0
 470 664 478 666 487 666 c 0
 509 666 538 659 573 646 c 0
 608 633 643 611 676 583 c 0
 709 555 738 519 761 471 c 0
 784 423 796 367 796 302 c 0
EndSplineSet
EndChar

StartChar: uni0461
Encoding: 1121 1121 83
Width: 615
Flags: W
HStem: -13 52<191.377 237.528 384.954 431.341> 448 20G<216.5 239 368 388>
VStem: 39 134<87.5066 314.301> 244 130<60.415 319> 446 132<94.3409 308.999>
LayerCount: 2
Fore
SplineSet
578 205 m 0
 578 168 571 132 558 99 c 0
 545 66 525 39 500 18 c 0
 475 -3 445 -13 413 -13 c 0
 391 -13 373 -6 356 7 c 0
 338 20 324 38 312 60 c 1
 302 44 292 31 283 21 c 0
 274 11 262 2 247 -4 c 0
 232 -10 215 -13 194 -13 c 0
 142 -13 102 9 77 53 c 0
 52 97 39 150 39 209 c 0
 39 254 50 297 71 337 c 0
 92 377 117 409 147 432 c 0
 177 455 204 468 229 468 c 0
 249 468 259 463 259 454 c 0
 259 452 253 443 241 431 c 0
 229 419 217 405 209 392 c 0
 198 376 190 348 183 309 c 0
 176 270 173 231 173 192 c 0
 173 158 176 124 183 89 c 0
 190 54 201 37 216 37 c 0
 225 37 232 44 237 59 c 0
 242 74 244 92 244 113 c 2
 244 277 l 2
 244 305 251 319 264 319 c 2
 354 319 l 2
 366 319 373 304 374 273 c 2
 374 113 l 2
 374 91 377 74 385 60 c 0
 393 46 401 39 413 39 c 0
 422 39 430 51 437 76 c 0
 444 101 446 139 446 191 c 0
 446 255 442 302 434 333 c 0
 426 364 415 386 400 400 c 0
 395 406 387 413 377 422 c 0
 367 431 359 439 356 442 c 0
 353 445 351 450 351 455 c 0
 351 463 359 468 377 468 c 0
 399 468 421 461 444 447 c 0
 467 433 489 413 509 388 c 0
 529 363 547 334 559 302 c 0
 571 270 578 238 578 205 c 0
EndSplineSet
EndChar

StartChar: afii10148
Encoding: 1140 1140 84
Width: 600
Flags: W
HStem: 0 21G<211 378> 629 20G<40 199.5 475 548>
VStem: 500 64<413.299 482.634>
LayerCount: 2
Fore
SplineSet
398 29 m 0
 398 10 388 0 368 0 c 2
 220 0 l 2
 202 0 192 8 187 24 c 2
 30 581 l 2
 28 587 26 594 24 601 c 0
 22 608 20 614 20 619 c 0
 20 640 27 650 40 649 c 2
 196 649 l 2
 203 649 208 647 213 643 c 0
 218 639 221 634 223 627 c 2
 340 168 l 1
 347 288 l 2
 350 346 358 402 368 457 c 0
 378 512 393 557 413 594 c 0
 433 631 459 649 491 649 c 2
 544 649 l 2
 552 649 559 644 561 636 c 0
 563 628 564 616 564 601 c 2
 564 476 l 2
 564 428 559 404 548 404 c 0
 536 404 525 408 517 418 c 0
 509 428 502 440 500 452 c 0
 498 462 494 470 486 477 c 0
 478 484 470 487 462 487 c 0
 454 487 446 467 436 425 c 0
 426 383 418 336 410 284 c 0
 407 262 405 244 403 233 c 0
 401 222 400 197 399 159 c 0
 398 121 398 77 398 29 c 0
EndSplineSet
EndChar

StartChar: afii10196
Encoding: 1141 1141 85
Width: 423
Flags: W
HStem: 0 21G<127.5 252> 314 154<313.335 377.763> 435 20G<32 140>
VStem: 21 136<395 454.965> 237 32<117.002 249.328>
LayerCount: 2
Fore
SplineSet
269 80 m 0xd8
 270 27 261 0 243 0 c 2
 136 0 l 2
 119 0 109 10 105 32 c 1
 21 428 l 2
 19 436 20 442 22 447 c 0
 24 452 28 455 36 455 c 2
 134 455 l 2xb8
 146 455 154 445 157 425 c 2
 207 157 l 2
 212 130 217 117 225 117 c 0
 227 117 231 120 233 128 c 0
 235 136 237 145 237 157 c 0
 237 177 239 204 241 236 c 0
 243 268 246 297 250 325 c 1
 257 363 271 397 293 425 c 0
 315 453 340 468 366 468 c 0
 378 468 386 463 388 453 c 0
 390 443 392 422 392 390 c 0
 392 370 391 354 389 343 c 0
 387 332 383 325 378 321 c 0
 373 317 365 314 355 314 c 0
 321 314 299 297 289 264 c 0
 274 216 267 155 269 80 c 0xd8
EndSplineSet
EndChar

StartChar: uni0478
Encoding: 1144 1144 86
Width: 1160
Flags: W
HStem: -8 47<248.031 320.003> 621 42<249.926 318.074> 629 20G<606 765.5>
VStem: 40 179<194.224 473.917> 349 179<188.989 476.776> 957 173<490.5 601.029>
LayerCount: 2
Fore
SplineSet
1130 476 m 2xbc
 1130 428 1125 404 1114 404 c 0
 1102 404 1091 408 1083 418 c 0
 1075 428 1068 440 1066 452 c 0
 1064 462 1059 470 1052 477 c 0
 1045 484 1037 487 1028 487 c 0
 1023 487 1015 476 1007 454 c 0
 999 432 990 406 982 375 c 0
 974 344 968 313 965 281 c 0
 962 253 962 220 964 182 c 1
 967 126 972 78 976 37 c 0
 980 -4 985 -40 992 -68 c 0
 999 -96 1006 -120 1016 -139 c 0
 1024 -154 1035 -172 1047 -192 c 0
 1059 -212 1067 -226 1072 -236 c 0
 1077 -246 1080 -257 1080 -272 c 0
 1080 -281 1075 -290 1067 -298 c 0
 1059 -306 1044 -309 1022 -309 c 0
 996 -309 977 -304 965 -294 c 0
 953 -284 945 -269 941 -249 c 0
 937 -229 932 -198 930 -155 c 2
 922 -41 l 2
 922 -34 920 -29 916 -22 c 0
 912 -15 908 -10 902 -6 c 0
 896 -2 891 0 886 0 c 2
 786 0 l 2
 768 0 758 8 753 24 c 2
 597 581 l 2
 595 587 594 594 591 601 c 0
 588 608 586 614 586 619 c 0
 586 640 593 650 606 649 c 2
 762 649 l 2
 769 649 774 647 779 643 c 0
 784 639 787 634 789 627 c 2
 907 168 l 1
 914 288 l 1
 921 387 935 475 957 548 c 0
 979 621 1013 658 1058 658 c 2
 1110 658 l 2
 1123 658 1130 639 1130 601 c 2
 1130 476 l 2xbc
284 -8 m 256
 254 -8 224 0 196 16 c 0
 168 32 141 53 118 83 c 0
 95 113 75 150 61 192 c 0
 47 234 40 281 40 333 c 0
 40 385 48 431 61 472 c 0
 74 513 93 548 116 576 c 0
 139 604 166 626 195 641 c 0
 224 656 254 663 284 663 c 256xdc
 314 663 344 656 373 641 c 0
 402 626 429 604 452 576 c 0
 475 548 495 513 508 472 c 0
 521 431 528 385 528 333 c 0
 528 281 521 234 507 191 c 0
 493 148 475 111 452 82 c 0
 429 53 402 32 373 16 c 0
 344 0 314 -8 284 -8 c 256
284 39 m 256
 327 39 349 102 349 228 c 2
 349 445 l 2
 349 495 343 538 332 571 c 0
 321 604 306 621 284 621 c 256
 262 621 247 604 236 571 c 0
 225 538 219 496 219 445 c 2
 219 228 l 2
 219 102 241 39 284 39 c 256
EndSplineSet
EndChar

StartChar: uni0479
Encoding: 1145 1145 87
Width: 865
Flags: W
HStem: -13 56<193.299 270.109> 314 154<759.335 823.763> 420 48<193.668 270.332> 435 20G<477.5 586>
VStem: 39 145<118.683 351.368> 280 145<117.684 351.368> 675 79<-195.536 -55.0084> 683 31<117.002 246.395>
LayerCount: 2
Fore
SplineSet
232 -13 m 256xac
 198 -13 167 -2 137 18 c 0
 107 38 84 68 66 106 c 0
 48 144 39 188 39 237 c 0
 39 282 47 323 64 358 c 0
 81 393 104 420 134 439 c 0
 164 458 197 468 232 468 c 256
 267 468 300 458 330 439 c 0
 360 420 383 393 400 358 c 0
 417 323 425 282 425 237 c 0
 425 187 416 143 398 105 c 0
 380 67 358 38 328 18 c 0
 298 -2 266 -13 232 -13 c 256xac
232 43 m 256
 264 43 280 66 280 112 c 2
 280 357 l 2
 280 379 277 395 269 405 c 0
 261 415 250 420 232 420 c 0
 214 420 203 415 195 405 c 0
 187 395 184 379 184 357 c 2
 184 112 l 2
 184 66 200 43 232 43 c 256
837 390 m 0
 837 370 836 354 834 343 c 0
 832 332 829 325 824 321 c 0
 819 317 811 314 801 314 c 0
 767 314 745 297 734 264 c 0
 721 222 714 160 714 80 c 0xcd
 714 67 716 47 719 23 c 0
 722 -1 727 -27 732 -55 c 0
 737 -83 742 -109 747 -133 c 0
 752 -157 754 -169 754 -171 c 0
 757 -189 739 -199 701 -199 c 0
 693 -199 686 -192 682 -176 c 0
 678 -160 675 -142 675 -124 c 2
 676 -10 l 2
 676 -3 672 0 664 0 c 2
 582 0 l 2
 565 0 555 10 551 32 c 1
 466 428 l 2
 464 436 466 442 468 447 c 0
 470 452 474 455 481 455 c 2
 580 455 l 2x9e
 592 455 600 445 603 425 c 2
 652 157 l 2
 657 130 663 117 671 117 c 0
 673 117 677 120 679 128 c 0
 681 136 683 145 683 157 c 0
 683 177 685 204 687 236 c 0
 689 268 692 297 696 325 c 1
 703 363 717 397 739 425 c 0
 761 453 786 468 812 468 c 0xcd
 824 468 831 463 833 453 c 0
 835 443 837 422 837 390 c 0
EndSplineSet
EndChar

StartChar: uni0466
Encoding: 1126 1126 88
Width: 653
Flags: W
HStem: 0 21G<56.5 95.5 220 346 496 609.5> 630 20G<172 482>
VStem: 32 108<-3.02641 124.614> 202 161<7.23585 289>
LayerCount: 2
Fore
SplineSet
636 24 m 0
 636 15 633 8 629 5 c 0
 625 2 616 0 603 0 c 2
 500 0 l 2
 492 0 486 1 481 3 c 0
 476 5 472 10 469 17 c 0
 466 24 462 34 457 47 c 2
 376 289 l 1
 363 289 l 1
 363 25 l 2
 363 8 355 0 337 0 c 2
 224 0 l 2
 216 0 210 2 207 7 c 0
 204 12 202 19 202 31 c 2
 202 322 l 1
 189 322 l 1
 188 320 183 306 172 283 c 0
 161 260 153 238 146 220 c 0
 139 202 135 182 133 163 c 0
 131 141 132 116 135 85 c 0
 138 54 140 34 140 26 c 0
 140 15 135 8 125 1 c 0
 115 -6 103 -9 88 -9 c 2
 63 -9 l 2
 50 -9 39 1 32 19 c 0
 25 37 25 56 31 74 c 1
 36 88 46 111 63 143 c 0
 80 175 95 206 108 234 c 0
 121 262 135 295 150 333 c 0
 181 410 200 468 208 508 c 1
 215 536 218 555 218 563 c 0
 218 571 215 579 208 584 c 0
 201 589 192 597 177 607 c 0
 162 617 155 623 155 627 c 0
 155 642 163 650 181 650 c 2
 475 650 l 2
 489 650 498 649 503 647 c 0
 508 645 510 641 510 635 c 0
 510 627 500 614 478 597 c 0
 465 587 458 570 458 547 c 0
 458 532 463 511 473 485 c 2
 615 103 l 2
 623 84 628 68 631 56 c 0
 634 44 636 33 636 24 c 0
317 373 m 2
 333 373 336 385 326 407 c 1
 272 550 l 1
 219 393 l 1
 214 380 222 373 241 373 c 2
 317 373 l 2
EndSplineSet
EndChar

StartChar: uni0467
Encoding: 1127 1127 89
Width: 495
Flags: W
HStem: 0 21G<165.5 258 372 468.5> 435 20G<132 380>
VStem: 31 73<-8.28275 100.829> 153 117<6.14209 225>
LayerCount: 2
Fore
SplineSet
479 9 m 0
 479 3 474 0 463 0 c 2
 376 0 l 2
 368 0 362 2 359 6 c 0
 356 10 351 19 346 33 c 2
 279 225 l 1
 270 225 l 1
 270 18 l 2
 270 6 264 0 252 0 c 2
 168 0 l 2
 163 0 159 3 157 6 c 0
 155 9 153 14 153 21 c 2
 153 225 l 1
 144 225 l 1
 122 183 107 146 99 114 c 0
 95 99 95 81 99 62 c 1
 102 39 104 24 104 19 c 0
 104 11 99 4 91 -3 c 0
 83 -10 71 -13 57 -13 c 0
 45 -13 38 -6 31 9 c 0
 24 24 23 39 28 52 c 0
 30 58 42 81 64 122 c 0
 86 163 104 200 116 233 c 0
 137 286 150 327 157 355 c 0
 162 375 164 388 164 394 c 0
 164 400 161 405 158 408 c 0
 155 411 148 416 137 423 c 0
 126 430 120 436 120 438 c 0
 120 449 126 454 138 455 c 2
 375 455 l 2
 385 455 390 452 389 444 c 0
 389 439 382 430 367 418 c 0
 358 410 353 399 353 383 c 0
 353 371 356 358 363 340 c 2
 473 35 l 2
 477 25 479 17 479 9 c 0
247 261 m 2
 258 261 260 269 253 285 c 2
 214 385 l 1
 197 385 l 1
 165 275 l 2
 163 266 168 261 180 261 c 2
 247 261 l 2
EndSplineSet
EndChar

StartChar: uni0468
Encoding: 1128 1128 90
Width: 936
Flags: W
HStem: 0 21G<79 209 321.5 360.5 485 611.5 761 874.5> 318 55<223 410> 629 21G<83 214 437 747>
VStem: 62 161<0.251221 318 373 648.951> 298 107<-3.02641 125.876> 467 161<7.23585 289>
LayerCount: 2
Fore
SplineSet
410 318 m 1
 223 318 l 1
 223 21 l 2
 223 7 216 0 202 0 c 2
 88 0 l 2
 70 0 61 11 62 33 c 2
 62 624 l 2
 62 642 69 650 83 649 c 2
 210 649 l 2
 218 649 222 641 223 624 c 2
 223 373 l 1
 431 373 l 1
 443 401 451 428 459 453 c 0
 467 478 472 496 474 508 c 1
 481 536 484 555 483 563 c 0
 483 571 480 579 473 584 c 0
 466 589 457 597 442 607 c 0
 427 617 420 623 420 627 c 0
 420 642 428 650 446 650 c 2
 740 650 l 2
 754 650 763 649 768 647 c 0
 773 645 775 641 775 635 c 0
 775 627 765 614 743 597 c 0
 730 587 723 570 724 547 c 0
 724 532 729 511 738 485 c 2
 880 103 l 2
 888 84 893 69 896 57 c 0
 899 45 901 34 901 24 c 0
 901 15 898 8 894 5 c 0
 890 2 881 0 868 0 c 2
 765 0 l 2
 757 0 751 1 746 3 c 0
 741 5 737 10 734 17 c 0
 731 24 727 34 722 47 c 2
 642 289 l 1
 628 289 l 1
 628 25 l 2
 628 8 620 0 603 0 c 2
 489 0 l 2
 481 0 475 2 472 7 c 0
 469 12 467 19 467 31 c 2
 467 322 l 1
 454 322 l 1
 453 320 448 306 437 283 c 0
 426 260 418 238 411 220 c 0
 404 202 400 182 398 163 c 0
 396 141 397 116 400 85 c 0
 403 54 405 34 405 26 c 0
 405 15 400 8 390 1 c 0
 380 -6 368 -9 353 -9 c 2
 328 -9 l 2
 315 -9 305 1 298 19 c 0
 291 37 290 56 296 74 c 0
 301 86 311 109 328 142 c 0
 345 175 358 204 369 226 c 0
 380 248 394 279 410 318 c 1
583 373 m 2
 599 373 602 385 591 407 c 1
 537 550 l 1
 484 393 l 1
 479 380 487 373 506 373 c 2
 583 373 l 2
EndSplineSet
EndChar

StartChar: uni0469
Encoding: 1129 1129 91
Width: 707
Flags: W
HStem: 0 21G<63.5 160 372.5 458 579 669> 218 48<176 317> 435 19G<63.5 165.5 338 586>
VStem: 49 127<5.14354 218 266 449.858> 237 73<-9.42114 98.2854> 359 118<6.14209 225>
LayerCount: 2
Fore
SplineSet
317 218 m 1
 176 218 l 1
 176 20 l 2
 176 12 175 7 172 4 c 0
 169 1 164 0 156 0 c 2
 67 0 l 2
 60 0 55 2 53 5 c 0
 51 8 49 15 49 23 c 2
 49 437 l 2
 49 442 51 447 54 450 c 0
 57 453 61 455 66 455 c 2
 160 455 l 2
 171 455 176 448 176 433 c 2
 176 266 l 1
 335 266 l 1
 348 302 358 332 364 355 c 0
 369 375 371 388 371 394 c 0
 371 400 369 405 365 408 c 0
 361 411 353 415 342 423 c 0
 331 431 326 436 326 438 c 0
 326 449 332 454 344 454 c 2
 581 454 l 2
 591 454 596 451 596 443 c 0
 596 438 588 429 573 417 c 0
 564 409 559 398 560 382 c 0
 560 370 563 357 569 339 c 2
 680 35 l 2
 683 24 685 16 685 8 c 0
 685 2 680 -1 669 0 c 2
 583 0 l 2
 575 0 569 2 566 6 c 0
 563 10 558 19 553 33 c 2
 486 225 l 1
 477 225 l 1
 477 17 l 2
 477 5 470 -1 458 0 c 2
 375 0 l 2
 370 0 365 3 363 6 c 0
 361 9 359 14 359 21 c 2
 359 225 l 1
 350 225 l 1
 328 183 314 146 306 113 c 0
 302 98 302 80 305 61 c 1
 308 38 310 23 310 18 c 0
 310 10 305 3 297 -4 c 0
 289 -11 277 -14 263 -14 c 0
 251 -14 244 -6 237 9 c 0
 230 24 229 39 234 51 c 0
 236 58 248 78 267 114 c 0
 286 150 303 185 317 218 c 1
453 261 m 2
 464 261 466 269 459 285 c 2
 420 385 l 1
 403 385 l 1
 371 274 l 2
 369 265 374 260 387 261 c 2
 453 261 l 2
EndSplineSet
EndChar

StartChar: uni046C
Encoding: 1132 1132 92
Width: 1020
Flags: W
HStem: 0 21G<79 209 334 457.5 584.5 702 842 950> 351 55<223 456> 359 47<525.065 565.644> 595 54<534.332 765.468>
VStem: 62 161<0.251221 351 406 648.951> 315 162<13.3801 190.52> 566 161<8.28345 354.834 406.661 422> 766 155<565 627> 816 163<14.4299 194.465>
LayerCount: 2
Fore
SplineSet
567 406 m 1xbe80
 567 423 l 1
 470 531 l 2
 458 543 445 558 428 576 c 0
 411 594 401 604 398 609 c 0
 395 614 392 619 392 625 c 0
 392 633 394 640 398 643 c 0
 402 646 410 649 421 649 c 2
 882 649 l 2
 899 649 909 647 914 644 c 0
 919 641 921 633 921 621 c 0xbf
 921 615 916 608 908 598 c 0
 900 588 888 576 871 561 c 0
 854 546 839 531 824 518 c 1
 727 422 l 1
 727 408 l 1
 774 394 816 371 854 339 c 0
 892 307 923 269 945 223 c 0
 967 177 979 127 979 72 c 0
 979 43 977 23 972 14 c 0
 967 5 957 0 943 0 c 2
 848 0 l 2
 836 0 826 4 822 11 c 0
 818 18 816 28 816 40 c 0
 817 72 816 111 814 159 c 0
 812 207 809 244 804 266 c 1
 799 291 792 312 782 329 c 0
 772 346 760 355 745 355 c 0
 733 355 727 340 727 312 c 2
 727 24 l 2
 727 15 725 8 720 5 c 0
 715 2 708 0 696 0 c 2
 589 0 l 2
 580 0 574 2 571 8 c 0
 568 14 566 23 566 35 c 2
 566 330 l 2
 566 349 560 359 548 359 c 0xbe80
 540 359 530 347 518 325 c 0
 506 303 496 276 488 245 c 1
 484 221 481 190 479 153 c 0
 477 116 477 84 477 56 c 0
 477 36 475 21 472 13 c 0
 469 5 463 0 452 0 c 2
 343 0 l 2
 325 0 315 20 315 61 c 0
 315 93 319 125 326 154 c 0
 333 183 343 210 355 234 c 0
 367 258 383 280 401 300 c 0
 419 320 437 337 456 351 c 1
 223 351 l 1
 223 21 l 2
 223 7 216 0 202 0 c 2
 88 0 l 2
 70 0 61 11 62 33 c 2
 62 624 l 2
 62 642 69 650 83 649 c 2
 210 649 l 2
 218 649 222 641 223 624 c 2
 223 406 l 1xde80
 567 406 l 1xbe80
766 569 m 0
 766 577 760 584 748 588 c 0
 736 592 724 595 710 595 c 2
 570 595 l 2
 553 595 541 592 534 588 c 0
 527 584 524 577 524 566 c 0
 524 550 537 527 565 498 c 1
 577 485 587 473 595 464 c 0
 603 455 611 448 619 442 c 0
 627 436 636 433 644 433 c 0
 654 433 666 438 679 448 c 0
 692 458 706 469 719 484 c 0
 732 499 742 514 750 527 c 1
 761 546 766 561 766 569 c 0
EndSplineSet
EndChar

StartChar: uni046D
Encoding: 1133 1133 93
Width: 770
Flags: W
HStem: 0 21G<63.5 160 259.5 360 448.5 535 633 722> 236 48<176 339> 251 33<403.957 435.823> 417 38<402.052 579.997>
VStem: 49 127<5.14354 236 284 449.858> 247 124<0 146.522> 436 117<4.09594 248.98 284.332 295> 580 108<395 439> 615 127<8.23584 144.68>
LayerCount: 2
Fore
SplineSet
437 284 m 1xbe80
 437 296 l 1
 364 372 l 2
 355 382 345 392 334 402 c 0
 323 412 316 420 313 425 c 0
 310 430 309 434 309 437 c 0
 309 444 311 449 314 451 c 0
 317 453 322 455 330 455 c 2
 661 455 l 2
 673 455 680 454 683 452 c 0
 686 450 688 443 688 435 c 0xbf
 688 431 685 426 678 418 c 0
 671 410 663 402 652 392 c 0
 641 382 631 371 621 362 c 2
 552 295 l 1
 552 285 l 1
 576 278 600 267 623 252 c 0
 646 237 666 220 684 200 c 0
 702 180 715 158 726 132 c 0
 737 106 742 78 742 50 c 0
 742 30 740 17 737 10 c 0
 734 3 727 0 717 0 c 2
 637 0 l 2
 629 0 622 3 619 8 c 0
 616 13 615 20 615 28 c 0
 616 50 616 79 614 112 c 0
 612 145 610 171 607 186 c 1
 605 204 600 219 592 231 c 0
 584 243 576 249 565 249 c 0
 557 249 553 239 553 218 c 2
 553 17 l 2
 553 11 551 6 548 4 c 0
 545 2 539 0 531 0 c 2
 452 0 l 2
 445 0 441 2 439 6 c 0
 437 10 436 16 436 24 c 2
 436 231 l 2
 436 244 431 251 423 251 c 0xbe80
 416 251 408 243 399 226 c 0
 390 209 384 191 381 171 c 0
 376 139 373 95 374 39 c 0
 374 25 373 15 371 9 c 0
 369 3 364 0 356 0 c 2
 266 0 l 2
 253 0 246 14 247 42 c 0
 247 84 255 122 272 154 c 0
 289 186 311 214 339 236 c 1
 176 236 l 1
 176 20 l 2
 176 12 175 7 172 4 c 0
 169 1 164 0 156 0 c 2
 67 0 l 2
 60 0 55 2 53 5 c 0
 51 8 49 15 49 23 c 2
 49 437 l 2
 49 442 51 447 54 450 c 0
 57 453 61 455 66 455 c 2
 160 455 l 2
 171 455 176 448 176 433 c 2
 176 284 l 1xde80
 437 284 l 1xbe80
580 398 m 0
 580 404 576 409 568 412 c 0
 560 415 550 417 541 417 c 2
 438 417 l 2
 413 417 401 410 402 396 c 0
 402 393 404 388 407 383 c 0
 410 378 414 372 419 366 c 0
 424 360 430 354 435 349 c 0
 440 344 446 336 453 328 c 0
 460 320 466 313 473 309 c 0
 480 305 486 303 494 303 c 0
 504 303 517 310 533 325 c 0
 549 340 560 354 568 369 c 0
 576 382 580 392 580 398 c 0
EndSplineSet
EndChar

StartChar: uni046A
Encoding: 1130 1130 94
Width: 758
Flags: W
HStem: 0 21G<68 191.5 318.5 436 576 684> 595 54<268.332 499.468>
VStem: 49 158<0.939453 193.495> 300 161<5.14355 354.834 400.778 422> 550 163<14.4299 194.465>
LayerCount: 2
Fore
SplineSet
713 72 m 0
 713 43 711 23 706 14 c 0
 701 5 691 0 677 0 c 2
 582 0 l 2
 570 0 561 4 557 11 c 0
 553 18 550 28 550 40 c 0
 551 72 550 111 548 159 c 0
 546 207 543 244 538 266 c 1
 533 291 526 312 516 329 c 0
 506 346 493 355 479 355 c 0
 467 355 461 340 461 312 c 2
 461 24 l 2
 461 15 459 8 454 5 c 0
 449 2 442 0 430 0 c 2
 323 0 l 2
 314 0 307 2 304 8 c 0
 301 14 300 23 300 35 c 2
 300 330 l 2
 300 349 294 359 282 359 c 0
 274 359 264 347 252 325 c 0
 240 303 230 276 222 245 c 1
 218 221 215 190 213 153 c 0
 211 116 211 84 211 56 c 0
 211 36 210 21 207 13 c 0
 204 5 197 0 186 0 c 2
 77 0 l 2
 59 0 49 20 49 61 c 0
 49 123 61 178 85 226 c 0
 109 274 140 312 178 342 c 0
 216 372 256 393 301 407 c 1
 301 423 l 1
 204 531 l 2
 192 543 179 558 162 576 c 0
 145 594 135 604 131 609 c 0
 127 614 125 619 125 625 c 0
 125 633 127 640 132 643 c 0
 137 646 144 649 155 649 c 2
 616 649 l 2
 633 649 643 647 648 644 c 0
 653 641 655 633 655 621 c 0
 655 615 651 608 642 598 c 0
 633 588 620 576 604 561 c 0
 588 546 573 531 558 518 c 1
 460 422 l 1
 460 408 l 1
 507 394 550 371 588 339 c 0
 626 307 657 269 679 223 c 0
 701 177 713 127 713 72 c 0
500 569 m 0
 500 577 494 584 482 588 c 0
 470 592 458 595 444 595 c 2
 304 595 l 2
 287 595 275 592 268 588 c 0
 261 584 258 577 258 566 c 0
 258 550 271 527 299 498 c 1
 311 485 321 473 329 464 c 0
 337 455 345 448 353 442 c 0
 361 436 369 433 377 433 c 0
 387 433 399 438 412 448 c 0
 425 458 440 469 453 484 c 0
 466 499 476 514 483 527 c 1
 495 546 500 561 500 569 c 0
EndSplineSet
EndChar

StartChar: uni046B
Encoding: 1131 1131 95
Width: 567
Flags: W
HStem: 0 21G<51.5 151 239.5 327 425 513> 417 38<206.236 371.996>
VStem: 38 124<0 144.75> 227 117<4.09594 248.98 277.709 295> 372 108<395 439> 406 127<8.23584 146.472>
LayerCount: 2
Fore
SplineSet
533 50 m 0xf4
 533 30 531 17 528 10 c 0
 525 3 518 0 508 0 c 2
 429 0 l 2
 421 0 414 3 411 8 c 0
 408 13 406 20 406 28 c 0
 407 50 407 79 406 112 c 0xf4
 405 145 402 171 399 186 c 1
 397 204 391 219 383 231 c 0
 375 243 367 249 356 249 c 0
 348 249 344 239 344 218 c 2
 344 17 l 2
 344 11 342 6 339 4 c 0
 336 2 331 0 323 0 c 2
 243 0 l 2
 236 0 232 2 230 6 c 0
 228 10 227 16 227 24 c 2
 227 231 l 2
 227 244 222 251 214 251 c 0
 207 251 199 243 191 226 c 0
 183 209 176 191 173 171 c 0
 168 139 165 95 165 39 c 0
 165 25 164 15 162 9 c 0
 160 3 155 0 147 0 c 2
 58 0 l 2
 45 0 38 14 38 42 c 0
 38 86 48 125 66 158 c 0
 84 191 109 218 137 239 c 0
 165 260 196 275 228 285 c 1
 228 296 l 1
 160 372 l 2
 147 386 135 398 127 407 c 0
 119 416 112 422 109 426 c 0
 106 430 105 434 105 437 c 0
 105 444 107 449 110 451 c 0
 113 453 118 455 125 455 c 2
 453 455 l 2
 465 455 473 454 476 452 c 0
 479 450 480 443 480 435 c 0xf8
 480 431 477 426 470 418 c 0
 463 410 454 402 443 392 c 0
 432 382 422 371 412 362 c 2
 344 295 l 1
 344 285 l 1
 368 278 392 267 415 252 c 0
 438 237 458 220 476 200 c 0
 494 180 508 157 518 131 c 0
 528 105 533 78 533 50 c 0xf4
372 398 m 0xf8
 372 404 367 409 359 412 c 0
 351 415 342 417 332 417 c 2
 230 417 l 2
 218 417 211 415 206 412 c 0
 201 409 198 404 198 396 c 0
 198 385 208 370 226 349 c 0
 231 344 237 336 244 328 c 0
 251 320 257 313 264 309 c 0
 271 305 278 303 286 303 c 0
 296 303 308 310 324 325 c 0
 340 340 352 354 360 369 c 0
 368 382 372 392 372 398 c 0xf8
EndSplineSet
EndChar

StartChar: uni0470
Encoding: 1136 1136 96
Width: 698
Flags: W
HStem: 0 21G<276.5 416> 148 47<225 268 428 478.671> 406 149<553.455 608> 629 20G<279 421>
VStem: 268 160<0 148 196 649> 544 130<474.798 530.624>
LayerCount: 2
Fore
SplineSet
540 232 m 1
 538 198 530 175 518 164 c 0
 506 153 489 148 470 148 c 2
 428 148 l 1
 428 16 l 2
 428 5 422 0 410 0 c 2
 281 0 l 2
 272 0 267 6 268 18 c 2
 268 148 l 1
 86 148 l 1
 19 571 l 1
 171 571 l 1
 225 195 l 1
 268 195 l 1
 268 636 l 2
 268 644 273 649 285 649 c 2
 417 649 l 2
 425 649 429 644 428 635 c 2
 428 196 l 1
 454 196 l 2
 464 196 472 200 479 209 c 0
 486 218 489 231 490 248 c 1
 493 317 499 374 508 419 c 0
 517 464 529 499 544 521 c 0
 559 543 577 555 598 555 c 0
 618 555 633 552 644 548 c 0
 655 544 664 539 668 531 c 0
 672 523 674 514 674 502 c 0
 674 447 670 405 662 377 c 0
 654 349 645 335 637 335 c 0
 626 335 618 339 611 347 c 0
 604 355 599 364 596 376 c 1
 594 384 591 392 584 398 c 0
 577 404 572 406 564 406 c 0
 559 406 555 398 553 382 c 0
 551 366 549 347 547 322 c 0
 545 297 542 267 540 232 c 1
EndSplineSet
EndChar

StartChar: uni0471
Encoding: 1137 1137 97
Width: 535
Flags: W
HStem: 0 40<153 205 332 384> 337 131<46 119.247 417.754 491>
VStem: 141 27<142.648 316.378> 205 127<-266.948 -0.0581055 40 616.858> 369 27<138.664 319.903>
CounterMasks: 1 38
LayerCount: 2
Fore
SplineSet
225 -267 m 2
 212 -267 205 -259 205 -241 c 2
 205 -13 l 2
 205 -5 197 0 180 0 c 2
 78 0 l 2
 61 0 53 6 53 18 c 0
 53 21 59 29 71 42 c 0
 83 55 93 69 102 82 c 0
 111 95 120 116 128 141 c 0
 136 166 141 196 141 230 c 0
 141 274 138 304 131 317 c 0
 124 330 113 337 96 337 c 0
 84 337 74 331 64 319 c 0
 58 311 53 306 50 303 c 0
 47 300 42 298 37 298 c 0
 32 298 26 308 22 329 c 0
 18 350 16 369 16 387 c 0
 16 416 18 437 23 449 c 0
 28 461 38 468 54 468 c 0
 97 468 127 450 143 412 c 0
 159 374 167 325 168 263 c 0
 170 163 165 88 153 40 c 1
 205 40 l 1
 205 603 l 2
 205 609 206 614 208 617 c 0
 210 620 213 621 221 621 c 2
 316 621 l 2
 324 621 327 619 329 617 c 0
 331 615 332 610 332 603 c 2
 332 40 l 1
 384 40 l 1
 372 88 367 162 369 263 c 0
 370 325 378 374 394 412 c 0
 410 450 440 468 483 468 c 0
 499 468 509 461 514 449 c 0
 519 437 521 416 521 387 c 0
 521 369 519 348 515 328 c 0
 511 308 506 298 500 298 c 0
 496 298 492 299 490 301 c 0
 488 303 484 305 482 308 c 0
 480 311 476 315 473 319 c 0
 463 331 453 337 441 337 c 256
 429 337 421 334 415 329 c 0
 409 324 404 313 401 298 c 0
 398 283 396 261 396 230 c 0
 396 196 400 167 408 142 c 0
 416 117 426 98 436 83 c 0
 446 68 457 54 468 42 c 0
 479 30 484 21 484 18 c 0
 484 6 476 0 459 0 c 2
 357 0 l 2
 340 0 332 -5 332 -13 c 2
 332 -241 l 2
 332 -258 325 -266 312 -267 c 2
 225 -267 l 2
EndSplineSet
EndChar

StartChar: uni046E
Encoding: 1134 1134 98
Width: 495
Flags: W
HStem: 0 42<40.3682 146.07 188 319.839> 497 152<76.3076 212.383> 509 39<227.57 298> 519 121<385.113 462.53>
VStem: 22 191<569.658 641.762> 265 155<194.262 280> 335 146<-120.797 -14.1507>
LayerCount: 2
Fore
SplineSet
481 -88 m 0x9a
 481 -126 467 -154 438 -172 c 0
 409 -190 374 -200 333 -200 c 0
 297 -200 279 -190 279 -172 c 0
 279 -162 287 -149 305 -131 c 1
 325 -109 335 -90 335 -72 c 0x9a
 335 -24 312 0 266 0 c 2
 69 0 l 2
 62 0 56 2 49 5 c 0
 42 8 40 12 40 17 c 0
 40 27 46 34 58 38 c 0
 70 42 91 46 119 50 c 1
 162 68 197 90 224 118 c 0
 251 146 265 177 265 210 c 0
 265 228 257 242 244 254 c 0
 231 266 214 275 193 282 c 0
 172 289 152 292 131 292 c 0
 119 292 105 290 93 286 c 0
 85 284 78 285 71 291 c 0
 64 297 61 302 61 309 c 0
 61 311 79 325 115 352 c 0
 151 379 186 404 219 431 c 0
 252 458 279 484 298 509 c 1
 268 509 l 1xac
 223 501 184 497 151 497 c 0
 129 497 108 502 88 512 c 0
 68 522 52 537 40 555 c 0
 28 573 22 592 22 612 c 0
 22 627 24 637 27 642 c 0
 30 647 36 649 44 649 c 2
 188 649 l 2xcc
 206 649 214 639 213 618 c 0
 212 600 217 583 225 569 c 0
 233 555 248 548 269 548 c 2
 332 548 l 1xac
 346 570 361 592 378 611 c 0
 395 630 411 640 426 640 c 0
 441 640 453 635 463 626 c 0
 473 617 478 604 478 589 c 0
 478 573 473 557 464 542 c 0
 455 527 443 520 428 519 c 1
 421 520 413 520 401 519 c 0
 389 518 380 515 374 510 c 1
 356 496 332 479 304 457 c 0
 276 435 262 424 260 424 c 1
 282 422 299 419 311 414 c 0
 323 409 337 402 351 394 c 1
 371 382 388 365 401 342 c 0
 414 319 420 293 420 267 c 0x9c
 420 238 410 210 392 184 c 0
 374 158 347 135 312 113 c 0
 277 91 234 71 186 50 c 1
 188 42 l 1
 321 42 l 2
 346 42 370 39 394 32 c 0
 418 25 439 11 456 -8 c 0
 473 -27 481 -54 481 -88 c 0x9a
EndSplineSet
EndChar

StartChar: uni046F
Encoding: 1135 1135 99
Width: 345
Flags: W
HStem: 0 29<25.1724 80.1123 129 221.453> 348 107<41.5511 145.464> 356 28<154.863 206> 363 85<260.319 321.672>
VStem: 13 133<398.47 455> 183 109<126.095 196> 232 102<-91.6174 -5.42423>
LayerCount: 2
Fore
SplineSet
334 -62 m 0x9a
 334 -88 323 -108 303 -121 c 0
 283 -134 258 -140 230 -140 c 0
 205 -140 192 -133 193 -121 c 0
 193 -114 199 -104 211 -91 c 0
 225 -76 232 -62 232 -50 c 0x9a
 232 -17 216 0 184 0 c 2
 45 0 l 2
 40 0 36 1 32 3 c 0
 28 5 25 9 25 12 c 0
 25 20 29 25 38 27 c 0
 47 29 62 33 81 35 c 1
 112 48 137 65 155 83 c 0
 173 101 183 123 183 147 c 0
 183 159 178 170 168 178 c 0
 158 186 147 193 133 198 c 0
 119 203 104 205 89 205 c 0
 82 205 74 203 62 201 c 1
 56 199 51 200 47 204 c 0
 43 208 40 212 40 216 c 0
 40 218 52 228 79 247 c 0
 106 266 130 285 152 303 c 0
 174 321 192 339 206 356 c 1
 185 356 l 1xac
 153 351 125 348 103 348 c 0
 78 348 57 356 39 372 c 0
 21 388 13 407 13 429 c 0
 13 441 14 448 16 451 c 0
 18 454 22 455 28 455 c 2
 129 455 l 2xcc
 141 455 147 448 146 433 c 1
 145 420 147 408 154 398 c 0
 161 388 171 384 186 384 c 2
 230 384 l 1xac
 239 399 250 415 262 428 c 0
 274 441 285 448 296 448 c 0
 308 448 315 445 322 438 c 0
 329 431 332 423 332 413 c 0
 332 401 329 391 322 380 c 0
 315 369 307 364 297 363 c 1
 290 363 290 363 278 363 c 0
 270 363 264 361 259 357 c 1
 246 347 229 334 210 319 c 0
 191 304 181 297 179 297 c 1
 194 295 206 292 215 289 c 0
 224 286 234 281 243 276 c 0
 258 268 269 255 278 239 c 0
 287 223 292 205 292 187 c 0x9c
 292 156 278 129 250 105 c 0
 222 81 181 57 127 35 c 1
 129 29 l 1
 222 29 l 2
 240 29 257 27 274 22 c 0
 291 17 305 7 317 -6 c 0
 329 -19 334 -38 334 -62 c 0x9a
EndSplineSet
EndChar

StartChar: afii10147
Encoding: 1138 1138 100
Width: 575
Flags: W
HStem: -8 47<252.031 324.003> 321 65<223 353> 621 42<252.873 323.127>
VStem: 44 179<188.917 321 386 477.177> 353 179<188.989 321 386 476.776>
LayerCount: 2
Fore
SplineSet
288 -8 m 256
 258 -8 228 0 200 16 c 0
 172 32 145 53 121 83 c 0
 97 113 77 150 64 192 c 0
 51 234 44 281 44 333 c 0
 44 385 51 431 64 472 c 0
 77 513 97 548 120 576 c 0
 143 604 170 626 199 641 c 0
 228 656 258 663 288 663 c 256
 318 663 348 656 377 641 c 0
 406 626 433 604 456 576 c 0
 479 548 499 513 512 472 c 0
 525 431 532 385 532 333 c 0
 532 281 525 234 511 191 c 0
 497 148 478 111 455 82 c 0
 432 53 406 32 377 16 c 0
 348 0 318 -8 288 -8 c 256
223 386 m 1
 353 386 l 1
 353 445 l 2
 353 495 348 538 337 571 c 0
 326 604 310 621 288 621 c 256
 266 621 250 604 239 571 c 0
 228 538 223 496 223 445 c 2
 223 386 l 1
223 321 m 1
 223 228 l 2
 223 102 245 39 288 39 c 256
 331 39 353 102 353 228 c 2
 353 321 l 1
 223 321 l 1
EndSplineSet
EndChar

StartChar: afii10195
Encoding: 1139 1139 101
Width: 582
Flags: W
HStem: -13 44<262.501 316.564> 230 39<87.7705 117 249 333 459 486.201> 422 46<262.812 318.446>
VStem: 117 132<108.481 227 269 351.445> 333 126<102.272 230 272 364.456>
LayerCount: 2
Fore
SplineSet
567 240 m 0
 567 238 565 230 561 217 c 0
 557 204 554 192 552 181 c 0
 550 164 546 149 543 136 c 0
 540 123 535 115 530 115 c 0
 526 115 520 123 512 138 c 0
 504 153 500 166 498 177 c 0
 497 182 494 190 489 203 c 0
 484 216 481 226 480 231 c 1
 459 232 l 1
 459 184 452 141 438 104 c 0
 424 67 404 39 378 18 c 0
 352 -3 323 -13 288 -13 c 0
 233 -13 190 12 161 62 c 0
 132 112 117 167 117 227 c 1
 93 227 l 1
 91 222 88 212 84 198 c 0
 80 184 78 176 77 174 c 0
 67 139 59 122 53 123 c 0
 51 123 47 131 42 146 c 0
 37 161 32 176 30 191 c 0
 28 202 26 214 21 227 c 0
 13 246 l 0
 13 255 15 262 18 264 c 0
 21 266 27 268 35 268 c 2
 119 268 l 1
 119 290 122 308 127 322 c 0
 132 336 139 354 150 375 c 0
 182 437 230 468 292 468 c 0
 311 468 331 463 352 451 c 0
 373 439 391 425 408 406 c 0
 425 387 438 367 446 345 c 0
 456 318 461 294 459 272 c 1
 545 272 l 2
 553 272 559 270 562 267 c 0
 565 264 567 254 567 240 c 0
333 269 m 1
 333 309 l 2
 333 347 330 374 322 393 c 0
 314 412 303 422 289 422 c 0
 274 422 264 410 257 388 c 0
 250 366 246 337 246 304 c 2
 246 269 l 1
 333 269 l 1
333 130 m 2
 333 230 l 1
 249 230 l 1
 249 135 l 2
 249 110 252 86 258 64 c 0
 264 42 275 31 290 31 c 0
 305 31 315 43 322 66 c 0
 329 89 333 111 333 130 c 2
EndSplineSet
EndChar

StartChar: uni047A
Encoding: 1146 1146 102
Width: 900
Flags: W
HStem: -22 119<360.625 535.636> 575 91<324.378 619.477>
VStem: 48 153<198.105 428.366> 704 149<206.391 428.272>
LayerCount: 2
Fore
SplineSet
853 319 m 0
 853 291 850 263 843 238 c 0
 836 213 824 188 806 163 c 0
 788 138 759 113 722 88 c 0
 685 63 640 41 585 21 c 1
 573 14 557 8 539 1 c 0
 521 -6 504 -12 487 -16 c 0
 470 -20 457 -22 447 -22 c 0
 427 -22 407 -19 387 -13 c 0
 367 -7 352 -2 341 6 c 1
 269 21 203 54 141 103 c 0
 79 152 48 225 48 321 c 0
 48 359 56 398 74 439 c 0
 92 480 120 518 159 552 c 0
 198 586 250 612 313 627 c 1
 328 633 343 639 359 645 c 0
 375 651 391 656 409 660 c 0
 427 664 445 666 466 666 c 0
 481 666 502 663 529 657 c 0
 556 651 578 645 596 637 c 1
 624 629 653 616 682 598 c 0
 711 580 739 557 766 529 c 0
 793 501 813 470 829 434 c 0
 845 398 853 361 853 319 c 0
704 302 m 0
 704 484 662 574 579 575 c 0
 569 575 555 571 537 563 c 0
 515 552 494 547 476 547 c 0
 466 547 456 548 448 550 c 0
 440 552 430 555 419 559 c 0
 408 563 401 566 399 568 c 0
 380 576 360 581 340 581 c 0
 292 581 256 557 234 507 c 0
 212 457 201 397 201 327 c 0
 201 292 203 260 208 229 c 0
 213 198 220 171 230 147 c 0
 240 123 252 102 268 89 c 0
 284 76 302 69 324 69 c 0
 336 69 345 70 352 72 c 0
 359 74 366 78 377 83 c 0
 395 91 417 96 445 97 c 0
 460 97 478 94 500 87 c 1
 521 81 541 78 563 78 c 256
 585 78 604 85 622 98 c 0
 640 111 655 128 667 149 c 0
 679 170 687 193 694 220 c 0
 701 247 704 274 704 302 c 0
EndSplineSet
EndChar

StartChar: uni047B
Encoding: 1147 1147 103
Width: 617
Flags: W
HStem: -36 104<258.129 354.7> 387 103<261.802 360.221>
VStem: 44 135<127.088 320.896> 439 135<140.58 331.838>
LayerCount: 2
Fore
SplineSet
574 239 m 0
 574 204 566 172 553 142 c 0
 540 112 523 88 501 67 c 0
 479 46 457 30 432 18 c 0
 407 6 385 1 364 1 c 1
 352 -24 335 -36 310 -36 c 0
 296 -36 283 -32 271 -24 c 0
 259 -16 250 -8 248 0 c 1
 223 0 197 5 174 16 c 0
 151 27 128 42 108 63 c 0
 88 84 73 108 61 138 c 0
 49 168 44 200 44 235 c 0
 44 263 51 290 64 317 c 0
 77 344 95 367 117 388 c 0
 139 409 162 425 186 437 c 0
 210 449 232 454 251 454 c 1
 253 463 260 471 272 479 c 0
 284 487 297 490 312 490 c 0
 326 490 338 486 348 479 c 0
 358 472 365 464 369 454 c 1
 397 454 428 444 460 426 c 0
 492 408 520 381 542 349 c 0
 564 317 574 280 574 239 c 0
439 234 m 0
 439 269 432 304 420 338 c 0
 408 372 388 397 362 413 c 1
 358 396 341 388 311 387 c 0
 283 387 266 395 260 413 c 1
 232 398 211 373 198 339 c 0
 185 305 179 266 179 221 c 0
 179 183 185 146 198 113 c 0
 211 80 231 56 256 41 c 1
 261 59 279 68 308 68 c 0
 320 68 332 66 342 62 c 0
 352 58 357 51 359 42 c 1
 384 54 402 69 414 89 c 0
 426 109 434 129 436 149 c 0
 438 169 439 197 439 234 c 0
EndSplineSet
EndChar

StartChar: afii10060
Encoding: 1035 1035 104
Width: 644
Flags: W
HStem: 0 21G<210 347 456.5 589.5> 279 52<364.189 408.569> 616 33<156.94 195.31 357.045 393.06>
VStem: 74 25<379.094 452.722> 196 161<6.14355 271.766 331 615.988> 443 161<6.14356 194.837> 451 24<379.094 448.889>
LayerCount: 2
Fore
SplineSet
357 598 m 1xfa
 357 331 l 1
 419 331 467 320 503 298 c 0
 539 276 565 243 581 199 c 0
 597 155 604 98 604 28 c 0
 604 16 602 9 600 6 c 0
 598 3 593 0 586 0 c 2
 463 0 l 2
 450 0 443 9 443 27 c 0xfc
 443 77 441 119 437 152 c 0
 433 185 428 213 421 231 c 0
 414 249 408 261 401 268 c 0
 394 275 388 279 382 279 c 0
 374 279 368 277 364 272 c 0
 360 267 357 262 357 254 c 2
 357 18 l 2
 357 6 352 0 342 0 c 2
 213 0 l 2
 207 0 202 3 200 6 c 0
 198 9 196 16 196 25 c 2
 196 588 l 1
 196 600 195 616 180 616 c 0
 168 616 156 604 146 579 c 0
 136 554 128 527 121 498 c 0
 114 469 107 431 99 385 c 0
 99 383 97 381 95 379 c 0
 93 377 89 376 86 376 c 0
 84 376 80 377 78 379 c 0
 76 381 75 384 74 386 c 0
 72 418 68 446 63 468 c 0
 58 490 51 514 43 537 c 0
 39 549 32 564 23 584 c 0
 14 604 10 617 10 622 c 0
 10 634 12 641 15 644 c 0
 18 647 24 649 36 649 c 2
 208 649 l 1
 341 649 l 1
 514 649 l 2
 526 649 533 646 536 643 c 0
 539 640 540 633 540 622 c 0
 540 617 535 604 526 584 c 0
 517 564 510 549 506 537 c 0
 497 510 490 487 486 466 c 0
 482 445 478 418 475 386 c 0
 475 384 474 381 472 379 c 0
 470 377 466 376 463 376 c 0
 461 376 458 377 456 379 c 0
 454 381 452 383 451 385 c 0
 443 430 436 468 429 498 c 0
 422 528 414 554 404 579 c 0
 394 604 382 616 370 616 c 0
 364 616 357 609 357 598 c 1xfa
EndSplineSet
EndChar

StartChar: afii10108
Encoding: 1115 1115 105
Width: 407
Flags: W
HStem: 0 21G<64.5 165 256 348> 221 31<176 210.452> 326 49<12 49 176 265> 435 20G<62 161>
VStem: 49 127<0.023407 221 252 326 375 448.858> 241 127<0.185394 173.172>
LayerCount: 2
Fore
SplineSet
176 326 m 1
 176 252 l 1
 204 252 233 247 263 237 c 0
 293 227 318 209 338 185 c 0
 358 161 368 129 368 91 c 0
 368 57 365 33 362 20 c 0
 359 7 352 0 344 0 c 2
 263 0 l 2
 249 0 242 7 241 22 c 2
 241 102 l 2
 241 134 235 161 224 185 c 0
 213 209 198 221 176 221 c 1
 176 23 l 2
 176 8 171 0 159 0 c 2
 72 0 l 2
 57 0 49 7 49 22 c 2
 49 326 l 1
 12 326 l 1
 12 375 l 1
 49 375 l 1
 49 433 l 2
 49 441 50 446 52 449 c 0
 54 452 59 455 65 455 c 2
 157 455 l 2
 165 455 170 453 172 450 c 0
 174 447 176 441 176 433 c 2
 176 375 l 1
 265 375 l 1
 265 326 l 1
 176 326 l 1
EndSplineSet
EndChar

StartChar: uni0481
Encoding: 1153 1153 106
Width: 438
Flags: W
HStem: -13 54<226.119 287.771> 417 51<214.862 278.071>
VStem: 39 142<102.839 342.455> 290 119<312.423 408.009> 296 98<46.912 116.619>
LayerCount: 2
Fore
SplineSet
409 347 m 0xf0
 409 332 405 321 396 312 c 0
 387 303 375 298 360 298 c 0
 313 298 290 315 290 347 c 0xf0
 290 365 286 382 278 396 c 0
 270 410 260 417 248 417 c 0
 235 417 223 409 213 393 c 0
 203 377 195 354 189 325 c 0
 183 296 181 260 181 218 c 0
 181 186 186 156 194 128 c 0
 202 100 213 79 225 64 c 0
 237 49 247 41 255 41 c 0
 267 41 276 46 284 57 c 0
 292 68 296 78 296 90 c 0
 296 99 300 108 308 116 c 0
 316 124 324 128 332 128 c 0
 357 128 374 125 382 117 c 0
 390 109 394 93 394 71 c 0xe8
 394 57 389 43 380 30 c 0
 371 17 358 4 340 -8 c 1
 338 -72 329 -126 316 -169 c 0
 303 -212 287 -234 269 -234 c 0
 248 -234 233 -233 223 -231 c 0
 213 -229 205 -224 202 -218 c 0
 199 -212 197 -203 197 -191 c 0
 197 -180 200 -168 208 -156 c 0
 216 -144 227 -129 239 -113 c 0
 251 -97 262 -84 270 -72 c 0
 278 -60 283 -49 285 -40 c 2
 291 -13 l 1
 244 -13 204 -8 172 3 c 0
 140 14 113 30 94 50 c 0
 75 70 60 95 52 124 c 0
 44 153 39 187 39 225 c 0
 39 267 47 306 61 343 c 0
 75 380 97 410 128 433 c 0
 159 456 198 468 245 468 c 0
 267 468 287 467 301 465 c 0
 315 463 327 460 337 457 c 0
 347 454 355 449 362 443 c 0
 369 437 375 431 383 423 c 1
 401 401 409 375 409 347 c 0xf0
EndSplineSet
EndChar

StartChar: uni0482
Encoding: 1154 1154 107
Width: 311
Flags: W
VStem: 40 59<-80.7556 31.1581>
LayerCount: 2
Fore
SplineSet
167 140 m 1
 142 106 l 1
 151 100 161 91 172 79 c 0
 183 67 189 58 189 50 c 256
 189 42 187 35 181 27 c 0
 175 19 169 15 161 15 c 0
 148 15 131 23 113 40 c 1
 104 33 99 17 99 -11 c 0
 99 -39 107 -63 122 -83 c 1
 139 -105 147 -122 147 -132 c 256
 147 -143 142 -151 133 -159 c 0
 124 -167 112 -171 98 -171 c 0
 77 -171 62 -160 53 -138 c 0
 44 -116 40 -91 40 -59 c 0
 40 -31 46 -5 56 18 c 0
 66 41 74 56 80 61 c 1
 69 67 61 73 54 77 c 0
 47 81 43 86 40 92 c 0
 37 98 35 105 35 113 c 0
 35 121 37 129 42 136 c 0
 47 143 54 146 62 146 c 0
 80 146 96 139 111 125 c 1
 136 161 l 1
 104 180 89 197 89 211 c 0
 89 219 92 225 100 232 c 0
 108 239 116 242 125 242 c 0
 135 242 152 234 174 216 c 1
 192 232 213 247 238 262 c 0
 263 277 279 285 287 285 c 0
 292 285 295 282 298 278 c 0
 301 274 303 270 303 267 c 0
 303 260 290 249 264 233 c 0
 238 217 220 203 208 191 c 1
 233 173 245 158 244 145 c 0
 244 133 242 124 236 118 c 0
 230 112 224 110 217 110 c 0
 209 111 192 121 167 140 c 1
EndSplineSet
EndChar

StartChar: afii10101
Encoding: 1108 1108 108
Width: 459
Flags: W
HStem: -9 34<207.583 308.189> 210 53<184 381> 438 28<209.385 308.177>
VStem: 39 145<115.271 210 263 330.911> 316 107<60.5093 129.766 346.281 412.702>
LayerCount: 2
Fore
SplineSet
425 121 m 0
 425 106 418 88 406 67 c 0
 393 47 372 29 344 13 c 0
 316 -2 280 -9 236 -9 c 0
 214 -9 192 -4 168 6 c 0
 145 15 123 32 104 51 c 0
 84 71 68 97 56 126 c 0
 45 155 39 189 39 225 c 0
 39 272 50 314 70 350 c 0
 90 386 119 415 154 435 c 0
 190 456 230 466 274 466 c 0
 299 466 323 461 347 451 c 0
 371 440 388 427 402 412 c 0
 416 396 423 381 423 365 c 0
 423 348 414 339 399 339 c 2
 341 339 l 2
 334 339 329 341 323 346 c 0
 318 352 316 358 316 364 c 2
 316 407 l 2
 316 418 312 425 306 429 c 0
 295 438 277 438 256 438 c 0
 223 438 194 422 188 391 c 0
 185 377 184 363 184 349 c 2
 184 282 l 2
 184 277 186 272 189 268 c 0
 191 264 196 263 201 263 c 2
 381 263 l 1
 381 263 405 263 405 235 c 0
 405 210 381 210 381 210 c 1
 203 210 l 2
 190 210 184 203 184 189 c 2
 184 102 l 2
 184 54 212 25 256 25 c 0
 278 25 298 30 310 43 c 0
 316 50 320 60 320 74 c 2
 320 116 l 2
 320 121 323 125 326 130 c 0
 330 135 334 136 340 136 c 2
 406 136 l 2
 411 136 415 135 419 132 c 0
 422 128 425 125 425 121 c 0
EndSplineSet
EndChar

StartChar: afii10053
Encoding: 1028 1028 109
Width: 627
Flags: W
HStem: -13 49<287.612 426.677> 307 61<258.189 536> 625 41<286.294 428.809>
VStem: 44 208<189.953 306.817 376.281 451.625> 439 154<487.063 577.688> 446 149<105.407 185.673>
LayerCount: 2
Fore
SplineSet
595 173 m 0xf4
 595 151 585 125 568 96 c 0
 550 67 520 41 480 19 c 0
 440 -3 389 -13 325 -13 c 0
 294 -13 263 -6 229 8 c 0
 195 22 164 45 136.5 73 c 0
 109 101 85 138 69 180 c 0
 53 222 44 270 44 322 c 0
 44 388 59 448 88 500 c 0
 116 552 158 593 209 622 c 0
 260 651 316 666 380 666 c 0
 415 666 450 659 484 644 c 0
 518 629 543 610 563 588 c 0
 583 566 593 544 593 522 c 0
 593 497 580 484 558 484 c 2
 475 484 l 2
 465 484 458 487 450 495 c 0
 443 503 439 511 439 520 c 2
 439 581 l 2xf8
 439 597 434 607 426 613 c 0
 410 625 384 625 354 625 c 0
 306 625 265 602 256 558 c 0
 253 539 252 519 252 499 c 2
 252 395 l 2
 252 388 254 382 258 376 c 0
 262 370 268 368 275 368 c 2
 536 368 l 1
 536 368 566 368 566 336 c 0
 566 308 538 307 538 307 c 1
 278 307 l 2
 260 307 252 297 252 277 c 2
 252 146 l 2
 252 77 291 36 354 36 c 0
 386 36 414 43 431 61 c 0
 440 72 446 86 446 105 c 2
 446 165 l 2
 446 173 450 179 454 186 c 0
 460 193 466 195 474 195 c 2
 568 195 l 2
 575 195 582 193 586 188 c 0
 592 183 595 178 595 173 c 0xf4
EndSplineSet
EndChar

StartChar: uni0487
Encoding: 1159 1159 110
Width: 3
Flags: W
HStem: 796 38<-619 -547.715 -66.5066 3>
LayerCount: 2
Fore
SplineSet
-308 966 m 1
 -308 966 -347 911 -436 859 c 0
 -484 832 -561 796 -619 796 c 1
 -619 834 l 1
 -599 834 -525 855 -458 892 c 0
 -394 928 -308 1016 -308 1016 c 1
 -308 1016 -224 936 -161 898 c 0
 -89 855 -21 836 3 834 c 1
 3 796 l 1
 -36 796 -107 822 -181 866 c 0
 -260 914 -308 966 -308 966 c 1
EndSplineSet
EndChar

StartChar: uni0483
Encoding: 1155 1155 111
Width: 1
Flags: W
HStem: 533 141<-133.667 -68> 620 57<-56.6228 63.8579> 625 140<69 133.668>
VStem: -144 76<533 611.716> 69 75<693.284 765>
LayerCount: 2
Fore
SplineSet
-93 674 m 2x98
 22 677 l 2x58
 33 677 42 679 49 681 c 0
 56 683 61 687 64 693 c 0
 67 699 69 709 69 721 c 2
 69 765 l 1
 144 765 l 1
 144 699 l 2
 144 670 141 650 134 641 c 0
 127 632 115 627 97 625 c 2x38
 -23 620 l 1x58
 -38 620 -49 618 -57 612 c 0
 -65 606 -68 596 -68 583 c 2
 -68 533 l 1
 -144 533 l 1
 -144 606 l 2
 -144 628 -141 644 -134 656 c 0
 -127 668 -114 674 -93 674 c 2x98
EndSplineSet
EndChar

StartChar: uni0484
Encoding: 1156 1156 112
Width: 1
Flags: W
HStem: 774 74<-99.0688 21.1776>
VStem: 36 39<714 756.056>
LayerCount: 2
Fore
SplineSet
71 714 m 1
 36 714 l 1
 36 754 4 774 -47 774 c 0
 -70 774 -94 769 -117 759 c 0
 -145 748 -163 733 -170 714 c 1
 -210 714 l 1
 -191 751 -165 782 -130 807 c 0
 -93 834 -55 848 -16 848 c 0
 13 848 35 840 51 822 c 0
 67 805 75 783 75 754 c 0
 75 742 74 729 71 714 c 1
EndSplineSet
EndChar

StartChar: afii10047
Encoding: 1069 1069 113
Width: 520
Flags: W
HStem: -13 49<208.3 264.592> 307 63<83.5222 273.858> 314 47<67.1327 140.646 145.4 273.858> 625 41<206.214 260.768>
VStem: 44 150<96.4702 194.976> 46 155<485.04 584.834> 279 206<174.127 314 369.281 464.747>
LayerCount: 2
Fore
SplineSet
44 173 m 0xba
 44 178 47 183 51 188 c 0
 55 193 60 195 66 195 c 2
 171 195 l 2
 178 195 183 193 187 186 c 0
 191 179 194 173 194 165 c 2
 194 105 l 2
 194 90 199 74 207 59 c 0
 215 44 225 36 237 36 c 0
 251 36 261 46 268 66 c 0
 275 86 279 113 279 146 c 2
 279 284 l 2
 279 304 272 314 258 314 c 2
 208 314 l 1xba
 196 309 174 307 144 307 c 0
 114 307 94 309 83 313 c 0
 72 317 67 326 67 339 c 0
 67 351 72 358 82 363 c 0
 92 368 113 370 142 370 c 0xda
 167 369 190 366 211 361 c 1
 260 361 l 2
 266 361 271 363 274 369 c 0
 277 375 279 381 279 388 c 2
 279 499 l 2
 279 519 278 539 275 558 c 0
 272 577 268 594 261 606 c 0
 254 618 246 625 237 625 c 0
 222 625 213 621 208 613 c 0
 203 605 201 595 201 581 c 2
 201 520 l 2
 201 511 198 503 192 495 c 0
 186 487 180 484 172 484 c 2
 74 484 l 2
 56 484 46 497 46 522 c 0xb6
 46 544 54 566 70 588 c 0
 86 610 106 629 133 644 c 0
 160 659 188 666 216 666 c 0
 267 666 312 651 353 622 c 0
 394 593 427 552 450 500 c 0
 473 448 485 388 485 322 c 0
 485 270 478 222 465 180 c 0
 452 138 433 101 411 73 c 0
 389 45 364 22 337 8 c 0
 310 -6 285 -13 260 -13 c 0
 209 -13 168 -3 136 19 c 0
 104 41 80 67 66 96 c 0
 52 125 44 151 44 173 c 0xba
EndSplineSet
EndChar

StartChar: afii10095
Encoding: 1101 1101 114
Width: 422
Flags: W
HStem: -13 43<174.398 233.263> 202 53<73.2373 243.812> 419 49<176.981 230.815>
VStem: 39 131<38.484 125.809> 50 121<333.235 415.564> 250 137<106.831 339.63>
LayerCount: 2
Fore
SplineSet
39 99 m 0xf4
 39 113 41 122 45 126 c 0
 49 130 57 132 69 132 c 2
 144 132 l 2
 162 132 170 115 170 82 c 0xf4
 170 47 180 30 200 30 c 0
 217 30 230 40 238 59 c 0
 246 78 250 111 250 158 c 0
 250 172 248 183 244 191 c 0
 240 199 235 202 228 202 c 2
 99 202 l 2
 87 202 78 204 73 208 c 0
 68 212 65 220 65 229 c 0
 65 247 77 255 101 255 c 2
 222 255 l 2
 240 255 250 271 250 303 c 0
 250 346 245 376 234 393 c 0
 223 410 211 419 199 419 c 0
 181 419 171 397 171 352 c 0
 171 344 170 338 167 333 c 0
 164 328 157 326 147 326 c 2
 65 326 l 2
 55 325 50 335 50 357 c 0xec
 50 375 55 391 67 409 c 0
 79 427 94 441 116 452 c 0
 138 463 161 468 187 468 c 0
 218 468 245 461 270 448 c 0
 295 435 316 417 334 394 c 0
 352 371 365 345 374 316 c 0
 383 287 387 256 387 224 c 0
 387 182 380 143 365 106 c 0
 350 69 328 41 298 19 c 0
 268 -3 234 -13 192 -13 c 0
 158 -13 129 -8 107 3 c 0
 85 14 68 27 56 45 c 0
 44 63 39 81 39 99 c 0xf4
EndSplineSet
EndChar

StartChar: afii10027
Encoding: 1049 1049 115
Width: 575
Flags: W
HStem: 0 21G<81 209.5 371 500> 629 20G<84 216 368 497> 720 54<212.345 361.35>
VStem: 63 162<0.394775 81 223 648.951> 147 37<804.665 857> 351 161<7.23511 402 572 642.81> 387 43<799.876 857>
LayerCount: 2
Fore
SplineSet
291 774 m 0xea
 318 774 340 781 359 794 c 0
 378 807 387 828 387 857 c 1
 430 857 l 1
 430 819 418 787 395 760 c 0
 372 733 337 720 291 720 c 0
 242 720 206 733 182 759 c 0
 158 785 147 818 147 857 c 1
 184 857 l 1
 184 828 194 807 215 794 c 0
 236 781 262 774 291 774 c 0xea
512 25 m 2xf4
 512 8 506 0 494 0 c 2
 374 0 l 2
 368 0 363 2 358 7 c 0
 353 12 351 18 351 26 c 2
 351 402 l 1
 225 81 l 1
 225 21 l 1
 224 7 217 0 202 0 c 2
 90 0 l 2
 72 0 63 11 63 33 c 2
 63 624 l 2
 63 642 70 650 84 649 c 2
 212 649 l 2
 220 649 224 641 225 624 c 2
 225 223 l 1
 351 572 l 1
 351 625 l 2
 351 635 352 641 354 644 c 0
 356 647 363 649 373 649 c 2
 493 649 l 2
 501 649 506 647 508 643 c 0
 510 639 512 632 512 622 c 2
 512 25 l 2xf4
EndSplineSet
EndChar

StartChar: afii10075
Encoding: 1081 1081 116
Width: 460
Flags: W
HStem: 0 21G<66.5 158 295 396> 435 20G<63.5 166 297 394> 550 54<152.345 301.35>
VStem: 49 127<9.14209 102 190 450.856> 87 37<634.665 687> 283 127<6.14282 285 368 449.856> 327 43<629.876 687>
LayerCount: 2
Fore
SplineSet
231 604 m 0xea
 258 604 280 611 299 624 c 0
 318 637 327 658 327 687 c 1
 370 687 l 1
 370 649 358 617 335 590 c 0
 312 563 277 550 231 550 c 0
 182 550 146 563 122 589 c 0
 98 615 87 648 87 687 c 1
 124 687 l 1
 124 658 134 637 155 624 c 0
 176 611 202 604 231 604 c 0xea
176 190 m 1xf4
 283 368 l 1
 283 435 l 2
 283 442 285 447 287 450 c 0
 289 453 294 455 300 455 c 2
 390 455 l 2
 398 455 404 453 406 450 c 0
 408 447 410 440 410 431 c 2
 410 26 l 2
 410 8 403 0 389 0 c 2
 298 0 l 2
 292 0 288 3 286 6 c 0
 284 9 283 15 283 23 c 2
 283 285 l 1
 176 102 l 1
 176 21 l 2
 176 13 174 7 171 4 c 0
 168 1 162 0 154 0 c 2
 69 0 l 2
 64 0 61 0 58 2 c 0
 55 4 53 6 51 9 c 0
 49 12 49 17 49 24 c 2
 49 432 l 2
 49 441 51 448 53 451 c 0
 55 454 60 455 67 455 c 2
 161 455 l 2
 171 455 176 447 176 432 c 2
 176 190 l 1xf4
EndSplineSet
EndChar

StartChar: afii10057
Encoding: 1032 1032 117
Width: 287
Flags: W
VStem: -68 48<-180.651 -55.1882> 65 162<-201.077 648>
LayerCount: 2
Fore
SplineSet
227 634 m 2
 227 -218 l 2
 227 -227 224 -239 219 -252 c 0
 214 -265 208 -277 201 -288 c 1
 192 -300 179 -310 163 -319 c 0
 147 -328 129 -333 111 -333 c 0
 67 -333 28 -318 -5 -288 c 0
 -22 -273 -37 -247 -51 -211 c 1
 -63 -180 -68 -150 -68 -119 c 2
 -68 -69 l 2
 -68 -64 -66 -59 -61 -55 c 0
 -56 -51 -50 -49 -45 -49 c 0
 -39 -49 -33 -51 -28 -54 c 0
 -23 -57 -20 -63 -20 -69 c 0
 -20 -99 -17 -126 -11 -151 c 1
 -9 -161 -4 -172 4 -184 c 0
 12 -196 22 -202 34 -202 c 0
 55 -203 65 -185 65 -148 c 2
 65 632 l 2
 65 637 67 640 70 643 c 0
 73 646 77 648 82 648 c 2
 207 648 l 2
 211 648 215 646 220 643 c 0
 225 640 227 637 227 634 c 2
EndSplineSet
EndChar

StartChar: afii10105
Encoding: 1112 1112 118
Width: 169
Flags: W
HStem: -243 91<-18.0144 78> 435 20G<31 135>
VStem: -78 38<-140.504 -48.1322> 20 127<-151.991 450.905>
LayerCount: 2
Fore
SplineSet
147 445 m 2
 147 -154 l 2
 147 -177 140 -198 127 -216 c 0
 114 -234 92 -243 64 -243 c 0
 27 -243 -1 -235 -22 -218 c 0
 -43 -201 -58 -181 -66 -159 c 0
 -74 -137 -78 -115 -78 -96 c 2
 -78 -62 l 2
 -78 -59 -75 -55 -72 -52 c 0
 -69 -49 -65 -48 -62 -48 c 0
 -57 -48 -52 -49 -47 -52 c 0
 -42 -55 -40 -59 -40 -62 c 0
 -40 -94 -36 -117 -28 -131 c 0
 -20 -145 -12 -152 -1 -152 c 0
 13 -152 20 -140 20 -115 c 2
 20 443 l 2
 20 445 22 449 24 451 c 0
 26 453 30 455 32 455 c 2
 134 455 l 2
 136 455 140 454 143 452 c 0
 146 450 147 447 147 445 c 2
EndSplineSet
EndChar

StartChar: uni0476
Encoding: 1142 1142 119
Width: 600
Flags: W
HStem: 0 21G<211 378> 629 20G<40 199.5 475 548>
VStem: 500 64<413.299 482.634>
LayerCount: 2
Fore
SplineSet
402 692 m 1
 286 916 l 1
 392 916 l 1
 431 691 l 1
 402 692 l 1
238 694 m 1
 122 919 l 1
 229 919 l 1
 268 693 l 1
 238 694 l 1
398 29 m 0
 398 10 388 0 368 0 c 2
 220 0 l 2
 202 0 192 8 187 24 c 2
 30 581 l 2
 28 587 26 594 24 601 c 0
 22 608 20 614 20 619 c 0
 20 640 27 650 40 649 c 2
 196 649 l 2
 203 649 208 647 213 643 c 0
 218 639 221 634 223 627 c 2
 340 168 l 1
 347 288 l 2
 350 346 358 402 368 457 c 0
 378 512 393 557 413 594 c 0
 433 631 459 649 491 649 c 2
 544 649 l 2
 552 649 559 644 561 636 c 0
 563 628 564 616 564 601 c 2
 564 476 l 2
 564 428 559 404 548 404 c 0
 536 404 525 408 517 418 c 0
 509 428 502 440 500 452 c 0
 498 462 494 470 486 477 c 0
 478 484 470 487 462 487 c 0
 454 487 446 467 436 425 c 0
 426 383 418 336 410 284 c 0
 407 262 405 244 403 233 c 0
 401 222 400 197 399 159 c 0
 398 121 398 77 398 29 c 0
EndSplineSet
EndChar

StartChar: uni0477
Encoding: 1143 1143 120
Width: 423
Flags: W
HStem: 0 21G<127.5 252> 314 154<313.335 377.763> 435 20G<32 140>
VStem: 21 136<395 454.965> 237 32<117.002 249.328>
LayerCount: 2
Fore
SplineSet
292 572 m 1x98
 176 796 l 1
 282 796 l 1
 321 571 l 1
 292 572 l 1x98
128 574 m 1
 12 799 l 1
 119 799 l 1
 158 573 l 1
 128 574 l 1
269 80 m 0
 270 27 261 0 243 0 c 2
 136 0 l 2
 119 0 109 10 105 32 c 1
 21 428 l 2
 19 436 20 442 22 447 c 0
 24 452 28 455 36 455 c 2
 134 455 l 2xb8
 146 455 154 445 157 425 c 2
 207 157 l 2
 212 130 217 117 225 117 c 0
 227 117 231 120 233 128 c 0
 235 136 237 145 237 157 c 0
 237 177 239 204 241 236 c 0
 243 268 246 297 250 325 c 1
 257 363 271 397 293 425 c 0
 315 453 340 468 366 468 c 0
 378 468 386 463 388 453 c 0
 390 443 392 422 392 390 c 0
 392 370 391 354 389 343 c 0
 387 332 383 325 378 321 c 0
 373 317 365 314 355 314 c 0xd8
 321 314 299 297 289 264 c 0
 274 216 267 155 269 80 c 0
EndSplineSet
EndChar

StartChar: uni047C
Encoding: 1148 1148 121
Width: 985
Flags: W
HStem: 1 52<272.96 383.588 595.212 720.669> 436 20G<378 602.5> 606 54<286.79 366.405 610.38 693.952> 886 60<318.241 406.667>
VStem: 47 188<165.783 427.567> 287 23<839.663 869.056> 419 143<88.4167 371.808> 421 44<772.143 871.783> 752 184<181.011 438.341>
LayerCount: 2
Fore
SplineSet
936 302 m 0xfe80
 936 259 928 219 914 181 c 0
 900 143 881 112 858 85 c 0
 835 58 807 38 779 23 c 0
 751 8 693 1 665 1 c 0
 633 1 586 8 568 20 c 0
 550 32 512 52 496 80 c 1
 484 55 444 34 416 18 c 0
 388 2 326 -5 291 -5 c 0
 256 -5 202 7 167 30 c 0
 132 53 103 89 81 136 c 0
 59 183 47 239 47 306 c 0
 47 369 63 428 95 483 c 0
 127 538 166 580 213 612 c 0
 260 644 303 660 343 660 c 0
 359 660 367 652 368 637 c 0
 368 617 350 607 314 606 c 0
 304 606 292 595 279 572 c 0
 266 549 257 520 249 486 c 0
 244 467 240 446 238 424 c 0
 236 402 235 380 235 358 c 0
 235 325 235 325 235 293 c 0
 235 207 239 154 247 115 c 0
 255 76 298 56 316 56 c 0
 366 56 402 75 412 121 c 0
 419 152 420 204 419 248 c 0
 417 315 403 394 361 424 c 0
 353 430 353 443 361 449 c 0
 368 454 375 456 381 456 c 2
 599 456 l 2
 606 456 616 453 620 451 c 0
 632 444 632 430 622 425 c 0
 579 401 564 310 562 246 c 0
 561 205 562 156 567 126 c 0
 575 78 611 53 662 53 c 0
 680 53 723 65 731 88 c 0
 739 111 746 131 748 169 c 0
 750 207 752 256 752 317 c 0
 752 355 750 394 748 431 c 0
 746 468 741 496 733 515 c 1
 722 545 709 568 694 585 c 0
 679 602 664 610 652 610 c 0
 633 610 618 613 610 618 c 0
 602 623 597 631 597 643 c 0
 597 653 600 660 605 662 c 0
 610 664 618 666 627 666 c 0
 649 666 678 659 713 646 c 0
 748 633 783 611 816 583 c 0
 849 555 878 519 901 471 c 0
 924 423 936 367 936 302 c 0xfe80
603 719 m 1
 487 944 l 1
 594 944 l 1
 633 719 l 1
 603 719 l 1
421 823 m 0xfd80
 421 857 397 886 363 886 c 0
 332 886 313 868 310 842 c 1
 308 834 294 838 291 842 c 0
 288 848 287 855 287 862 c 0
 287 877 292 894 297 902 c 0
 311 926 336 946 373 946 c 0
 429 946 465 902 465 846 c 0
 465 795 439 761 412 734 c 1
 395 720 398 721 383 716 c 1
 379 716 377 723 379 727 c 0
 397 751 421 782 421 823 c 0xfd80
EndSplineSet
EndChar

StartChar: uni047D
Encoding: 1149 1149 122
Width: 689
VWidth: 699
Flags: W
HStem: 1 36<188.002 271.037 412.924 506.935> 424 38<199.204 257.754 427.284 489.061> 696 60<188.241 276.667>
VStem: 33 131<100.939 316.216> 157 23<649.663 679.056> 291 44<582.143 681.783> 293 101<56.9219 275.531> 526 129<110.761 325.186>
LayerCount: 2
Fore
SplineSet
655 211 m 0xf3
 655 181 650 154 640 127 c 0
 630 100 617 79 601 60 c 0
 585 41 565 26 545 16 c 0
 525 6 486 1 466 1 c 0
 444 1 411 6 398 14 c 0
 385 22 358 36 347 56 c 1
 339 38 311 24 291 13 c 0xe5
 271 2 228 -4 204 -4 c 0
 180 -4 141 5 117 21 c 0
 93 37 72 62 57 95 c 0
 42 128 33 167 33 214 c 0
 33 258 44 300 66 338 c 0
 88 376 116 406 149 428 c 0
 182 450 212 462 240 462 c 0
 251 462 257 456 258 446 c 0
 258 432 245 425 220 424 c 0
 213 424 204 416 195 400 c 0
 186 384 180 364 174 340 c 0
 170 327 168 312 167 297 c 0
 166 282 164 266 164 251 c 0
 164 228 164 227 164 205 c 0
 164 145 167 107 173 80 c 0
 179 53 208 39 221 39 c 0
 256 39 281 53 288 85 c 0
 293 107 294 143 293 174 c 0
 292 221 282 276 253 297 c 0
 247 301 247 310 253 314 c 0
 258 317 263 319 267 319 c 2
 419 319 l 2
 424 319 431 318 434 316 c 0
 442 311 442 302 435 298 c 0
 405 281 395 217 394 172 c 0
 393 143 394 109 397 88 c 0
 403 54 427 37 463 37 c 0
 476 37 506 46 512 62 c 0
 518 78 523 91 524 118 c 0
 525 145 526 179 526 222 c 0
 526 249 525 276 524 302 c 0
 523 328 519 347 513 360 c 1
 505 381 496 398 486 410 c 0
 476 422 464 427 456 427 c 0
 443 427 433 429 427 433 c 0
 421 437 418 442 418 450 c 0
 418 457 420 462 424 463 c 0
 428 464 433 466 439 466 c 0
 454 466 475 461 499 452 c 0
 523 443 548 428 571 408 c 0
 594 388 615 364 631 330 c 0
 647 296 655 257 655 211 c 0xf3
473 529 m 1
 357 754 l 1
 464 754 l 1
 503 529 l 1
 473 529 l 1
291 633 m 0
 291 667 267 696 233 696 c 0
 202 696 183 678 180 652 c 1
 178 644 164 648 161 652 c 0
 158 658 157 665 157 672 c 0xed
 157 687 162 704 167 712 c 0
 181 736 206 756 243 756 c 0
 299 756 335 712 335 656 c 0
 335 605 309 571 282 544 c 1
 265 530 268 531 253 526 c 1
 249 526 247 533 249 537 c 0
 267 561 291 592 291 633 c 0
EndSplineSet
EndChar

StartChar: gravecomb
Encoding: 768 768 123
Width: 1
Flags: W
HStem: 579 225
VStem: -221 146
LayerCount: 2
Fore
SplineSet
-104 579 m 5
 -221 804 l 5
 -114 804 l 5
 -75 579 l 5
 -104 579 l 5
EndSplineSet
EndChar

StartChar: acutecomb
Encoding: 769 769 124
Width: 1
Flags: W
HStem: 579 225
VStem: -221 146
LayerCount: 2
Fore
SplineSet
-191 579 m 5
 -221 579 l 5
 -182 804 l 5
 -75 804 l 5
 -191 579 l 5
EndSplineSet
EndChar

StartChar: uni0306
Encoding: 774 774 125
Width: 1
Flags: W
HStem: 550 54<-287.655 -138.65>
VStem: -353 37<634.665 687> -113 43<629.876 687>
LayerCount: 2
Fore
SplineSet
-209 604 m 4
 -182 604 -160 611 -141 624 c 4
 -122 637 -113 658 -113 687 c 5
 -70 687 l 5
 -70 649 -82 617 -105 590 c 4
 -128 563 -163 550 -209 550 c 4
 -258 550 -294 563 -318 589 c 4
 -342 615 -353 648 -353 687 c 5
 -316 687 l 5
 -316 658 -306 637 -285 624 c 4
 -264 611 -238 604 -209 604 c 4
EndSplineSet
EndChar

StartChar: uni0307
Encoding: 775 775 126
Width: 1
Flags: W
HStem: 576 130<-266.435 -175.565>
VStem: -286 130<595.565 686.435>
LayerCount: 2
Fore
SplineSet
-221 706 m 256
 -203 706 -187 699 -175 687 c 0
 -163 675 -156 659 -156 641 c 256
 -156 623 -163 607 -175 595 c 0
 -187 583 -203 576 -221 576 c 256
 -239 576 -255 583 -267 595 c 0
 -279 607 -286 623 -286 641 c 256
 -286 659 -279 675 -267 687 c 0
 -255 699 -239 706 -221 706 c 256
EndSplineSet
EndChar

StartChar: uni0308
Encoding: 776 776 127
Width: 1
Flags: W
HStem: 576 130<-364.435 -273.565 -165.389 -74.5654>
VStem: -384 130<595.565 686.435> -185 130<595.565 686.435>
LayerCount: 2
Fore
SplineSet
-319 706 m 256
 -301 706 -285 699 -273 687 c 0
 -261 675 -254 659 -254 641 c 256
 -254 623 -261 607 -273 595 c 0
 -285 583 -301 576 -319 576 c 256
 -337 576 -353 583 -365 595 c 0
 -377 607 -384 623 -384 641 c 256
 -384 659 -377 675 -365 687 c 0
 -353 699 -337 706 -319 706 c 256
-120 706 m 256
 -102 706 -86 699 -74 687 c 0
 -62 675 -55 659 -55 641 c 0
 -55 621 -59 606 -69 594 c 0
 -79 582 -96 577 -120 576 c 0
 -138 576 -153 583 -166 595 c 0
 -179 607 -185 623 -185 641 c 256
 -185 659 -178 675 -166 687 c 0
 -154 699 -138 706 -120 706 c 256
EndSplineSet
EndChar

StartChar: uni030B
Encoding: 779 779 128
Width: 1
Flags: W
HStem: 582 224
VStem: -301 309
LayerCount: 2
Fore
SplineSet
-272 582 m 1
 -301 581 l 1
 -262 806 l 1
 -156 806 l 1
 -272 582 l 1
-108 584 m 1
 -138 583 l 1
 -99 809 l 1
 8 809 l 1
 -108 584 l 1
EndSplineSet
EndChar

StartChar: uni030F
Encoding: 783 783 129
Width: 1
Flags: W
HStem: 582 224
VStem: -318 309
LayerCount: 2
Fore
SplineSet
-38 582 m 5
 -154 806 l 5
 -48 806 l 5
 -9 581 l 5
 -38 582 l 5
-202 584 m 5
 -318 809 l 5
 -211 809 l 5
 -172 583 l 5
 -202 584 l 5
EndSplineSet
EndChar

StartChar: uni0311
Encoding: 785 785 130
Width: 1
Flags: W
HStem: 646 66<-68.0135 70.9907>
VStem: -140 34<563 604.338> 106 34<563 607.402>
LayerCount: 2
Fore
SplineSet
-2 646 m 4
 -19 646 -36 642 -52 634 c 4
 -68 626 -81 615 -91 603 c 4
 -101 591 -106 577 -106 563 c 5
 -140 563 l 5
 -140 590 -135 615 -124 638 c 4
 -113 661 -97 679 -76 692 c 4
 -55 705 -30 712 -2 712 c 260
 26 712 50 705 72 692 c 4
 94 679 111 660 123 638 c 4
 135 616 140 591 140 563 c 5
 106 563 l 5
 106 587 95 606 74 622 c 4
 53 638 27 646 -2 646 c 4
EndSplineSet
EndChar

StartChar: uni033E
Encoding: 830 830 131
Width: 1
Flags: W
HStem: 514.75 222.5<-97.9164 -66.111>
VStem: -135.75 70<634.087 715.773> -98.25 70<535.464 622.238>
LayerCount: 2
Fore
SplineSet
-93.25 514.75 m 4xa0
 -102 514.75 -108.25 517.25 -113.25 522.25 c 5
 -103.25 531 -98.25 542.25 -98.25 554.75 c 4xa0
 -98.25 567.25 -104.5 588.5 -117 616 c 4
 -129.5 643.5 -135.75 661 -135.75 673.5 c 4
 -135.75 681 -134.5 687.25 -130.75 692.25 c 4
 -125.75 704.75 -117 714.75 -104.5 723.5 c 4
 -92 732.25 -79.5 737.25 -68.25 737.25 c 4
 -62 737.25 -57 736 -53.25 732.25 c 5
 -62 724.75 -65.75 714.75 -65.75 702.25 c 4xc0
 -65.75 691 -59.5 669.75 -47 641 c 4
 -34.5 612.25 -28.25 592.25 -28.25 579.75 c 4
 -28.25 563.5 -34.5 549.75 -49.5 536 c 4
 -63.25 522.25 -78.25 514.75 -93.25 514.75 c 4xa0
EndSplineSet
EndChar

StartChar: uni10FB
Encoding: 4347 4347 132
Width: 470
Flags: W
HStem: 64 130<108.565 199.435> 292 130<271.565 362.435> 499 129<93.5654 184.435>
VStem: 74 130<518.565 608.435> 89 130<83.5654 174.435> 252 130<311.565 402.435>
LayerCount: 2
Fore
SplineSet
317 422 m 256xe4
 335 422 351 415 363 403 c 0
 375 391 382 375 382 357 c 256
 382 339 375 323 363 311 c 0
 351 299 335 292 317 292 c 256
 299 292 283 299 271 311 c 0
 259 323 252 339 252 357 c 256
 252 375 259 391 271 403 c 0
 283 415 299 422 317 422 c 256xe4
154 194 m 256
 172 194 188 187 200 175 c 0
 212 163 219 147 219 129 c 256
 219 111 212 95 200 83 c 0
 188 71 172 64 154 64 c 256
 136 64 120 71 108 83 c 0
 96 95 89 111 89 129 c 256xec
 89 147 96 163 108 175 c 0
 120 187 136 194 154 194 c 256
139 628 m 256
 157 628 173 621 185 609 c 0
 197 597 204 581 204 563 c 256
 204 545 197 530 185 518 c 0
 173 506 157 499 139 499 c 256
 121 499 105 506 93 518 c 0
 81 530 74 545 74 563 c 256xf4
 74 581 81 597 93 609 c 0
 105 621 121 628 139 628 c 256
EndSplineSet
EndChar

StartChar: uni2056
Encoding: 8278 8278 133
Width: 344
Flags: W
HStem: -4 130<206.85 302.603> 156 130<46.3971 142.697> 316 130<206.85 302.603>
VStem: 30 130<173.303 269.603> 190 129<12.8503 109.15 332.85 429.15>
CounterMasks: 1 e0
LayerCount: 2
Fore
SplineSet
94 156 m 0
 58 156 30 186 30 222 c 0
 30 258 58 286 94 286 c 0
 130 286 160 258 160 222 c 0
 160 186 130 156 94 156 c 0
190 61 m 0
 190 97 219 126 255 126 c 0
 291 126 319 97 319 61 c 0
 319 25 291 -4 255 -4 c 0
 219 -4 190 25 190 61 c 0
190 381 m 0
 190 417 219 446 255 446 c 0
 291 446 319 417 319 381 c 0
 319 345 291 316 255 316 c 0
 219 316 190 345 190 381 c 0
EndSplineSet
EndChar

StartChar: uni2058
Encoding: 8280 8280 134
Width: 514
Flags: W
HStem: -4 130<206.85 302.603> 156 130<46.3971 142.697 366.397 462.697> 316 130<206.85 302.603>
VStem: 30 130<173.303 269.603> 190 129<12.8503 109.15 332.85 429.15> 350 130<173.303 269.603>
CounterMasks: 1 e0
LayerCount: 2
Fore
SplineSet
414 156 m 0
 378 156 350 186 350 222 c 0
 350 258 378 286 414 286 c 0
 450 286 480 258 480 222 c 0
 480 186 450 156 414 156 c 0
94 156 m 0
 58 156 30 186 30 222 c 0
 30 258 58 286 94 286 c 0
 130 286 160 258 160 222 c 0
 160 186 130 156 94 156 c 0
190 61 m 0
 190 97 219 126 255 126 c 0
 291 126 319 97 319 61 c 0
 319 25 291 -4 255 -4 c 0
 219 -4 190 25 190 61 c 0
190 381 m 0
 190 417 219 446 255 446 c 0
 291 446 319 417 319 381 c 0
 319 345 291 316 255 316 c 0
 219 316 190 345 190 381 c 0
EndSplineSet
EndChar

StartChar: uni2053
Encoding: 8275 8275 135
Width: 907
Flags: W
HStem: 79 73<582.548 745.389> 188 88<130.537 310.601>
VStem: 9 120<109.283 170.719> 755 117<166.609 244.929>
LayerCount: 2
Fore
SplineSet
806 257 m 0
 844 257 872 239 872 201 c 0
 872 191 870 179 865 166 c 1
 864 166 l 1
 832 110 769 79 676 79 c 0
 625 79 542 99 426 137 c 0
 322 171 247 188 201 188 c 0
 194 188 188 187 182 187 c 0
 153 187 135 182 128 171 c 1
 129 165 129 160 129 155 c 0
 129 115 110 95 74 95 c 0
 30 95 9 124 9 166 c 0
 9 234 69 276 178 276 c 0
 203 276 234 272 272 264 c 0
 355 247 505 196 582 174 c 0
 622 163 655 156 680 153 c 0
 687 152 693 152 699 152 c 0
 736 152 755 170 755 209 c 0
 755 241 772 257 806 257 c 0
EndSplineSet
EndChar

StartChar: uni2219
Encoding: 8729 8729 136
Width: 290
Flags: W
HStem: 137 190<126.533 167.071>
VStem: 58 182<208.534 252.083>
LayerCount: 2
Fore
SplineSet
240 230 m 0
 240 226 232 219 219 209 c 0
 206 199 197 193 192 188 c 0
 185 181 178 171 168 158 c 0
 158 145 151 137 146 137 c 0
 142 137 135 144 125 158 c 0
 115 172 107 183 102 188 c 0
 99 191 92 197 81 205 c 0
 70 213 64 218 62 220 c 0
 60 222 58 225 58 227 c 0
 58 229 60 234 63 238 c 0
 66 242 73 247 81 254 c 0
 89 261 96 268 104 276 c 0
 109 281 117 292 127 306 c 0
 137 320 143 327 147 327 c 0
 151 327 158 319 168 304 c 0
 178 289 185 280 190 275 c 0
 197 267 207 260 220 251 c 0
 233 242 240 235 240 230 c 0
EndSplineSet
EndChar

StartChar: similar
Encoding: 8764 8764 137
Width: 887
Flags: W
HStem: 127 73<582.548 745.389> 236 88<130.537 310.601>
VStem: 9 120<157.283 218.719> 755 117<214.609 292.929>
LayerCount: 2
Fore
SplineSet
806 305 m 0
 844 305 872 287 872 249 c 0
 872 239 870 227 865 214 c 1
 864 214 l 1
 832 158 769 127 676 127 c 0
 625 127 542 147 426 185 c 0
 322 219 247 236 201 236 c 0
 194 236 188 235 182 235 c 0
 153 235 135 230 128 219 c 1
 129 213 129 208 129 203 c 0
 129 163 110 143 74 143 c 0
 30 143 9 172 9 214 c 0
 9 282 69 324 178 324 c 0
 203 324 234 320 272 312 c 0
 355 295 505 244 582 222 c 0
 622 211 655 204 680 201 c 0
 687 200 693 200 699 200 c 0
 736 200 755 218 755 257 c 0
 755 289 772 305 806 305 c 0
EndSplineSet
EndChar

StartChar: uni223D
Encoding: 8765 8765 138
Width: 887
Flags: W
HStem: 127 88<130.537 310.601> 252 72<586.299 745.051>
VStem: 9 120<232.281 294.101> 755 117<158.421 236.392>
LayerCount: 2
Fore
SplineSet
806 146 m 0
 772 146 755 162 755 194 c 0
 755 233 736 252 699 252 c 0
 693 252 687 251 680 250 c 0
 655 247 622 240 582 229 c 0
 505 207 355 156 272 139 c 0
 234 131 203 127 178 127 c 0
 69 127 9 169 9 238 c 0
 9 280 30 308 74 308 c 0
 110 308 129 289 129 249 c 0
 129 244 129 238 128 232 c 1
 135 221 153 216 182 216 c 0
 188 216 194 215 201 215 c 0
 247 215 322 232 426 266 c 0
 542 305 625 324 676 324 c 0
 769 324 832 293 864 237 c 1
 865 237 l 1
 870 224 872 213 872 202 c 0
 872 165 844 146 806 146 c 0
EndSplineSet
EndChar

StartChar: uni2241
Encoding: 8769 8769 139
Width: 887
Flags: W
HStem: 127 73<583.252 745.389> 236 88<130.537 312.777>
VStem: 9 120<157.283 218.719> 755 117<214.609 292.929>
LayerCount: 2
Fore
SplineSet
509 323 m 1
 573 323 l 1
 512 243 l 1
 539 235 563 228 582 222 c 0
 622 211 655 204 680 201 c 0
 687 200 693 200 699 200 c 0
 736 200 755 218 755 257 c 0
 755 289 772 305 806 305 c 0
 844 305 872 287 872 249 c 0
 872 239 870 227 865 214 c 1
 864 214 l 1
 832 158 769 127 676 127 c 0
 630 127 559 143 460 174 c 1
 411 109 l 1
 347 109 l 1
 409 191 l 1
 314 221 244 236 201 236 c 0
 194 236 188 235 182 235 c 0
 153 235 135 230 128 219 c 1
 129 213 129 208 129 203 c 0
 129 163 110 143 74 143 c 0
 30 143 9 172 9 214 c 0
 9 282 69 324 178 324 c 0
 203 324 234 320 272 312 c 0
 321 302 394 280 461 259 c 1
 509 323 l 1
EndSplineSet
EndChar

StartChar: bullet
Encoding: 8226 8226 140
Width: 410
Flags: W
HStem: 245 228<188.516 231.441>
VStem: 104 217<333.386 379.974>
LayerCount: 2
Fore
SplineSet
321 356 m 0
 321 352 318 347 314 344 c 0
 310 341 302 335 290 327 c 0
 278 319 269 311 264 306 c 0
 255 298 244 285 233 269 c 0
 222 253 214 245 209 245 c 0
 204 245 195 252 184 269 c 0
 173 286 164 298 156 306 c 0
 150 313 140 322 126 332 c 0
 112 342 104 349 104 353 c 256
 104 357 106 361 109 365 c 0
 112 369 119 376 129 384 c 0
 139 392 149 402 159 412 c 0
 167 420 174 430 182 442 c 0
 190 454 195 461 198 466 c 0
 201 471 206 473 210 473 c 256
 214 473 218 471 221 467 c 0
 224 463 230 454 239 440 c 0
 248 426 256 416 262 411 c 1
 270 402 282 392 298 381 c 0
 314 370 321 361 321 356 c 0
EndSplineSet
EndChar

StartChar: emdash
Encoding: 8212 8212 141
Width: 716
Flags: W
HStem: 232 53<53 665>
LayerCount: 2
Fore
SplineSet
665 285 m 1
 665 232 l 1
 53 232 l 1
 53 285 l 1
 665 285 l 1
EndSplineSet
EndChar

StartChar: uni2DE0
Encoding: 11744 11744 142
Width: 1
Flags: W
HStem: 535 15<-162 -125.512> 639 16.5<-162 -140.782> 686 76.5<-114.909 -82.0456> 745 17.5<-161.551 -134.502>
VStem: -225.5 63.5<550 639 655.5 744.999> -121.5 62<551.175 624.945>
LayerCount: 2
Fore
SplineSet
-59.5 568.5 m 0xdc
 -59.5 554.5 -61 545.5 -63.5 541.5 c 0
 -66 537.5 -71.5 535 -79 535 c 2
 -211.5 535 l 2
 -220.5 535 -225.5 539 -225.5 547.5 c 2
 -225.5 752.5 l 2
 -225.5 759 -223 762.5 -217.5 762.5 c 2xdc
 -86.5 762.5 l 2
 -80.5 762.5 -76 761.5 -73.5 759 c 0
 -71 756.5 -70 753 -70 747.5 c 0
 -70 744 -71.5 738.5 -75 731.5 c 0
 -78.5 724.5 -80 718.5 -81 714 c 0
 -82 705.5 -84.5 699 -87 694 c 0
 -89.5 689 -92.5 686 -95 686 c 0xec
 -102 686 -110.5 696.5 -119.5 717.5 c 1
 -122.5 724.5 -127.5 730.5 -134.5 736.5 c 0
 -141.5 742.5 -148.5 745 -154.5 745 c 0
 -158.5 745 -160 743.5 -161 739.5 c 0
 -162 735.5 -162 730 -162 722 c 2
 -162 655.5 l 1
 -144 655.5 -127.5 652 -111.5 645.5 c 0
 -95.5 639 -83.5 629.5 -74 616 c 0
 -64.5 602.5 -59.5 587 -59.5 568.5 c 0xdc
-121.5 566.5 m 0
 -121.5 586 -123 601 -126.5 612 c 0
 -130 623 -134.5 629.5 -140.5 633.5 c 0
 -146.5 637.5 -153 639 -162 639 c 1
 -162 550 l 1
 -149.5 550 -140 551 -132.5 553.5 c 0
 -125 556 -121.5 560.5 -121.5 566.5 c 0
EndSplineSet
EndChar

StartChar: uni2DE1
Encoding: 11745 11745 143
Width: 1
Flags: W
HStem: 535 15.5<-158.381 -128.165> 744 18.5<-161.278 -128.51>
VStem: -225.5 63.5<553.572 645.5 676 743.996> -125 55.5<690.512 743.644> -123 65.5<552.378 623.683>
LayerCount: 2
Fore
SplineSet
-57.5 561.5 m 4xe8
 -57.5 551.5 -59 545 -62.5 541 c 4
 -66 537 -72.5 535 -82.5 535 c 6
 -212.5 535 l 6
 -216.5 535 -220 536.5 -222 538.5 c 4
 -224 540.5 -225.5 543 -225.5 547 c 6
 -225.5 748 l 6
 -225.5 757 -221.5 762 -213 762.5 c 6
 -104 762.5 l 6
 -93.5 762.5 -86 761.5 -81.5 760.5 c 4
 -77 759.5 -73.5 756 -72 752 c 4
 -70.5 748 -69.5 741 -69.5 732 c 4xf0
 -69.5 723 -74 713 -83 700.5 c 4
 -92 688 -105.5 675.5 -124.5 662 c 5
 -104.5 649.5 -88.5 635.5 -76 620 c 4
 -63.5 604.5 -57.5 585.5 -57.5 561.5 c 4xe8
-125 722 m 4
 -125 736.5 -134 744 -152.5 744 c 4
 -158.5 744 -162 738.5 -162 727.5 c 6
 -162 676 l 5
 -153 676.5 -144.5 681.5 -136.5 690.5 c 4
 -128.5 699.5 -125 710.5 -125 722 c 4
-123 567 m 4xe8
 -123 581.5 -125.5 595 -129.5 607 c 4
 -133.5 619 -139.5 629 -145.5 635.5 c 4
 -151.5 642 -157 645.5 -162 645.5 c 5
 -162 564.5 l 6
 -162 558.5 -161 555 -158.5 553.5 c 4
 -156 552 -151 550.5 -143 550.5 c 4
 -136 550.5 -131.5 551.5 -128 554 c 4
 -124.5 556.5 -123 561 -123 567 c 4xe8
EndSplineSet
EndChar

StartChar: uni2DE2
Encoding: 11746 11746 144
Width: 1
Flags: W
HStem: 662.5 21G<-111.25 -106.25> 744 18.5<-160.59 -136.032>
VStem: -225.5 63.5<535 743.993>
LayerCount: 2
Fore
SplineSet
-102 762.5 m 6
 -98 762.5 -95 762 -93.5 760.5 c 4
 -92 759 -90.5 757 -90 754.5 c 4
 -89.5 752 -89.5 750 -90.5 749 c 4
 -92 745 -94 732 -96.5 711 c 4
 -98 694.5 -99.5 682 -101 674 c 4
 -102.5 666 -105 662.5 -107.5 662.5 c 4
 -115 662.5 -121 676 -125 703.5 c 4
 -129 730.5 -138.5 744 -153.5 744 c 4
 -159.5 744 -162 735 -162 716 c 6
 -162 547 l 6
 -162 539 -166 535 -173.5 535 c 6
 -215 535 l 6
 -222 535 -225.5 539 -225.5 547.5 c 6
 -225.5 750 l 6
 -225.5 754.5 -224.5 758 -223 759.5 c 4
 -221.5 761 -217.5 762.5 -212.5 762.5 c 6
 -102 762.5 l 6
EndSplineSet
EndChar

StartChar: uni2DE3
Encoding: 11747 11747 145
Width: 1
Flags: W
HStem: 438.5 21G<-211.75 -208.5 -80.75 -77.25> 535 20<-178.335 -133.094> 738 24.5<-210.319 -175.193>
VStem: -131.5 63<555 583.21>
LayerCount: 2
Fore
SplineSet
-34.5 530 m 1
 -37 526 -40 519 -44 509 c 0
 -48 499 -51.5 488.5 -54 477.5 c 0
 -56.5 465 -60.5 455.5 -65.5 449 c 0
 -70.5 442.5 -75 438.5 -79.5 438.5 c 0
 -82 438.5 -84 442 -86 449.5 c 0
 -88 457 -89 465.5 -89.5 475.5 c 2
 -91 519 l 2
 -91 525 -92 528.5 -93 531 c 0
 -94 533.5 -97.5 535 -103.5 535 c 2
 -164 535 l 2
 -170 535 -175 533 -178.5 529 c 0
 -182 525 -184 519.5 -185 513 c 2
 -190 479 l 2
 -191.5 468 -194.5 459 -198.5 451.5 c 0
 -202.5 444 -206.5 440.5 -210.5 440.5 c 0
 -213 440.5 -216 445.5 -219 456.5 c 0
 -222 467.5 -224.5 479 -226 491.5 c 0
 -227 499 -229.5 509 -233.5 522 c 0
 -237.5 535 -239.5 542.5 -239.5 543.5 c 0
 -239.5 546.5 -238 549 -236.5 551.5 c 0
 -235 554 -232.5 555 -230 555 c 2
 -201.5 555 l 1
 -177.5 695 l 1
 -175 709 -173.5 717 -173.5 720 c 0
 -173.5 724 -175.5 727 -179.5 730.5 c 0
 -183.5 734 -188.5 736.5 -194.5 738 c 0
 -205.5 741 -210.5 746 -210.5 752 c 0
 -210.5 759 -205.5 762.5 -196 762.5 c 2
 -83.5 762.5 l 2
 -73.5 762.5 -68.5 758.5 -68.5 750.5 c 0
 -68.5 745.5 -73.5 740.5 -84 736.5 c 1
 -88.5 734.5 -92.5 731 -96 727 c 0
 -99.5 723 -100.5 718 -99.5 714 c 1
 -67 555 l 1
 -46 555 l 2
 -40.5 555 -36.5 552 -34.5 547 c 0
 -32.5 542 -32.5 536 -34.5 530 c 1
-131.5 567.5 m 2
 -157 692.5 l 1
 -181 555 l 1
 -139 555 l 2
 -132.5 555 -130 559 -131.5 567.5 c 2
EndSplineSet
EndChar

StartChar: uni2DE4
Encoding: 11748 11748 146
Width: 1
Flags: W
HStem: 721 46.5<-247.833 -195.028 -87.1383 -34.8631>
VStem: -270.5 67<535 618.499> -173 63.5<538.571 679 722 762.48> -80.5 68.5<537.071 618.499>
LayerCount: 2
Fore
SplineSet
-163 535 m 5
 -167 535.5 -170 537 -171 538.5 c 4
 -172 540 -173 543 -173 547 c 6
 -173 679 l 5
 -179 673.5 -183.5 667 -187.5 659.5 c 4
 -191.5 652 -194.5 641 -197 625.5 c 4
 -199.5 610 -201 588.5 -201 562.5 c 4
 -201 551.5 -202 545 -203.5 541 c 4
 -205 537 -207.5 535 -211.5 535 c 6
 -260.5 535 l 6
 -267 535 -270.5 540 -270.5 549.5 c 4
 -270.5 562.5 -267 577.5 -261 594 c 4
 -255 610.5 -244 627.5 -229.5 646.5 c 4
 -215 665.5 -196.5 684 -173 701.5 c 5
 -182.5 714.5 -193.5 721 -205.5 721 c 4
 -216.5 721 -225 715.5 -231 704.5 c 4
 -231.5 703.5 -233 700 -236.5 694 c 4
 -240 688 -242.5 684 -244 682 c 4
 -245.5 680 -248.5 679 -251 679 c 4
 -261 679 -266 700 -266 741.5 c 4
 -266 759 -262 767.5 -254 767.5 c 4
 -240 767.5 -225.5 764 -211.5 756.5 c 4
 -197.5 749 -184.5 738 -173 722 c 5
 -173 754 l 6
 -173 760 -169.5 762.5 -163 762.5 c 6
 -119.5 762.5 l 6
 -113 763 -109.5 760 -109.5 754 c 6
 -109.5 722 l 5
 -98 738 -84.5 749 -70.5 756.5 c 4
 -56.5 764 -42.5 767.5 -28.5 767.5 c 4
 -21 767.5 -17 759 -17 741.5 c 4
 -17 700 -22 679 -31.5 679 c 4
 -34 679 -37 680 -38.5 682 c 4
 -40 684 -42.5 688 -46 694 c 4
 -49.5 700 -50.5 703.5 -51.5 704.5 c 4
 -58 715.5 -66.5 721 -77.5 721 c 4
 -89 721 -100 714.5 -109.5 701.5 c 5
 -86 683.5 -67.5 665.5 -53 646.5 c 4
 -38.5 627.5 -27.5 610.5 -21.5 594 c 4
 -15.5 577.5 -12 562.5 -12 549.5 c 4
 -12 540 -15.5 535 -22 535 c 6
 -71 535 l 6
 -73.5 535 -75.5 535.5 -77 537 c 4
 -78.5 538.5 -79.5 541 -80.5 545 c 4
 -81.5 549 -81.5 554.5 -81.5 562.5 c 4
 -81.5 599.5 -84 626.5 -89 643 c 4
 -94 659.5 -100.5 671.5 -109.5 679 c 5
 -109.5 547 l 6
 -109.5 539 -113 535 -120 535 c 6
 -163 535 l 5
EndSplineSet
EndChar

StartChar: uni2DE6
Encoding: 11750 11750 147
Width: 1
Flags: W
HStem: 645 19.5<-162 -145.722> 722.5 47<-123.864 -70.0474>
VStem: -225.5 63.5<535 645 664.5 760.429> -129.5 65<537.071 639.461>
LayerCount: 2
Fore
SplineSet
-67 755.5 m 2
 -67 723.5 l 2
 -67 717.5 -68 713 -69 709 c 0
 -70 705 -71.5 703 -73 703 c 256
 -75 703 -78.5 705.5 -83.5 709.5 c 0
 -88.5 713.5 -92 717 -95 719 c 0
 -98 721 -101.5 722.5 -105.5 722.5 c 0
 -111 722.5 -116 718.5 -120.5 710.5 c 0
 -125 702.5 -127.5 693.5 -128 683.5 c 1
 -119 677.5 -109 668.5 -99.5 657.5 c 0
 -90 646.5 -81 632.5 -74.5 616 c 0
 -68 599.5 -64.5 582 -64.5 564 c 2
 -64.5 543.5 l 2
 -64.5 541 -65.5 538.5 -66.5 537 c 0
 -67.5 535.5 -70 535 -74 535 c 2
 -119 535 l 2
 -121.5 535 -124 536.5 -126 539 c 0
 -128 541.5 -129.5 545 -129.5 549 c 0
 -129.5 575.5 -133 600.5 -139.5 623.5 c 0
 -141 629.5 -143 634.5 -146 638.5 c 0
 -149 642.5 -152 645 -156 645 c 2
 -162 645 l 1
 -162 548 l 2
 -162 539 -164.5 535 -170.5 535 c 2
 -217 535 l 2
 -223 535 -226 538.5 -225.5 545.5 c 2
 -225.5 751.5 l 2
 -225.5 758.5 -222.5 762 -216.5 762.5 c 2
 -171 762.5 l 2
 -167.5 762.5 -165 762 -164 760.5 c 0
 -163 759 -162 756.5 -162 753 c 2
 -162 664.5 l 1
 -153.5 664.5 l 2
 -150 664.5 -147.5 666.5 -146.5 670.5 c 0
 -145.5 674.5 -143.5 683 -141 696 c 0
 -138.5 709 -136 719.5 -133.5 727 c 0
 -123 755.5 -109.5 769.5 -92 769.5 c 0
 -75.5 769.5 -67 764.5 -67 755.5 c 2
EndSplineSet
EndChar

StartChar: uni2DE7
Encoding: 11751 11751 148
Width: 1
Flags: W
HStem: 535 227.5<-307 -300.5 -289.5 -288.5 -271 -265 -227.25 -211.5 -203.5 -196.5>
VStem: -239.5 74.5<536.547 563.759> -192.5 78<687.281 754.383>
LayerCount: 2
Fore
SplineSet
-57 551.5 m 2xa0
 -55.5 546.5 -55.5 542.5 -56.5 539.5 c 0
 -57.5 536.5 -60 535 -64 535 c 2
 -116.5 535 l 2
 -121.5 535 -125 537.5 -126.5 543 c 2
 -174.5 699 l 1
 -177 699 l 1
 -179.5 692 -182 673.5 -186 643 c 0
 -190 612.5 -191.5 592.5 -191.5 583.5 c 0
 -191.5 576.5 -190.5 571 -188 566 c 0
 -185.5 561 -182.5 557.5 -178.5 555 c 0
 -169.5 549 -165 544.5 -165 542 c 0
 -165 537.5 -168 535 -174 535 c 2
 -229.5 535 l 2
 -233.5 535 -235.5 535.5 -237 536.5 c 0
 -238.5 537.5 -239.5 539 -239.5 541.5 c 0xc0
 -239.5 542.5 -237 549 -232 559 c 0
 -227 569 -223.5 580 -219.5 591.5 c 0
 -213.5 612.5 -207.5 637 -201.5 667 c 0
 -195.5 697 -192.5 716 -192.5 724 c 0
 -192.5 728 -193.5 731 -195.5 735 c 0
 -197.5 739 -199.5 741.5 -202 742.5 c 1
 -206.5 745.5 -209.5 748 -211 749 c 0
 -212.5 750 -213.5 752 -213.5 754.5 c 0
 -213.5 759.5 -210 762 -203.5 762.5 c 2
 -106.5 762.5 l 2
 -99.5 762.5 -96 760 -96 754.5 c 0
 -96 752 -99.5 749.5 -106 746 c 0
 -112 743.5 -114.5 738.5 -114.5 732 c 0
 -114.5 727 -113 719.5 -110 709.5 c 2
 -57 551.5 l 2xa0
EndSplineSet
EndChar

StartChar: uni2DE8
Encoding: 11752 11752 149
Width: 1
Flags: W
HStem: 528.5 60<-142.523 -111.348>
VStem: -245.5 61<538.071 674> -67.5 61<537.048 674 730.167 760.428>
LayerCount: 2
Fore
SplineSet
-182 674 m 5
 -184.5 674 l 5
 -184.5 545.5 l 6
 -184.5 538.5 -187.5 535 -193.5 535 c 6
 -235 535 l 6
 -239 535 -242 536.5 -243.5 538 c 4
 -245 539.5 -245.5 542 -245.5 546 c 6
 -245.5 750.5 l 6
 -245.5 758.5 -242 762.5 -236 762.5 c 6
 -186 762.5 l 6
 -183 762.5 -180.5 762 -179.5 760.5 c 4
 -178.5 759 -178 756 -177.5 752 c 6
 -173 721 l 5
 -169 705 -165.5 690 -162 677 c 4
 -158.5 664 -155 650.5 -151 636 c 4
 -147 621.5 -143 610.5 -139 601.5 c 4
 -135 592.5 -130 588.5 -126 588.5 c 4
 -122 588.5 -117 596 -111 611 c 4
 -105 626 -99.5 643.5 -93.5 664 c 4
 -87.5 684.5 -82.5 703 -78 720 c 5
 -73 750.5 l 5
 -72 755.5 -71 759 -70 760.5 c 4
 -69 762 -66.5 762.5 -62.5 762.5 c 6
 -15.5 762.5 l 6
 -9.5 762.5 -6 758.5 -6.5 750 c 6
 -6.5 546 l 6
 -6.5 538.5 -9 535 -14 535 c 6
 -59 535 l 6
 -62 535 -64.5 536 -65.5 537 c 4
 -66.5 538 -67.5 540.5 -67.5 544 c 6
 -67.5 674 l 5
 -70 674 l 5
 -73.5 660 -77.5 641.5 -83 617.5 c 4
 -88.5 593.5 -92.5 577 -96 566 c 4
 -99.5 555 -103.5 546 -108.5 539 c 4
 -113.5 532 -119.5 528.5 -126 528.5 c 4
 -136.5 528.5 -145 534.5 -151 546.5 c 4
 -157 558.5 -162 572 -165.5 587.5 c 4
 -169 603 -174 631.5 -182 674 c 5
EndSplineSet
EndChar

StartChar: uni2DE9
Encoding: 11753 11753 150
Width: 1
Flags: W
HStem: 535 227.5<-223.429 -164.048 -107.453 -47.571>
VStem: -225.5 63.5<537.072 677.5 719 759.928> -108.5 63.5<539.071 586 630 760.428>
LayerCount: 2
Fore
SplineSet
-108.5 630 m 1
 -108.5 751 l 2
 -108.5 758.5 -106 762 -101 762.5 c 2
 -54 762.5 l 2
 -50 762.5 -47.5 762 -46.5 760.5 c 0
 -45.5 759 -45 755.5 -45 751 c 2
 -45 547 l 2
 -45 542.5 -46 539 -47.5 537.5 c 0
 -49 536 -51.5 535 -55 535 c 2
 -97.5 535 l 2
 -100.5 535 -102.5 535 -104 536 c 0
 -105.5 537 -106.5 537.5 -107.5 539 c 0
 -108.5 540.5 -108.5 543 -108.5 545.5 c 2
 -108.5 586 l 1
 -162 677.5 l 1
 -162 546.5 l 2
 -162 542 -163 538.5 -164 537 c 0
 -165 535.5 -167 535 -169.5 535 c 2
 -215 535 l 2
 -222 535 -225.5 539 -225.5 548 c 2
 -225.5 750.5 l 2
 -225.5 755 -225 758.5 -223.5 760 c 0
 -222 761.5 -219.5 762.5 -215.5 762.5 c 2
 -170.5 762.5 l 2
 -167 762.5 -165 762 -164 760.5 c 0
 -163 759 -162 756.5 -162 752.5 c 2
 -162 719 l 1
 -108.5 630 l 1
EndSplineSet
EndChar

StartChar: uni2DEA
Encoding: 11754 11754 151
Width: 1
Flags: W
HStem: 528.5 28<-154.707 -113.576> 745 24<-153.555 -114.445>
VStem: -230.5 72.5<572.94 729.921> -110 72.5<572.537 729.921>
LayerCount: 2
Fore
SplineSet
-134 528.5 m 260
 -151 528.5 -166.5 534 -181.5 544 c 4
 -196.5 554 -208 569 -217 588 c 4
 -226 607 -230.5 629 -230.5 653.5 c 4
 -230.5 676 -226.5 696.5 -218 714 c 4
 -209.5 731.5 -198 745 -183 754.5 c 4
 -168 764 -151.5 769 -134 769 c 260
 -116.5 769 -100 764 -85 754.5 c 4
 -70 745 -58.5 731.5 -50 714 c 4
 -41.5 696.5 -37.5 676 -37.5 653.5 c 4
 -37.5 628.5 -42 606.5 -51 587.5 c 4
 -60 568.5 -71 554 -86 544 c 4
 -101 534 -117 528.5 -134 528.5 c 260
-134 556.5 m 260
 -118 556.5 -110 568 -110 591 c 6
 -110 713.5 l 6
 -110 724.5 -111.5 732.5 -115.5 737.5 c 4
 -119.5 742.5 -125 745 -134 745 c 4
 -143 745 -148.5 742.5 -152.5 737.5 c 4
 -156.5 732.5 -158 724.5 -158 713.5 c 6
 -158 591 l 6
 -158 568 -150 556.5 -134 556.5 c 260
EndSplineSet
EndChar

StartChar: uni2DEB
Encoding: 11755 11755 152
Width: 1
Flags: W
HStem: 741.5 21<-162 -108.5>
VStem: -225.5 63.5<535 741.5> -108.5 63.5<537.072 741.5>
LayerCount: 2
Fore
SplineSet
-45 546 m 6
 -45 542 -45.5 538.5 -46.5 537 c 4
 -47.5 535.5 -50 535 -53 535 c 6
 -99 535 l 6
 -102.5 535 -104.5 536 -106 537 c 4
 -107.5 538 -108.5 540.5 -108.5 544.5 c 6
 -108.5 732 l 6
 -108.5 738.5 -112 742 -118 741.5 c 6
 -152.5 741.5 l 6
 -158.5 741.5 -162 738 -162 731.5 c 6
 -162 546 l 6
 -162 538.5 -164.5 535 -170.5 535 c 6
 -213 535 l 6
 -221.5 535 -225.5 538.5 -225.5 546 c 6
 -225.5 750.5 l 6
 -225.5 755 -224.5 758.5 -223 760 c 4
 -221.5 761.5 -219 762.5 -215.5 762.5 c 6
 -55 762.5 l 6
 -48.5 762.5 -45 759 -45 751.5 c 6
 -45 546 l 6
EndSplineSet
EndChar

StartChar: uni2DEC
Encoding: 11756 11756 153
Width: 1
Flags: W
HStem: 528.5 24.5<-154.167 -116> 716.5 52.5<-159.072 -141.594>
VStem: -228 62.5<465.17 543.648 553.47 715.892> -203 33.5<400.524 462.124> -128.5 65<555.298 697.097>
LayerCount: 2
Fore
SplineSet
-63.5 627 m 0xe8
 -63.5 613 -66 598.5 -71 583 c 0
 -76 567.5 -83 554.5 -92 544 c 0
 -101 533.5 -110.5 528.5 -121.5 528.5 c 0
 -137.5 528.5 -149.5 533.5 -157 544 c 1
 -161 536.5 -163.5 529 -164.5 521.5 c 0
 -165.5 514 -166.5 502.5 -167 488.5 c 1
 -167.5 479.5 -167.5 470.5 -168 462.5 c 0
 -168.5 454.5 -168.5 445.5 -169.5 435 c 1
 -171.5 411 -175.5 399.5 -181.5 399.5 c 0
 -187.5 399.5 -191.5 403 -194.5 409.5 c 0
 -197.5 416 -200.5 427 -203 442 c 0xd8
 -204 448 -205 457 -206.5 469 c 0
 -208 481 -210 490.5 -211 497.5 c 0
 -212 504.5 -213.5 512.5 -215 521.5 c 0
 -219.5 547.5 -223 568.5 -225 586 c 0
 -227 603.5 -228 624 -228 648 c 0
 -228 666 -225 684.5 -218.5 703.5 c 0
 -212 722.5 -204.5 738 -196 750.5 c 0
 -187.5 763 -180.5 769 -174.5 769 c 0
 -164.5 769 -150.5 762.5 -132 748.5 c 0
 -113.5 734.5 -98 716.5 -84 695 c 0
 -70 673.5 -63.5 651 -63.5 627 c 0xe8
-128.5 616.5 m 0
 -128.5 645.5 -130 668 -133 683 c 0
 -136 698 -138.5 708 -141.5 712 c 0
 -143.5 715 -146.5 716.5 -150.5 716.5 c 1
 -156.5 703.5 -160.5 692 -162.5 682 c 0
 -164.5 672 -165.5 657 -165.5 637 c 0xe8
 -165.5 623 -165 612 -164 603.5 c 0
 -163 595 -161 585 -158 573 c 0
 -156.5 567 -154.5 562.5 -151 558.5 c 0
 -147.5 554.5 -144 553 -140 553 c 0
 -137.5 553 -135 554 -133.5 557 c 0
 -132 560 -130.5 566.5 -129.5 576 c 0
 -128.5 585.5 -128.5 599 -128.5 616.5 c 0
EndSplineSet
EndChar

StartChar: uni2DED
Encoding: 11757 11757 154
Width: 1
Flags: W
HStem: 528.5 24.5<-151.637 -125.583> 747.5 21.5<-153.146 -129.318>
VStem: -230.5 75<568.219 726.607> -123 61.5<562.282 604.5 701.094 743.806>
LayerCount: 2
Fore
SplineSet
-61.5 594 m 4
 -61.5 586.5 -64 577 -69 567 c 4
 -74 557 -82 548.5 -93.5 540.5 c 4
 -105 532.5 -120 528.5 -138 528.5 c 4
 -158 528.5 -175 534.5 -189 546.5 c 4
 -203 558.5 -214 573.5 -220.5 591.5 c 4
 -227 609.5 -230.5 627.5 -230.5 645.5 c 4
 -230.5 658.5 -229 672 -225.5 686 c 4
 -222 700 -216.5 713 -209 726 c 4
 -201.5 739 -191.5 749 -179 757 c 4
 -166.5 765 -151.5 769 -134 769 c 4
 -125 769 -117 766.5 -108.5 762.5 c 4
 -100 758.5 -92 752.5 -85.5 746 c 4
 -79 739.5 -73 732 -69 725.5 c 4
 -65 719 -63 713 -63 709 c 4
 -63 705.5 -63.5 703 -64.5 701 c 4
 -65.5 699 -68.5 698 -72.5 698 c 6
 -114 698 l 6
 -122 698 -126 704.5 -125.5 717.5 c 4
 -125.5 725 -127 732.5 -130 738.5 c 4
 -133 744.5 -137 747.5 -143 747.5 c 4
 -147.5 747.5 -151.5 745.5 -153 740.5 c 4
 -154.5 735.5 -155.5 727.5 -155.5 716.5 c 6
 -155.5 584 l 6
 -155.5 575 -154.5 567.5 -151 561.5 c 4
 -147.5 555.5 -143.5 553 -138.5 553 c 4
 -132.5 553 -128 556 -126 562 c 4
 -124 568 -123 575.5 -123 583.5 c 4
 -123 589.5 -121.5 595 -119.5 599 c 4
 -117.5 603 -115 604.5 -112 604.5 c 6
 -72 604.5 l 6
 -65 604.5 -61.5 601 -61.5 594 c 4
EndSplineSet
EndChar

StartChar: uni2DEE
Encoding: 11758 11758 155
Width: 1
Flags: W
HStem: 669.5 93<-232.88 -211.838 -89.6615 -68.0186> 740 22.5<-201.967 -182.5 -119 -99.5333>
VStem: -200 99<535 737.312> -182.5 63.5<541.664 740>
LayerCount: 2
Fore
SplineSet
-119 740 m 5x50
 -119 568 l 6x50
 -119 565 -118 562.5 -116.5 559 c 4
 -115 555.5 -113 553 -110.5 552 c 4
 -104.5 548 -101 545 -101 541.5 c 4
 -101 537.5 -103.5 535 -109.5 535 c 6
 -191.5 535 l 6
 -197.5 535 -200 537.5 -200 541.5 c 4x60
 -200 544 -197 547.5 -191 552.5 c 5
 -185 556.5 -182.5 561.5 -182.5 568 c 6
 -182.5 740 l 5x50
 -196.5 740 -205 730 -208 711 c 4
 -212 683.5 -218 669.5 -225.5 669.5 c 4
 -227.5 669.5 -229.5 672 -230.5 676 c 4
 -231.5 680 -232.5 687 -233.5 695.5 c 4
 -234.5 704 -235.5 711.5 -236.5 718 c 4
 -238 733 -240 743 -242.5 749 c 4
 -243.5 752 -243.5 755 -242 758 c 4
 -240.5 761 -237 762.5 -231 762.5 c 6
 -70.5 762.5 l 6
 -66.5 762.5 -63.5 762 -61.5 760.5 c 4
 -59.5 759 -58.5 757 -58 754.5 c 4
 -57.5 752 -58 750 -59 749 c 5
 -61.5 743 -63.5 733 -65 718 c 4
 -66.5 701.5 -68 689 -69.5 681 c 4
 -71 673 -73.5 669.5 -76 669.5 c 4x90
 -83.5 669.5 -89.5 683.5 -93.5 711 c 4
 -96.5 730 -105 740 -119 740 c 5x50
EndSplineSet
EndChar

StartChar: uni2DEF
Encoding: 11759 11759 156
Width: 1
Flags: W
HStem: 712 57<-112.182 -66.9891>
VStem: -223 42.5<494.188 570.792> -138 81.5<712.676 742.303>
LayerCount: 2
Fore
SplineSet
-44.5 543.5 m 0
 -44 537.5 -49 535 -59 535 c 2
 -102 535 l 2
 -106 535 -109 536 -112 539 c 0
 -115 542 -118.5 547 -122.5 553.5 c 2
 -161 620 l 1
 -170.5 602.5 -175.5 579.5 -175.5 550.5 c 0
 -175.5 531.5 -177 515.5 -180.5 504.5 c 0
 -184 493.5 -190 488 -199 488 c 0
 -206.5 488 -212.5 490 -216.5 494 c 0
 -220.5 498 -223 502 -223 507.5 c 0
 -223 511.5 -220.5 522 -214.5 538 c 0
 -208.5 554 -202 571 -194.5 589 c 0
 -187 607 -179.5 623.5 -172 637.5 c 1
 -232.5 733 l 2
 -238.5 742 -241.5 748.5 -241.5 752 c 0
 -241.5 755 -240.5 757.5 -238 759.5 c 0
 -235.5 761.5 -233 762.5 -230 762.5 c 2
 -184.5 762.5 l 2
 -175.5 762.5 -170 759.5 -166.5 753.5 c 2
 -138 704 l 1
 -130 723 -120.5 738 -109.5 750.5 c 0
 -98.5 763 -85 769 -69 769 c 0
 -60.5 769 -56.5 756.5 -56.5 731.5 c 0
 -56.5 717.5 -58.5 702.5 -62.5 688 c 0
 -63.5 685.5 -65 684 -67.5 684 c 256
 -70 684 -73 685.5 -76 689 c 0
 -77.5 691 -79.5 693 -81 696 c 0
 -82.5 699 -84 701.5 -85 703.5 c 1
 -86 706 -88 708 -90.5 709.5 c 0
 -93 711 -96.5 712 -100.5 712 c 0
 -105 712 -110.5 709.5 -117 704.5 c 0
 -123.5 699.5 -127 694 -127 686.5 c 1
 -56 570.5 l 2
 -49 559.5 -45.5 550.5 -44.5 543.5 c 0
EndSplineSet
EndChar

StartChar: uni2DF0
Encoding: 11760 11760 157
Width: 1
Flags: W
HStem: 535 24.5<-161.629 -114.118>
VStem: -225.5 63.5<559.808 759.428> -108.5 63.5<559.967 762.5>
LayerCount: 2
Fore
SplineSet
-45 748.5 m 2
 -45 568.5 l 2
 -45 552.5 -45.5 539 -46.5 529.5 c 0
 -47.5 520 -50 510.5 -52.5 501.5 c 1
 -54.5 494.5 -57 485 -61 473 c 0
 -65 461 -67.5 452 -69 448 c 0
 -70.5 444 -72.5 440.5 -74 438.5 c 0
 -75.5 436.5 -77.5 435.5 -79.5 435.5 c 0
 -83.5 435.5 -86.5 438 -88.5 443 c 0
 -90.5 448 -92.5 454.5 -94.5 463.5 c 1
 -108.5 524 l 2
 -109.5 528 -111.5 531 -114 532.5 c 0
 -116.5 534 -120 535 -125.5 535 c 2
 -215 535 l 2
 -222 535 -225.5 539 -225.5 547 c 2
 -225.5 748.5 l 2
 -225.5 757.5 -221.5 762.5 -214 762.5 c 2
 -172.5 762.5 l 2
 -168.5 762.5 -166 761 -164.5 759.5 c 0
 -163 758 -162 754.5 -162 750 c 2
 -162 574.5 l 2
 -162 569.5 -159 566 -153 563.5 c 0
 -147 561 -141.5 559.5 -135.5 559.5 c 0
 -130.5 559.5 -125 561 -118.5 563.5 c 0
 -112 566 -108.5 569 -108.5 573 c 2
 -108.5 749 l 2
 -108.5 758 -105 762.5 -97.5 762.5 c 2
 -53.5 762.5 l 2
 -50 762.5 -47.5 761.5 -46.5 759.5 c 0
 -45.5 757.5 -45 754 -45 748.5 c 2
EndSplineSet
EndChar

StartChar: uni2DF1
Encoding: 11761 11761 158
Width: 1
Flags: W
HStem: 535 18<-195.425 -172.249 -104.364 -81.8013>
VStem: -241.5 71.5<702.055 747.875> -170 63.5<547.319 668.871> -106.5 71<701.104 747.875>
LayerCount: 2
Fore
SplineSet
-185.5 535 m 2xa0
 -193 535 -197 536.5 -197 540 c 0
 -197 542 -196 544 -193 546.5 c 0
 -190 549 -186 551.5 -182 553 c 0
 -178.5 554 -176 556.5 -173.5 560 c 0
 -171 563.5 -170 566.5 -170 570 c 2
 -170 658.5 l 1xa0
 -179 662.5 -188.5 669 -198 676.5 c 0
 -207.5 684 -214.5 693 -220 702.5 c 0
 -222.5 707.5 -225 713 -226.5 719 c 0
 -228 725 -229.5 731 -230.5 737 c 1
 -231 742.5 -232.5 746 -235 748 c 1
 -239 750.5 -241.5 753.5 -241.5 756 c 0
 -241.5 760 -239 762.5 -235 762.5 c 2
 -163.5 762.5 l 2
 -158.5 762.5 -156 761 -156 757 c 0
 -156 753 -158.5 750.5 -163 748 c 0
 -168 745.5 -170.5 733 -170 710.5 c 0
 -170 699.5 -166.5 690 -160 681.5 c 0
 -153.5 673 -146 669 -138 669 c 0
 -129.5 669 -122 673 -116 681.5 c 0
 -110 690 -106.5 699.5 -106.5 710.5 c 0
 -106.5 733 -109 745.5 -114 748 c 0
 -118 750.5 -120.5 753 -120.5 757 c 0
 -120.5 760.5 -118 762 -113.5 762.5 c 2
 -41.5 762.5 l 2
 -37.5 762.5 -35 760 -35.5 756 c 0xd0
 -35.5 753.5 -37.5 750.5 -41.5 748 c 1
 -44 746 -45 742.5 -46 737 c 0
 -46.5 733 -47.5 727.5 -49.5 721 c 0
 -51.5 714.5 -54 708 -56.5 702.5 c 0
 -62 692.5 -69 684 -79 676 c 0
 -89 668 -98 662.5 -106.5 658.5 c 1
 -106.5 570 l 2
 -106.5 566.5 -105.5 563.5 -103.5 560.5 c 0
 -101.5 557.5 -98.5 555 -94.5 553 c 1
 -90.5 551.5 -86.5 549 -84 546.5 c 0
 -81.5 544 -80 542 -80 540 c 0
 -80 536.5 -84 535 -91.5 535 c 2
 -185.5 535 l 2xa0
EndSplineSet
EndChar

StartChar: uni2DF2
Encoding: 11762 11762 159
Width: 1
Flags: W
HStem: 535 16.5<-241.983 -190.548 -124.637 -76.3076>
VStem: -305.5 63.5<551.5 758.882> -188.5 63.5<554.071 762.5> -76 63.5<552 762.5>
LayerCount: 2
Fore
SplineSet
-22 535 m 6
 -293 535 l 6
 -301.5 535 -305.5 540 -305.5 550 c 6
 -305.5 748 l 6
 -305.5 753 -304.5 756.5 -303 759 c 4
 -301.5 761.5 -298.5 762.5 -294.5 762.5 c 6
 -252 762.5 l 6
 -245.5 762.5 -242 758 -242 749 c 6
 -242 560.5 l 6
 -242 554.5 -239.5 551.5 -234 551.5 c 6
 -197 551.5 l 6
 -194 551.5 -191.5 552.5 -190.5 554 c 4
 -189.5 555.5 -188.5 558 -188.5 560.5 c 6
 -188.5 751 l 6
 -188.5 758.5 -184.5 762.5 -176.5 762.5 c 6
 -135 762.5 l 6
 -128.5 762.5 -125 758.5 -125 749.5 c 6
 -125 563.5 l 6
 -125 556 -121.5 552 -115.5 552 c 6
 -86 552 l 6
 -79.5 552 -76 555.5 -76 563 c 6
 -76 751 l 6
 -76 758.5 -72 762 -63 762.5 c 6
 -23 762.5 l 6
 -16 762.5 -12.5 758.5 -12.5 749.5 c 6
 -12.5 545.5 l 6
 -12.5 538.5 -16 535 -22 535 c 6
EndSplineSet
EndChar

StartChar: uni2DF3
Encoding: 11763 11763 160
Width: 1
Flags: W
HStem: 535 16.5<-241.983 -190.548 -124.637 -76.3076>
VStem: -305.5 63.5<551.5 758.882> -188.5 63.5<401.5 535 554.071 762.5> -76 63.5<552 762.5>
LayerCount: 2
Fore
SplineSet
-12.5 545.5 m 6
 -12.5 538.5 -16 535 -22 535 c 6
 -115.5 535 l 6
 -118 535 -120 533.5 -122 531.5 c 4
 -124 529.5 -125 527 -125 523.5 c 6
 -125 401.5 l 5
 -188.5 401.5 l 5
 -188.5 524 l 6
 -188.5 531.5 -191 535 -195.5 535 c 6
 -293 535 l 6
 -301.5 535 -305.5 540 -305.5 550 c 6
 -305.5 748 l 6
 -305.5 753 -304.5 756.5 -303 759 c 4
 -301.5 761.5 -298.5 762.5 -294.5 762.5 c 6
 -252 762.5 l 6
 -245.5 762.5 -242 758 -242 749 c 6
 -242 560.5 l 6
 -242 554.5 -239.5 551.5 -234 551.5 c 6
 -197 551.5 l 6
 -194 551.5 -191.5 552.5 -190.5 554 c 4
 -189.5 555.5 -188.5 558 -188.5 560.5 c 6
 -188.5 751 l 6
 -188.5 758.5 -184.5 762.5 -176.5 762.5 c 6
 -135 762.5 l 6
 -128.5 762.5 -125 758.5 -125 749.5 c 6
 -125 563.5 l 6
 -125 556 -121.5 552 -115.5 552 c 6
 -86 552 l 6
 -79.5 552 -76 555.5 -76 563 c 6
 -76 751 l 6
 -76 758.5 -72 762 -63 762.5 c 6
 -23 762.5 l 6
 -16 762.5 -12.5 758.5 -12.5 749.5 c 6
 -12.5 545.5 l 6
EndSplineSet
EndChar

StartChar: uni2DF4
Encoding: 11764 11764 161
Width: 1
Flags: W
HStem: 528.5 22<-168.75 -141.718> 596.5 72.5<-282.259 -262.654 -49.8188 -25.1905> 650 19.5<-256.115 -241.5 -175.5 -133.5 -70.5 -56.8997> 746 23<-169.363 -140.674>
VStem: -241.5 66<566.488 648.5 669.5 730.81> -133.5 63<564.53 650 671 733.508>
LayerCount: 2
Fore
SplineSet
-16.5 655 m 4xdc
 -16.5 654 -17.5 650 -19.5 643.5 c 4
 -21.5 637 -23 631 -24 625.5 c 4
 -25 617 -27 609.5 -28.5 603 c 4
 -30 596.5 -32.5 592.5 -35 592.5 c 4
 -37 592.5 -40 596.5 -44 604 c 4
 -48 611.5 -50 618 -51 623.5 c 4
 -51.5 626 -53 630 -55.5 636.5 c 4
 -58 643 -59.5 648 -60 650.5 c 5
 -70.5 651 l 5
 -70.5 627 -74 605.5 -81 587 c 4
 -88 568.5 -98 554.5 -111 544 c 4
 -124 533.5 -138.5 528.5 -156 528.5 c 4
 -183.5 528.5 -205 541 -219.5 566 c 4
 -234 591 -241.5 618.5 -241.5 648.5 c 5
 -253.5 648.5 l 5
 -254.5 646 -256 641 -258 634 c 4
 -260 627 -261 623 -261.5 622 c 4
 -266.5 604.5 -270.5 596 -273.5 596.5 c 4
 -274.5 596.5 -276.5 600.5 -279 608 c 4
 -281.5 615.5 -284 623 -285 630.5 c 4
 -286 636 -287 642 -289.5 648.5 c 4
 -293.5 658 l 4
 -293.5 662.5 -292.5 666 -291 667 c 4
 -289.5 668 -286.5 669 -282.5 669 c 6
 -240.5 669 l 5
 -240.5 680 -239 689 -236.5 696 c 4
 -234 703 -230.5 712 -225 722.5 c 4
 -209 753.5 -185 769 -154 769 c 4
 -144.5 769 -134.5 766.5 -124 760.5 c 4
 -113.5 754.5 -104.5 747.5 -96 738 c 4
 -87.5 728.5 -81 718.5 -77 707.5 c 4
 -72 694 -69.5 682 -70.5 671 c 5
 -27.5 671 l 6
 -23.5 671 -20.5 670 -19 668.5 c 4
 -17.5 667 -16.5 662 -16.5 655 c 4xdc
-133.5 669.5 m 5xbc
 -133.5 689.5 l 6
 -133.5 708.5 -135 722 -139 731.5 c 4
 -143 741 -148.5 746 -155.5 746 c 4
 -163 746 -168 740 -171.5 729 c 4
 -175 718 -177 703.5 -177 687 c 6
 -177 669.5 l 5
 -133.5 669.5 l 5xbc
-133.5 600 m 6
 -133.5 650 l 5
 -175.5 650 l 5
 -175.5 602.5 l 6
 -175.5 590 -174 578 -171 567 c 4
 -168 556 -162.5 550.5 -155 550.5 c 4
 -147.5 550.5 -142.5 556.5 -139 568 c 4
 -135.5 579.5 -133.5 590.5 -133.5 600 c 6
EndSplineSet
EndChar

StartChar: uni2DF6
Encoding: 11766 11766 162
Width: 1
Flags: W
HStem: 528.5 46<-198.522 -158.643> 746.5 16<-108.564 -90.6511>
VStem: -231 30.5<575.169 668.295> -187.5 76.5<695.672 747.828>
LayerCount: 2
Fore
SplineSet
-63.5 549 m 2
 -61 540 -63.5 535 -71.5 535 c 2
 -111.5 535 l 2
 -119 535 -124 538.5 -125.5 546 c 2
 -138 597 l 1
 -141 583.5 -145 571.5 -151 561.5 c 0
 -157 551.5 -163.5 543.5 -172 537.5 c 0
 -180.5 531.5 -188.5 528.5 -197.5 528.5 c 0
 -208.5 528.5 -216.5 535 -222.5 548.5 c 0
 -228.5 562 -231 579 -231 600 c 0
 -231 614 -228 631.5 -222 650.5 c 0
 -216 669.5 -209 686.5 -201 700.5 c 0
 -192 716.5 -187.5 727 -187.5 731.5 c 0
 -187.5 736.5 -192.5 740.5 -203 744.5 c 0
 -209.5 747 -213 750 -213 754 c 0
 -213 760 -210.5 762.5 -206 762.5 c 2
 -99 762.5 l 2
 -93 762.5 -90.5 760 -90.5 756 c 0
 -90.5 752 -93 749 -99 746.5 c 0
 -102.5 745.5 -105 743 -107.5 740 c 0
 -110 737 -111 734 -111 731 c 0
 -111 722 -109.5 710.5 -106 698 c 2
 -63.5 549 l 2
-150.5 639.5 m 1
 -173 720.5 l 1
 -179 703.5 -184 688.5 -188 676 c 0
 -192 663.5 -195 653 -197 643 c 0
 -199 633 -200.5 624 -200.5 615.5 c 0
 -200.5 604.5 -199 595 -195.5 586.5 c 0
 -192 578 -187.5 574.5 -183 574.5 c 0
 -179 574.5 -174.5 577 -170 581 c 0
 -165.5 585 -161.5 590.5 -157.5 597 c 0
 -153.5 603.5 -151 611 -149.5 618.5 c 0
 -148 626 -148.5 633.5 -150.5 639.5 c 1
EndSplineSet
EndChar

StartChar: uni2DF9
Encoding: 11769 11769 163
Width: 1
Flags: W
HStem: 528.5 20.5<-155.857 -117.658> 671 22.5<-156.229 -115.599> 753 9.5<-231 -224.112 -164.714 -158.5 -119.5 -111.54 -52.6501 -45.5>
VStem: -228 61<554.683 663.622 700.926 752.992> -107.5 61<557.026 660.581> -106 51<700.712 752.992>
LayerCount: 2
Fore
SplineSet
-96 680.5 m 1xf4
 -81.5 676.5 -69.5 667.5 -60.5 656 c 0
 -51.5 644.5 -46.5 630 -46.5 612.5 c 0xf8
 -46.5 596.5 -50.5 582 -59 569 c 0
 -67.5 556 -78 546 -92 539 c 0
 -106 532 -121.5 528.5 -138 528.5 c 0
 -155.5 528.5 -170.5 532.5 -184.5 539 c 0
 -198.5 545.5 -209 555.5 -216.5 568.5 c 0
 -224 581.5 -228 596 -228 612.5 c 0
 -228 628.5 -223.5 643 -214.5 654.5 c 0
 -205.5 666 -194 674.5 -179.5 680 c 1
 -190.5 686 -200 694 -209 704 c 0
 -218 714 -222 724.5 -222 735.5 c 0
 -222 747 -225 753 -231 753 c 1
 -231 762.5 l 1
 -158.5 762.5 l 1
 -158.5 753 l 1
 -165.5 753 -169 741.5 -169.5 718 c 0
 -169.5 711 -166 705 -159.5 700.5 c 0
 -153 696 -145 693.5 -136 693.5 c 0
 -127 693.5 -119.5 696 -114 700.5 c 0
 -108.5 705 -106 711 -106 718.5 c 0
 -106 741.5 -110.5 753 -119.5 753 c 1
 -119.5 762.5 l 1
 -45.5 762.5 l 1
 -45.5 753 l 1
 -51.5 753 -55 747 -55 735.5 c 0
 -55 724.5 -59 714.5 -67.5 704.5 c 0
 -76 694.5 -85 686.5 -96 680.5 c 1xf4
-136.5 549 m 0
 -128 549 -122 552.5 -118 558.5 c 0
 -114 564.5 -110.5 572.5 -109.5 581.5 c 0
 -108.5 590.5 -107.5 602 -107.5 616 c 0
 -107.5 634.5 -109.5 648 -114 657 c 0
 -118.5 666 -126 671 -136.5 671 c 0
 -144 671 -149.5 668.5 -154 663 c 0
 -158.5 657.5 -162 650.5 -164 642 c 0
 -166 633.5 -167 624.5 -167 614 c 0
 -167 570.5 -157 549 -136.5 549 c 0
EndSplineSet
EndChar

StartChar: uni2DFA
Encoding: 11770 11770 164
Width: 1
Flags: W
HStem: 535 20.5<-111.5 -86.1908> 644.5 75.5<-227.242 -200.814> 655 66<-88.5264 -60.9351> 697 24<-194.17 -176.545 -111.442 -91.0469>
VStem: -175 63.5<555.504 629 643.625 696.93 721 752.868> -79.5 62<558.169 610.444>
LayerCount: 2
Fore
SplineSet
-17.5 572.5 m 0x9c
 -17.5 558.5 -19.5 549 -24 543.5 c 0
 -28.5 538 -37 535 -49.5 535 c 2
 -187.5 535 l 2
 -194 535 -197.5 537.5 -197.5 541.5 c 0
 -197.5 547.5 -193.5 551.5 -185.5 555 c 0
 -178.5 557.5 -175 563 -175 571 c 2
 -175 687.5 l 2
 -175 694 -177.5 697.5 -181.5 697.5 c 0
 -187.5 697.5 -193 691 -197 677 c 0
 -199.5 668.5 -203 661 -207 654.5 c 0
 -211 648 -214.5 644.5 -218 644.5 c 0
 -219.5 644.5 -221.5 646 -222.5 649 c 0
 -223.5 652 -225.5 656 -226.5 662 c 0
 -227.5 668 -228.5 673 -229 677 c 1
 -230 682 -231 688 -234 695 c 0
 -237 702 -238.5 707 -238.5 710.5 c 0
 -238.5 716.5 -235 720 -228.5 720 c 2
 -176.5 720 l 1xcc
 -176.5 733 l 2
 -176.5 740 -180.5 744.5 -188.5 747 c 1
 -194.5 749.5 -198 752.5 -198 756.5 c 0
 -198 760.5 -195.5 762 -189.5 762.5 c 2
 -100 762.5 l 2
 -94 762.5 -91 760 -91.5 756 c 0
 -91.5 754 -94.5 750.5 -100.5 746 c 1
 -108 741 -111.5 736 -111.5 731.5 c 2
 -111.5 721 l 1
 -52.5 721 l 2x9c
 -45 721 -41 718.5 -41 712.5 c 0
 -41 710 -43.5 706 -47.5 702 c 1
 -51.5 698 -55.5 692.5 -58 685.5 c 1
 -64.5 665 -69.5 655 -72.5 655 c 0xac
 -79.5 655 -85.5 663.5 -89.5 680 c 1
 -90.5 685 -92.5 688.5 -95.5 692 c 0
 -98.5 695.5 -101 697 -104 697 c 0
 -106 697 -107.5 695.5 -109 692.5 c 0
 -110.5 689.5 -111.5 686.5 -111.5 684 c 2
 -111.5 651.5 l 1
 -97.5 647.5 -82.5 641 -68.5 632 c 0
 -54.5 623 -42 614 -32 603 c 0
 -22 592 -17.5 582 -17.5 572.5 c 0x9c
-79.5 579.5 m 0
 -79.5 586.5 -81 594 -84.5 601.5 c 0
 -88 609 -92 615.5 -97 621 c 0
 -102 626.5 -107 629 -111.5 629 c 1
 -111.5 555.5 l 1
 -98.5 555.5 -90 557 -86 560 c 0
 -82 563 -79.5 569.5 -79.5 579.5 c 0
EndSplineSet
EndChar

StartChar: uni2DFD
Encoding: 11773 11773 165
Width: 1
Flags: W
HStem: 727.5 35<-151.5 -143>
VStem: -234.5 36.5<528.872 598.87> -173.5 58.5<538.071 647.5>
LayerCount: 2
Fore
SplineSet
-10.5 539.5 m 0
 -10.5 536.5 -13 535 -18.5 535 c 2
 -62 535 l 2
 -66 535 -69 536 -70.5 538 c 0
 -72 540 -74.5 544.5 -77 551.5 c 2
 -110.5 647.5 l 1
 -115 647.5 l 1
 -115 544 l 2
 -115 538 -118 535 -124 535 c 2
 -166 535 l 2
 -168.5 535 -170.5 536.5 -171.5 538 c 0
 -172.5 539.5 -173.5 542 -173.5 545.5 c 2
 -173.5 647.5 l 1
 -178 647.5 l 1
 -189 626.5 -196.5 608 -200.5 592 c 0
 -202.5 584.5 -202.5 575.5 -200.5 566 c 1
 -199 554.5 -198 547 -198 544.5 c 0
 -198 540.5 -200.5 537 -204.5 533.5 c 0
 -208.5 530 -214.5 528.5 -221.5 528.5 c 0
 -227.5 528.5 -231 532 -234.5 539.5 c 0
 -238 547 -238.5 554.5 -236 561 c 0
 -235 564 -229 575.5 -218 596 c 0
 -207 616.5 -198 635 -192 651.5 c 0
 -181.5 678 -175 698.5 -171.5 712.5 c 0
 -169 722.5 -168 729 -168 732 c 0
 -168 735 -169.5 737.5 -171 739 c 0
 -172.5 740.5 -176 743 -181.5 746.5 c 0
 -187 750 -190 753 -190 754 c 0
 -190 759.5 -187 762 -181 762.5 c 2
 -62.5 762.5 l 2
 -57.5 762.5 -55 761 -55.5 757 c 0
 -55.5 754.5 -59 750 -66.5 744 c 0
 -71 740 -73.5 734.5 -73.5 726.5 c 0
 -73.5 720.5 -72 714 -68.5 705 c 2
 -13.5 552.5 l 2
 -11.5 547.5 -10.5 543.5 -10.5 539.5 c 0
-126.5 665.5 m 2
 -121 665.5 -120 669.5 -123.5 677.5 c 2
 -143 727.5 l 1
 -151.5 727.5 l 1
 -167.5 672.5 l 2
 -168.5 668 -166 665.5 -160 665.5 c 2
 -126.5 665.5 l 2
EndSplineSet
EndChar

StartChar: uni2DFE
Encoding: 11774 11774 166
Width: 1
Flags: W
HStem: 535 151.5<-164.952 -110.571> 743.5 19<-176.882 -94.0018>
VStem: -261 62<535 626.474> -227.5 46.5<729.952 755.25> -166.5 58.5<537.048 659.49 669.117 682.5> -94 54<730.916 754.5> -77 63.5<539.118 626.714>
LayerCount: 2
Fore
SplineSet
-13.5 560 m 4xca
 -13.5 550 -14.5 543.5 -16 540 c 4
 -17.5 536.5 -21 535 -26 535 c 6
 -65.5 535 l 6
 -69.5 535 -73 536.5 -74.5 539 c 4
 -76 541.5 -77 545 -77 549 c 4
 -76.5 560 -76.5 574.5 -77 591 c 4
 -77.5 607.5 -79 620.5 -80.5 628 c 5
 -81.5 637 -84.5 644.5 -88.5 650.5 c 4
 -92.5 656.5 -96.5 659.5 -102 659.5 c 4
 -106 659.5 -108 654.5 -108 644 c 6
 -108 543.5 l 6
 -108 540.5 -109 538 -110.5 537 c 4
 -112 536 -114.5 535 -118.5 535 c 6
 -158.5 535 l 6
 -162 535 -164 536 -165 538 c 4
 -166 540 -166.5 543 -166.5 547 c 6
 -166.5 650.5 l 6
 -166.5 657 -169 660.5 -173 660.5 c 4
 -176.5 660.5 -180.5 656.5 -184.5 648 c 4
 -188.5 639.5 -192 630.5 -193.5 620.5 c 4
 -196 604.5 -197.5 582.5 -197.5 554.5 c 4
 -197.5 547.5 -198 542.5 -199 539.5 c 4
 -200 536.5 -202.5 535 -206.5 535 c 6
 -251 535 l 6
 -257.5 535 -261 542 -261 556 c 4xea
 -261 578 -256 597.5 -247 614 c 4
 -238 630.5 -225.5 644 -211.5 654.5 c 4
 -197.5 665 -182 672.5 -166 677.5 c 5
 -166 683 l 5
 -200 721 l 6
 -206.5 728 -212.5 734 -216.5 738.5 c 4
 -220.5 743 -224 746 -225.5 748 c 4
 -227 750 -227.5 752 -227.5 753.5 c 4
 -227.5 757 -226.5 759.5 -225 760.5 c 4
 -223.5 761.5 -221 762.5 -217.5 762.5 c 6
 -53.5 762.5 l 6
 -47.5 762.5 -43.5 762 -42 761 c 4
 -40.5 760 -40 756.5 -40 752.5 c 4xdc
 -40 750.5 -41.5 748 -45 744 c 4
 -48.5 740 -53 736 -58.5 731 c 4
 -64 726 -69 720.5 -74 716 c 6
 -108 682.5 l 5
 -108 677.5 l 5
 -96 674 -84 668.5 -72.5 661 c 4
 -61 653.5 -51 645 -42 635 c 4
 -33 625 -26 613.5 -21 600.5 c 4
 -16 587.5 -13.5 574 -13.5 560 c 4xca
-94 734 m 4xdc
 -94 737 -96.5 739.5 -100.5 741 c 4
 -104.5 742.5 -109 743.5 -114 743.5 c 6
 -165 743.5 l 6
 -171 743.5 -174.5 742.5 -177 741 c 4
 -179.5 739.5 -181 737 -181 733 c 4
 -181 727.5 -176 720 -167 709.5 c 4
 -164.5 707 -161.5 703 -158 699 c 4
 -154.5 695 -151.5 691.5 -148 689.5 c 4
 -144.5 687.5 -141 686.5 -137 686.5 c 4
 -132 686.5 -126 690 -118 697.5 c 4
 -110 705 -104 712 -100 719.5 c 4
 -96 726 -94 731 -94 734 c 4xdc
EndSplineSet
EndChar

StartChar: uni2E2F
Encoding: 11823 11823 167
Width: 167
Flags: W
HStem: 514.75 222.5<67.8336 99.639>
VStem: 30 70<634.087 715.773> 67.5 70<535.464 622.238>
LayerCount: 2
Fore
SplineSet
72.5 514.75 m 4xa0
 63.75 514.75 57.5 517.25 52.5 522.25 c 5
 62.5 531 67.5 542.25 67.5 554.75 c 4xa0
 67.5 567.25 61.25 588.5 48.75 616 c 4
 36.25 643.5 30 661 30 673.5 c 4
 30 681 31.25 687.25 35 692.25 c 4
 40 704.75 48.75 714.75 61.25 723.5 c 4
 73.75 732.25 86.25 737.25 97.5 737.25 c 4
 103.75 737.25 108.75 736 112.5 732.25 c 5
 103.75 724.75 100 714.75 100 702.25 c 4xc0
 100 691 106.25 669.75 118.75 641 c 4
 131.25 612.25 137.5 592.25 137.5 579.75 c 4
 137.5 563.5 131.25 549.75 116.25 536 c 4
 102.5 522.25 87.5 514.75 72.5 514.75 c 4xa0
EndSplineSet
EndChar

StartChar: uniA640
Encoding: 42560 42560 168
Width: 557
Flags: W
HStem: -309 103<257.75 332.739> 0 55<249 321.014> 606 43<268.645 350.09>
VStem: 354 190<-184.4 -48.3796 593 605.372>
LayerCount: 2
Fore
SplineSet
548 632 m 0
 548 618 540 596 525 568 c 2
 249 55 l 1
 288 55 330 51 372 43 c 0
 414 35 454 17 490 -11 c 0
 526 -39 544 -82 544 -138 c 0
 544 -169 537 -196 522 -223 c 0
 507 -250 487 -271 461 -286 c 0
 435 -301 407 -309 375 -309 c 0
 347 -309 319 -306 293 -299 c 0
 267 -292 246 -284 230 -272 c 0
 214 -260 206 -248 206 -233 c 0
 206 -215 229 -205 275 -206 c 0
 327 -206 354 -175 354 -113 c 0
 354 -75 345 -46 328 -28 c 0
 311 -10 288 0 259 0 c 2
 52 0 l 2
 44 0 40 4 37 12 c 0
 34 20 34 28 39 36 c 2
 350 593 l 1
 352 596 349 600 343 602 c 0
 337 604 332 606 327 606 c 0
 319 606 307 603 289 595 c 0
 271 587 253 577 233 561 c 0
 213 545 196 527 183 507 c 0
 173 492 163 475 153 456 c 0
 143 437 135 424 129 417 c 0
 123 410 116 406 108 406 c 0
 103 406 99 409 96 416 c 0
 93 423 89 431 87 443 c 0
 85 455 81 469 78 486 c 0
 75 503 73 513 71 521 c 0
 69 535 62 554 53 576 c 0
 44 598 39 612 39 619 c 0
 39 624 42 630 48 638 c 0
 54 646 60 649 68 649 c 2
 510 649 l 2
 535 650 548 644 548 632 c 0
EndSplineSet
EndChar

StartChar: uniA641
Encoding: 42561 42561 169
Width: 448
Flags: W
HStem: -199 67<182.496 269.293> 0 53<224.376 269.575> 410 45<175.575 245.671>
VStem: 292 144<-113.301 -22.5479>
LayerCount: 2
Fore
SplineSet
436 -70 m 0
 436 -101 428 -126 413 -145 c 0
 398 -164 378 -179 353 -187 c 0
 328 -195 302 -199 274 -199 c 0
 246 -199 219 -194 196 -184 c 0
 173 -174 161 -164 161 -154 c 0
 161 -148 165 -142 174 -138 c 0
 183 -134 195 -132 208 -132 c 0
 235 -132 255 -126 270 -114 c 0
 285 -102 292 -86 292 -64 c 0
 292 -22 250 0 166 0 c 0
 147 0 125 -3 103 -6 c 0
 81 -9 67 -11 63 -11 c 0
 51 -11 43 -8 35 -1 c 0
 27 6 26 13 31 21 c 1
 250 387 l 2
 254 393 253 398 246 403 c 0
 239 408 231 410 223 410 c 0
 209 410 194 403 179 391 c 0
 164 379 154 363 147 345 c 0
 125 280 105 248 88 250 c 1
 80 250 74 258 68 276 c 0
 62 294 60 310 59 328 c 1
 59 341 56 359 48 381 c 0
 40 403 36 416 36 421 c 0
 36 433 39 443 45 448 c 0
 51 453 62 455 77 455 c 2
 377 455 l 2
 395 455 406 451 413 441 c 0
 420 431 420 421 413 409 c 2
 219 85 l 2
 215 77 216 70 224 63 c 0
 232 56 241 53 252 53 c 2
 295 53 l 2
 350 53 388 39 407 12 c 0
 426 -15 436 -42 436 -70 c 0
EndSplineSet
EndChar

StartChar: uniA642
Encoding: 42562 42562 170
Width: 590
Flags: W
HStem: -309 103<257.75 332.739> 0 55<249 321.014> 162 197<455 566.229> 295 64<410 452.246> 606 43<268.645 350.09>
VStem: 354 190<-184.4 -48.3796 593 605.372> 455 112<162.346 294.953>
LayerCount: 2
Fore
SplineSet
410 359 m 1xdc
 528 359 l 2
 554 359 567 349 567 330 c 2
 567 185 l 2
 567 179 565 174 560 169 c 0
 555 164 550 162 543 162 c 2
 480 162 l 2
 475 162 469 165 463 168 c 0
 457 171 455 175 455 180 c 2
 455 259 l 2xea
 455 267 452 275 448 283 c 0
 444 291 439 295 432 295 c 2
 378 295 l 1
 249 55 l 1
 288 55 330 51 372 43 c 0
 414 35 454 17 490 -11 c 0
 526 -39 544 -82 544 -138 c 0
 544 -169 537 -196 522 -223 c 0
 507 -250 487 -271 461 -286 c 0
 435 -301 407 -309 375 -309 c 0
 347 -309 319 -306 293 -299 c 0
 267 -292 246 -284 230 -272 c 0
 214 -260 206 -248 206 -233 c 0
 206 -215 229 -205 275 -206 c 0
 327 -206 354 -175 354 -113 c 0
 354 -75 345 -46 328 -28 c 0
 311 -10 288 0 259 0 c 2
 52 0 l 2
 44 0 40 4 37 12 c 0
 34 20 34 28 39 36 c 2
 350 593 l 1
 352 596 349 600 343 602 c 0
 337 604 332 606 327 606 c 0
 319 606 307 603 289 595 c 0
 271 587 253 577 233 561 c 0
 213 545 196 527 183 507 c 0
 173 492 163 475 153 456 c 0
 143 437 135 424 129 417 c 0
 123 410 116 406 108 406 c 0
 103 406 99 409 96 416 c 0
 93 423 89 431 87 443 c 0
 85 455 81 469 78 486 c 0
 75 503 73 513 71 521 c 0
 69 535 62 554 53 576 c 0
 44 598 39 612 39 619 c 0
 39 624 42 630 48 638 c 0
 54 646 60 649 68 649 c 2
 510 649 l 2
 535 649 548 644 548 632 c 0
 548 618 540 596 525 568 c 2
 410 359 l 1xdc
EndSplineSet
EndChar

StartChar: uniA643
Encoding: 42563 42563 171
Width: 445
Flags: W
HStem: -199 67<182.496 269.293> 0 53<223.376 269.575> 195 37<302 329.144> 410 45<175.575 245.671>
VStem: 292 144<-113.301 -22.694> 330 90<103.84 195>
LayerCount: 2
Fore
SplineSet
282 195 m 1xf4
 217 85 l 2
 213 77 215 70 223 63 c 0
 231 56 241 53 252 53 c 2
 295 53 l 2
 330 53 358 46 380 31 c 0
 402 16 416 0 424 -19 c 0
 432 -38 436 -55 436 -70 c 0
 436 -101 428 -126 413 -145 c 0
 398 -164 378 -179 353 -187 c 0
 328 -195 302 -199 274 -199 c 0
 246 -199 219 -194 196 -184 c 0
 173 -174 161 -164 161 -154 c 0
 161 -148 165 -142 174 -138 c 0
 183 -134 195 -132 208 -132 c 0
 235 -132 255 -126 270 -114 c 0
 285 -102 292 -86 292 -64 c 0xf8
 292 -22 250 0 166 0 c 0
 147 0 125 -3 103 -6 c 0
 81 -9 67 -11 63 -11 c 0
 51 -11 43 -8 35 -1 c 0
 27 6 26 13 31 21 c 1
 250 387 l 2
 254 393 253 398 246 403 c 0
 239 408 231 410 223 410 c 0
 209 410 194 403 179 391 c 0
 164 379 154 363 147 345 c 0
 125 280 105 248 88 250 c 1
 80 250 74 258 68 276 c 0
 62 294 60 310 59 328 c 1
 59 341 56 359 48 381 c 0
 40 403 36 416 36 421 c 0
 36 433 39 443 45 448 c 0
 51 453 62 455 77 455 c 2
 377 455 l 2
 389 455 396 453 402 448 c 0
 408 443 412 438 412 430 c 0
 412 422 410 416 405 409 c 2
 302 232 l 1
 387 232 l 2
 395 232 403 231 410 228 c 0
 417 225 420 220 420 213 c 2
 420 120 l 2
 420 116 418 112 415 107 c 0
 412 102 408 99 404 100 c 2
 348 104 l 2
 336 105 330 109 330 117 c 2
 330 170 l 2
 330 175 328 181 326 187 c 0
 324 193 320 195 315 195 c 2
 282 195 l 1xf4
EndSplineSet
EndChar

StartChar: uniA644
Encoding: 42564 42564 172
Width: 525
Flags: W
HStem: -13 41<241.539 331.514> 322 39<244.172 288.493> 456 21G<180.5 204> 620 46<217.462 306.352>
VStem: 33 174<101.613 276.052> 71 130<493.26 585.471> 325 163<401.087 558.033> 349 143<67.1159 159.285>
LayerCount: 2
Fore
SplineSet
33 185 m 0xf9
 33 245 53 290 93 318 c 0
 133 346 181 361 236 361 c 0
 259 361 278 368 291 383 c 0
 304 398 313 419 318 442 c 0
 323 465 325 492 325 521 c 0
 325 554 319 579 308 596 c 0
 297 613 284 620 268 620 c 0
 250 620 234 616 221 606 c 0
 208 596 201 581 201 563 c 0
 201 548 204 536 208 524 c 0
 212 512 217 502 224 491 c 0
 231 480 234 474 234 472 c 0
 234 461 219 456 189 456 c 0
 172 456 156 457 139 458 c 0
 122 459 110 461 102 463 c 0
 81 469 71 483 71 505 c 0
 71 555 90 595 128 623 c 0
 166 651 216 666 278 666 c 0
 314 666 348 658 380 642 c 0
 412 626 438 602 458 572 c 0
 478 542 488 507 488 467 c 0xf6
 488 412 470 374 432 353 c 0
 394 332 350 322 300 322 c 0
 269 322 247 310 231 288 c 0
 215 266 207 228 207 173 c 0
 207 129 215 95 228 68 c 0
 241 41 260 28 282 28 c 0
 307 28 324 36 334 52 c 0
 344 68 349 83 349 101 c 0
 349 116 346 128 341 138 c 0
 336 148 328 159 319 171 c 0
 310 183 306 191 306 196 c 0
 306 207 313 212 327 212 c 2
 402 212 l 2
 462 212 492 185 492 131 c 0
 492 104 482 80 463 58 c 0
 444 36 419 18 387 6 c 0
 355 -6 323 -13 291 -13 c 0
 199 -13 133 7 93 49 c 0
 53 91 33 136 33 185 c 0xf9
EndSplineSet
EndChar

StartChar: uniA645
Encoding: 42565 42565 173
Width: 401
Flags: W
HStem: -13 29<182.648 247.508> 17 129<273.685 340.99> 225 27<185.983 218.6> 436 32<165.318 229.463>
VStem: 36 123<55.7365 199.756> 62 93<336.237 420.13> 243 115<267.822 404.5> 260 101<36.02 122.885>
LayerCount: 2
Fore
SplineSet
36 127 m 0xf9
 36 156 43 181 57 199 c 0
 71 217 89 231 111 239 c 0
 133 247 155 252 180 252 c 0
 205 252 222 262 230 283 c 0
 238 304 243 331 243 365 c 0
 243 389 239 406 231 418 c 0
 223 430 214 436 202 436 c 0
 189 436 177 433 168 426 c 0
 159 419 155 408 155 396 c 0
 155 381 159 366 167 353 c 0
 175 340 179 333 179 331 c 0
 179 323 169 320 147 319 c 0
 118 319 96 321 84 325 c 0
 69 330 62 339 62 354 c 0
 62 389 75 418 103 438 c 0
 131 458 166 468 209 468 c 0
 228 468 247 465 265 458 c 0
 283 451 299 444 312 432 c 0
 325 420 338 405 346 387 c 0
 354 369 358 349 358 327 c 0xf6
 358 289 345 262 318 247 c 0
 291 232 261 225 226 225 c 0
 204 225 189 218 177 202 c 0
 165 186 159 158 159 119 c 0
 159 87 163 62 173 44 c 0
 183 26 196 16 212 16 c 0
 230 16 242 21 249 32 c 0
 256 43 260 55 260 67 c 0
 260 79 259 87 256 94 c 0
 253 101 248 109 242 117 c 0
 236 125 234 132 234 135 c 0
 234 143 239 146 249 146 c 2
 297 146 l 2
 316 146 331 142 343 134 c 0
 355 126 361 111 361 89 c 0
 361 61 346 37 317 17 c 0
 288 -3 255 -13 219 -13 c 0
 185 -13 155 -8 132 0 c 0
 109 8 90 20 76 34 c 0
 62 48 51 64 45 81 c 0
 39 98 36 112 36 127 c 0xf9
EndSplineSet
EndChar

StartChar: uniA646
Encoding: 42566 42566 174
Width: 390
Flags: W
VStem: 63 162<118.923 648> 310 48<139.349 264.812>
LayerCount: 2
Fore
SplineSet
63 634 m 6
 63 637 65 640 70 643 c 4
 75 646 79 648 83 648 c 6
 208 648 l 6
 213 648 217 646 220 643 c 4
 223 640 225 637 225 632 c 6
 225 172 l 6
 225 135 235 117 256 118 c 4
 268 118 278 124 286 136 c 4
 294 148 299 159 301 169 c 5
 307 194 310 221 310 251 c 4
 310 257 313 263 318 266 c 4
 323 269 329 271 335 271 c 4
 340 271 346 269 351 265 c 4
 356 261 358 256 358 251 c 6
 358 201 l 6
 358 170 353 140 341 109 c 5
 327 73 312 47 295 32 c 4
 262 2 223 -13 179 -13 c 4
 161 -13 143 -8 127 1 c 4
 111 10 98 20 89 32 c 5
 82 43 76 55 71 68 c 4
 66 81 63 93 63 102 c 6
 63 634 l 6
EndSplineSet
EndChar

StartChar: uniA647
Encoding: 42567 42567 175
Width: 296
Flags: W
HStem: -13 91<118 214.014> 435 20G<61 165>
VStem: 49 127<78.0088 450.905> 236 38<89.4958 181.868>
LayerCount: 2
Fore
SplineSet
49 445 m 2
 49 447 50 450 53 452 c 0
 56 454 60 455 62 455 c 2
 164 455 l 2
 166 455 170 453 172 451 c 0
 174 449 176 445 176 443 c 2
 176 115 l 2
 176 90 183 78 197 78 c 0
 208 78 216 85 224 99 c 0
 232 113 236 136 236 168 c 0
 236 171 238 175 243 178 c 0
 248 181 253 182 258 182 c 0
 261 182 265 181 268 178 c 0
 271 175 274 171 274 168 c 2
 274 134 l 2
 274 115 270 93 262 71 c 0
 254 49 239 29 218 12 c 0
 197 -5 169 -13 132 -13 c 0
 104 -13 82 -4 69 14 c 0
 56 32 49 53 49 76 c 2
 49 445 l 2
EndSplineSet
EndChar

